<?xml version="1.0" encoding="UTF-8"?>
<svg id="Layer_5" xmlns="http://www.w3.org/2000/svg" version="1.1" viewBox="0 0 745.77 711.06">
  <!-- Generator: Adobe Illustrator 30.6.0, SVG Export Plug-In . SVG Version: 2.1.4 Build 109)  -->
  <defs>
    <style>
      .st0 {
        fill: #1a4d6c;
      }

      .st1 {
        fill: #ff7d4d;
      }

      .st2 {
        fill: #fdfaf2;
      }
    </style>
  </defs>
  <path class="st0" d="M622.73,511.95c-8.09-14.34-18.79-25.96-32.12-34.85-13.33-8.88-27.99-15.85-43.94-20.91-15.97-5.05-32.03-9.19-48.19-12.43-16.17-3.23-30.91-6.46-44.25-9.7-13.33-3.23-24.05-7.37-32.12-12.43-8.09-5.05-12.12-12.02-12.12-20.91,0-5.25,1.82-9.7,5.46-13.33s9.19-6.56,16.67-8.79c7.47-2.22,16.87-3.33,28.18-3.33,12.12,0,21.92,1.82,29.4,5.46,7.47,3.64,12.82,8.49,16.06,14.55,3.23,6.06,4.85,12.73,4.85,20v2.42h116.38v-7.27c0-29.49-7.58-53.54-22.73-72.13-15.15-18.58-35.36-32.43-60.61-41.52-25.26-9.09-53.44-13.64-84.55-13.64-1.77,0-3.52.02-5.28.05-.97-8.8-2.94-16.84-5.94-24.07-4.45-10.7-10.51-20-18.18-27.88-7.68-7.88-16.27-14.24-25.76-19.09-9.5-4.85-19.09-8.49-28.79-10.91v-2.42c12.52-4.44,24.04-10.91,34.55-19.4,10.5-8.49,18.99-19.49,25.46-33.03,6.46-13.53,9.7-30,9.7-49.4,0-21.41-5.15-39.29-15.46-53.64-10.3-14.34-24.15-25.15-41.52-32.43-17.38-7.27-36.37-10.91-56.98-10.91H107.83v415.8h173.69c0,.63-.03,1.26-.03,1.9,0,23.03,4.03,42.13,12.12,57.28,8.08,15.15,18.69,27.38,31.82,36.67,13.13,9.3,27.67,16.67,43.64,22.12,15.96,5.46,31.82,9.8,47.58,13.03,15.76,3.24,30.2,6.36,43.34,9.39,13.13,3.03,23.73,6.88,31.82,11.52,8.08,4.65,12.12,11.21,12.12,19.7,0,4.45-1.42,8.69-4.24,12.73-2.83,4.04-8.29,7.27-16.37,9.7-8.09,2.42-20.41,3.64-36.97,3.64-14.55,0-25.86-2.12-33.94-6.36-8.09-4.24-13.85-9.59-17.27-16.06-3.44-6.46-5.15-13.33-5.15-20.61v-3.64c0-.81.2-2.02.61-3.64h-117.59c-.41,2.83-.61,5.36-.61,7.58v6.97c0,30.71,7.97,55.87,23.94,75.46,15.96,19.6,37.07,34.15,63.34,43.64,26.26,9.49,54.75,14.24,85.46,14.24,36.76,0,69.4-4.95,97.89-14.85,28.49-9.9,50.91-25.46,67.28-46.67,16.37-21.21,24.55-48.99,24.55-83.34,0-21.82-4.04-39.9-12.12-54.25ZM224.81,88.49h69.7c8.49,0,15.65,2.33,21.52,6.97,5.85,4.65,8.79,13.03,8.79,25.15,0,6.47-.91,12.73-2.73,18.79-1.82,6.06-4.95,10.91-9.39,14.55-4.45,3.64-10.51,5.46-18.18,5.46h-69.7v-70.92ZM224.81,247.9h70.92c6.46,0,12.43,1.12,17.88,3.33,5.46,2.23,9.9,5.66,13.33,10.3,3.43,4.65,5.15,11.01,5.15,19.09,0,8.89-1.52,16.47-4.55,22.73-3.03,6.27-7.38,11.01-13.03,14.24-5.66,3.24-12.33,4.85-20,4.85h-69.7v-74.55Z"/>
  <g id="morrigan_powers">
    <path class="st2" d="M62.21,330.77c.66-1.31,1.38-2.74,2.18-4.31.8-1.57,1.67-3.18,2.62-4.83,1.5-2.56,3.09-5.27,4.78-8.14,1.68-2.86,3.25-5.47,4.7-7.84,1.44-2.36,2.55-4.05,3.31-5.06.82-1.11,1.78-2.32,2.88-3.61,1.1-1.29,2.11-2.28,3-2.95.45-.33.89-.55,1.32-.65.43-.1.82.06,1.18.49.1.12.2.23.29.35.1.12.17.29.21.51.3.53.49,1.32.56,2.36.08,1.04.09,2.15.05,3.31.02.55.04,1.09.05,1.62,0,.53,0,1.05,0,1.56.08.44.14.87.19,1.27.05.41.11.74.18,1,.28.86.91,1.21,1.88,1.05.97-.16,1.94-.6,2.93-1.34,1.44-1.07,2.42-2.25,2.96-3.53.28-.71.65-1.66,1.11-2.85.46-1.19.97-2.5,1.52-3.92.53-1.28,1.07-2.55,1.6-3.83.53-1.28,1.13-2.48,1.79-3.6.37.1.75.24,1.13.43.38.19.79.37,1.23.55.63.22,1.35.43,2.16.61.81.18,1.67.28,2.56.3,1.95.06,4.22-.33,6.81-1.17,2.59-.83,5.64-2.56,9.15-5.17,1.53-1.14,3.02-2.41,4.48-3.81,1.46-1.4,2.92-2.87,4.4-4.41,2.3-2.51,4.5-5.1,6.61-7.77.67.77,1.87,1.17,3.61,1.19,2.12.02,5.01-.94,8.68-2.89,3.47-1.84,7.2-4.24,11.2-7.21,3.99-2.97,7.79-6.16,11.38-9.57,3.6-3.41,6.58-6.74,8.95-9.99,2.26-3.09,3.53-5.8,3.85-8.12,3.84-1.65,7.85-3.78,12.03-6.39,3.07-1.92,5.18-3.35,8.14-5.42,7.4-5.19,12.13-9.14,18.15-14.17,1.14-.95,2.81-2.42,4.9-4.44,1.66-1.6,2.92-2.96,3.79-4.1,2.58-.09,5.63-.8,9.17-2.12.52-.19,1.04-.39,1.56-.58.52-.19,1.03-.41,1.54-.66-3.45,3.62-6.57,7.33-9.36,11.11-2.79,3.79-4.91,7.28-6.37,10.49-1.45,3.2-1.96,5.78-1.5,7.73.42,1.8,1.86,2.86,4.31,3.2.41.06.87.07,1.35.07,1.33-.12,3.25-.37,5.54-.94,3.39-.85,5.97-2.02,8.29-3.13,7.45-3.58,13.34-7.25,13.97-7.65,1.22-.76,5.76-3.99,14.84-10.43,1.08-.77,2.92-2.14,5.27-4.07,1.8-1.48,3.18-2.75,4.15-3.84,2.51.14,5.56-.3,9.15-1.32.53-.15,1.05-.3,1.58-.45.53-.15,1.05-.33,1.57-.53-3.77,3.38-7.23,6.87-10.37,10.47-3.15,3.6-5.61,6.97-7.39,10.1-1.78,3.13-2.56,5.71-2.35,7.74.2,1.87,1.47,3.09,3.82,3.65,2.34.56,5.94.16,10.79-1.23.95-.27,1.95-.59,2.99-.97,1.05-.38,2.09-.74,3.14-1.1,4.49-1.65,8.74-3.63,12.73-5.92,3.3-1.89,6.31-3.83,9.08-5.8-.14.38-.25.76-.31,1.14-.27,1.69.76,2.74,3.08,3.14,2.32.4,5.05.46,8.2.2.73-.06,1.47-.14,2.21-.23.74-.09,1.48-.19,2.22-.31,2.44-.37,4.89-.81,7.35-1.35,2.46-.53,4.88-1.08,7.25-1.66,6.57-1.63,13.05-3.39,19.46-5.27,6.4-1.88,12.82-3.88,19.26-5.98,6.43-2.05,12.84-4.16,19.23-6.34,6.4-2.18,12.81-4.29,19.24-6.34,1.74-.58,4.04-1.34,6.88-2.28,2.84-.94,5.93-1.87,9.29-2.8.16-.05.33-.09.49-.13-1.31.58-2.62,1.17-3.9,1.81-3.52,1.74-6.48,3.54-8.9,5.38-2.41,1.84-3.84,3.58-4.29,5.23-.15.55-.12,1.1.09,1.65.21.55.51,1.05.9,1.5.81.78,1.87,1.36,3.16,1.73,1.29.37,2.65.57,4.09.59,2.98.04,6.31-.46,9.99-1.48,3.68-1.03,7.29-2.25,10.82-3.66,3.53-1.41,6.48-2.68,8.85-3.81,1.41-.64,2.71-1.24,3.9-1.81.74-.35,1.38-.65,1.98-.93-.68,1-1.36,1.99-2.04,2.99-1.71,2.23-4.05,4.93-7.18,7.71-2.05,1.82-4.03,3.33-5.81,4.55-7.19-.09-15.01-.03-23.47.19-8.46.22-17.1.63-25.92,1.24-8.82.6-17.33,1.39-25.53,2.35-8.2.97-15.62,2.18-22.25,3.63-6.63,1.46-12.05,3.17-16.25,5.16-4.2,1.98-6.65,4.23-7.34,6.76-.6,2.19.28,4.23,2.65,6.1,2.37,1.87,6.15,3.41,11.33,4.6,5.19,1.19,11.63,1.84,19.33,1.94,13.15.17,25.4-1.02,36.76-3.57,11.37-2.55,21.76-6.06,31.18-10.54,9.42-4.47,17.68-9.5,24.77-15.07,7.35.26,13.27.75,17.76,1.47,4.49.72,7.56,1.44,9.22,2.18.54.28,1.22.43,2.04.44,1.02.01,1.61-.23,1.74-.72.17-.6-.54-1.22-2.12-1.84-2.21-.96-5.35-1.82-9.42-2.56-4.07-.74-9.42-1.23-16.05-1.49,3.93-3.42,6.88-6.31,8.87-8.68,1.99-2.37,3.8-4.64,5.43-6.82.96-1.25,1.54-2.24,1.74-2.95.24-.88,0-1.48-.74-1.82,0,0,0,0,0,0,.65-1.14,1.08-2.27,1.25-3.38.15-.98.08-1.87-.21-2.65-.65-1.78-2.44-2.92-5.36-3.43-2.12-.36-4.64-.42-7.58-.17-3.36.28-7.02.87-10.99,1.77-3.97.9-7.86,1.91-11.65,3.04-3.79,1.07-7.38,2.17-10.76,3.29-3.38,1.12-6.22,2.07-8.52,2.86-13.1,4.33-26.02,8.68-38.76,13.04-12.74,4.36-25.65,8.27-38.71,11.74-3.78.96-7.68,1.78-11.71,2.44-.64.11-1.35.21-2.14.3-.79.09-1.55.17-2.29.23-2.31.19-3.88.15-4.71-.13-.84-.28-1.21-.69-1.12-1.24.09-.6.63-1.4,1.62-2.4.98-1,2.57-2.21,4.76-3.63,2.19-1.42,4.86-2.94,8.01-4.55,3.15-1.61,5.62-2.82,7.4-3.61.44-.14.94-.4,1.52-.77.57-.37.89-.75.95-1.13.1-.66-.53-1.07-1.9-1.25-1.37-.18-2.68-.22-3.94-.11-.63.05-1.27.16-1.91.32-1.29.32-2.47.73-3.53,1.23-1.06.49-1.94.96-2.62,1.39-.8.5-1.24.97-1.31,1.4-.03.22,0,.35.09.4-3.96,2.44-7.92,4.88-11.89,7.31-2.34,1.47-5.15,3.17-8.42,5.09-3.27,1.92-6.56,3.73-9.85,5.42-3.3,1.69-6.25,3.01-8.87,3.97-.73.26-1.44.5-2.12.72-.68.22-1.29.41-1.81.56-2.74.78-4.7,1.03-5.87.75-1.17-.28-1.81-.92-1.92-1.91-.15-1.35.47-3.17,1.86-5.47,1.38-2.3,3.23-4.83,5.54-7.61,2.31-2.77,4.91-5.6,7.81-8.49,2.89-2.89,5.73-5.56,8.51-8.01.69-.63,1.41-1.26,2.16-1.9.75-.64,1.42-1.23,2.01-1.78,1.08-1.06,1.59-1.85,1.54-2.37-.02-.16-.08-.24-.19-.27-.45-.14-1.24-.17-2.37-.09-1.13.08-2.28.29-3.44.62-.74.21-1.42.48-2.03.82-2.03,1.33-4.23,2.6-6.6,3.81-2.37,1.21-4.82,2.18-7.35,2.9-1.69.48-2.89.72-3.59.7-.71-.01-1.23-.1-1.58-.27.46-.77,1.4-1.86,2.83-3.26,1.42-1.4,3.03-2.87,4.82-4.43,1.79-1.55,3.46-2.98,5-4.28,1.54-1.29,2.67-2.21,3.37-2.73.91-.63,1.33-1.29,1.26-1.96-.03-.31-.3-.53-.8-.66-.5-.12-1.34-.02-2.49.31-2.11.6-4.34,1.57-6.7,2.91-2.36,1.34-4.53,2.85-6.53,4.51-2,1.67-3.61,3.32-4.85,4.96-1.24,1.64-1.79,3.08-1.65,4.33.1.94.72,1.67,1.87,2.2-1.15.93-2.8,2.25-4.81,3.82-6.44,5.03-10.76,8.41-16.79,12.33,0,0-6.46,4.19-13.47,7.71-.69.35-1.34.65-1.34.65-.72.32-1.41.62-2.08.9-.67.28-1.27.51-1.78.71-2.71,1.01-4.67,1.43-5.89,1.26-1.23-.17-1.95-.73-2.17-1.68-.3-1.3.12-3.13,1.26-5.48,1.14-2.36,2.73-4.99,4.77-7.89,2.03-2.91,4.36-5.89,6.98-8.96,2.62-3.07,5.2-5.92,7.75-8.56.63-.67,1.29-1.35,1.98-2.04.69-.69,1.3-1.33,1.84-1.91.98-1.13,1.41-1.94,1.29-2.44-.03-.15-.11-.23-.23-.24-.47-.09-1.28-.05-2.43.13-1.14.18-2.29.49-3.43.91-.73.27-1.39.6-1.97.98-1.92,1.48-4.01,2.91-6.29,4.3-2.28,1.39-4.66,2.55-7.16,3.49-1.66.62-2.86.96-3.58,1.01-.72.05-1.27.01-1.64-.12.38-.79,1.22-1.93,2.51-3.42,1.29-1.49,2.76-3.07,4.4-4.74,1.64-1.67,3.18-3.21,4.6-4.61,1.42-1.4,2.47-2.39,3.12-2.96.85-.7,1.21-1.37,1.05-2.02-.07-.3-.37-.49-.89-.56-.53-.08-1.36.1-2.51.53-2.08.78-4.24,1.92-6.49,3.44-2.25,1.52-4.29,3.18-6.13,4.98-1.84,1.8-3.3,3.55-4.37,5.26-1.07,1.7-1.47,3.16-1.19,4.35.21.9.93,1.56,2.16,1.97-1.29,1.24-2.78,2.63-4.46,4.15-1.68,1.52-3.33,2.94-4.94,4.25-3.87,3.29-7.94,6.56-12.2,9.81-3.73,2.84-7.35,5.44-10.88,7.83-1.01.56-2.01,1.11-3.01,1.64-1.29.68-2.7,1.44-4.23,2.28-1.53.84-3.1,1.65-4.7,2.45-.04-.61-.28-1.11-.71-1.5-1.09-1.25-3.06-1.75-5.93-1.52-2.87.24-5.94,1.08-9.22,2.53-2.25,1.02-4.51,2.13-6.79,3.34-1.79.95-3.48,1.89-5.09,2.82-1.6.94-3.05,1.88-4.33,2.85-5.19,3.72-7.4,6.39-6.62,8.03.34.73,1.13,1.08,2.36,1.06-1.82,1.65-3.59,3.68-5.3,6.1-1.71,2.42-3.17,4.77-4.38,7.06-1.06,2.01-1.76,3.63-2.09,4.85-1.91,2.55-3.91,5.05-6.03,7.51-1.18,1.38-2.66,2.93-4.44,4.63-1.78,1.71-3.57,3.23-5.37,4.57-2.25,1.68-4.04,2.67-5.39,2.98-1.53.45-2.93.65-4.22.6-1.28-.05-2.41-.21-3.38-.49-1-.32-1.85-.67-2.53-1.04-.68-.37-1.26-.66-1.73-.88-.29-.16-.65-.29-1.08-.37-.44-.08-.95-.03-1.52.15-.43.19-.82.42-1.18.69-1.17.87-2.4,2.36-3.7,4.46-.75,1.19-1.48,2.55-2.17,4.07-.69,1.52-1.36,3.03-2.01,4.52-.22.61-.47,1.23-.73,1.87-.27.64-.53,1.24-.78,1.81,0-.51.05-1.07.11-1.69.07-.61.12-1.25.15-1.9.07-1.31.06-2.57-.02-3.8-.08-1.22-.35-2.11-.81-2.65-.29-.35-.64-.67-1.04-.97-.4-.3-.95-.43-1.66-.41-1.51.12-3.57,1.15-6.17,3.1-.27.2-.56.42-.88.65-.32.23-.64.51-.96.81-1.68,1.31-3.58,3.44-5.71,6.38-2.13,2.94-4.33,6.23-6.6,9.88-2.27,3.64-4.38,7.17-6.34,10.58,1.31-2.61,2.63-5.25,3.97-7.91,1.34-2.66,2.31-5.2,2.92-7.6.4-1.43.34-2.46-.18-3.07-.42-.5-1.07-.74-1.93-.73-.43,0-.84.05-1.22.11-.38.07-.78.12-1.18.17-.92.12-1.88.33-2.87.63-.99.3-1.87.61-2.63.92-1,.37-1.78.76-2.32,1.16-.81.6-1.08,1.06-.82,1.37.39.46,1.27.47,2.64,0,1.04-.33,1.77-.25,2.19.25.39.46.57,1.19.53,2.19-.03,1-.27,2.2-.7,3.59-.47,2.05-1.14,4.15-2.03,6.32-.88,2.17-1.56,3.84-2.04,5.01-.47,1.36-1.06,3.09-1.77,5.19-.72,2.11-1.28,4.04-1.7,5.79-.04.17-.07.31-.1.47h5.12c.31-.59.64-1.23.99-1.94ZM432.47,219.98c-8.47,3.99-17.6,7.06-27.42,9.22-9.81,2.16-20.42,3.16-31.82,3.02-7.49-.1-13.4-.54-17.72-1.34-4.31-.8-7.31-1.81-8.98-3.04-1.67-1.23-2.33-2.51-1.96-3.82.5-1.81,2.64-3.52,6.43-5.12,3.79-1.6,8.76-3.08,14.9-4.43,6.14-1.35,13.02-2.56,20.62-3.62,7.61-1.06,15.5-1.95,23.69-2.67s16.22-1.28,24.11-1.67c7.89-.39,15.18-.58,21.87-.54-7.34,5.35-15.25,10.02-23.71,14.02ZM452.61,184.67c3.96-1.68,7.96-3.08,11.97-4.18,4.01-1.1,7.56-1.64,10.64-1.6.07,0,.14,0,.21,0,.24.16.46.33.64.52,1,.89,1.37,2.12,1.13,3.7-.08.48-.21.95-.38,1.43-3.2,1.29-6.48,2.6-9.88,3.97-3.99,1.6-7.84,3.12-11.53,4.56-1.03.37-2.6.94-4.72,1.71-2.12.77-4.32,1.47-6.61,2.1-2.29.63-4.2.94-5.74.92-.62,0-1.17-.14-1.67-.39-.5-.25-.63-.79-.41-1.61.03-.11.07-.25.11-.41.05-.17.15-.36.31-.57.8-1.42,2.66-3.05,5.59-4.88,2.92-1.83,6.37-3.59,10.34-5.27ZM159.86,239.7c.57-.6,1.48-1.39,2.74-2.39,2.48-1.97,5.75-4.03,9.82-6.18,3.97-2.1,6.81-3.24,8.53-3.41,1.72-.17,2.77.16,3.16.98.24.5.27,1.22.1,2.17-3.61,1.8-7.27,3.51-10.97,5.13-3.7,1.62-7.25,3.04-10.64,4.27-1.28.45-2.16.69-2.64.71-.29.02-.48.01-.62-.01.21-.47.38-.89.52-1.26ZM148.96,260.42c.97-2.02,2.26-4.2,3.88-6.54,1.62-2.34,3.34-4.49,5.14-6.44,1.8-1.95,3.29-3.27,4.46-3.94,3.06-.88,6.36-2.23,9.9-4.05,3.54-1.82,7.15-3.7,10.82-5.64-1.44,2.99-3.28,5.78-5.52,8.39-2.12,2.6-4.51,5.22-7.17,7.85-2.66,2.64-5.26,5.02-7.78,7.15-2.53,2.14-4.69,3.79-6.49,4.97-.57.36-1.1.69-1.59.97-.49.29-.93.53-1.32.74-1.69.89-2.92,1.36-3.71,1.41-.79.05-1.27-.14-1.47-.55-.41-.86-.13-2.31.84-4.33Z"/>
    <path class="st2" d="M55.98,336.93c.52.62,1.54.36,3.07-.78.36-.27.8-.88,1.31-1.83.26-.48.54-1.01.85-1.6h-5.12c-.2.88-.36,1.69-.45,2.39-.1.83,0,1.44.33,1.83Z"/>
    <path class="st2" d="M669.19,360.09c1.26-2.01,2.44-3.9,3.53-5.65,1.16-1.92,2.82-4.56,4.98-7.9.6-.94,1.23-1.88,1.88-2.83-.09-.04-.18-.09-.28-.13-.86-.35-1.83-.53-2.91-.53-.79,0-1.54.11-2.24.33-1.9,2.97-3.56,5.55-4.97,7.72v8.97Z"/>
    <path class="st2" d="M656.48,371.25c-3.24,5.23-6.42,10.45-9.52,15.63-6.74,11.24-14.09,22.13-22.07,32.65-4.08-2.13-8.21-4.36-12.4-6.71-4.19-2.35-7.48-4.45-9.86-6.3-1.32-1.04-1.84-2.11-1.56-3.2.29-1.09.97-2.32,2.05-3.71.61-.78,1.27-1.59,1.98-2.43.72-.84,1.38-1.66,1.98-2.43.99-1.42,1.59-2.66,1.81-3.73.21-1.06-.1-1.78-.94-2.15-.67-.29-1.5-.28-2.48.05-.98.33-2.01.89-3.09,1.69-1.51,1.08-2.77,2.26-3.78,3.56-2.49,3.2-3.49,6.46-3,9.8.49,3.34,1.64,6.16,3.45,8.45.43,3.2.8,7.5,1.09,12.89.29,5.4.4,10.97.31,16.71-.23.01-.44.07-.63.16-.18.09-.35.17-.5.21-2.45-.61-5.01-.36-7.66.74-2.65,1.1-4.46,2.25-5.4,3.46-1.15,1.47-.96,2.53.55,3.19,1.01.44,2.38.63,4.11.58.89-.42,1.84-.88,2.84-1.37,1-.49,2.07-.89,3.21-1.2.54-.11,1.06-.23,1.55-.37.5-.13,1.06-.24,1.68-.31.64,1.4,1.39,3.63,1.32,6.54-.08,3.49-1.31,6.35-2.18,8.01-.83,1.63-2.06,3.82-3.81,6.32-2.33,3.32-4.4,5.49-7.61,8.85,0,0-4.2,4.44-7.55,6.77-.68.47-1.34.91-1.98,1.32-.65.41-1.23.76-1.75,1.05-2.68,1.5-4.84,2.17-6.46,1.99-1.62-.17-2.88-.91-3.78-2.19-1.22-1.76-1.9-4.28-2.02-7.56-.12-3.28.13-6.95.75-11.01.62-4.07,1.54-8.26,2.78-12.57,1.23-4.32,2.57-8.33,4-12.06.35-.95.72-1.91,1.12-2.89.4-.98.74-1.87,1.03-2.7.48-1.58.48-2.72,0-3.4-.14-.2-.29-.31-.44-.32-.65-.11-1.62-.01-2.91.29-1.3.3-2.51.77-3.65,1.4-.72.41-1.32.88-1.8,1.43-1.41,2.11-3.06,4.16-4.96,6.17-1.9,2.01-4.09,3.7-6.57,5.09-1.65.92-2.91,1.44-3.77,1.54-.86.11-1.56.07-2.11-.09-.05-1.1.24-2.7.87-4.79.62-2.09,1.41-4.32,2.35-6.68.94-2.36,1.83-4.53,2.68-6.52.85-1.98,1.49-3.38,1.93-4.19.6-.99.59-1.93-.02-2.82-.28-.41-.77-.65-1.47-.73-.7-.08-1.62.2-2.75.83-2.07,1.16-3.99,2.82-5.77,5-1.79,2.18-3.23,4.54-4.33,7.09-1.1,2.55-1.76,5.01-1.97,7.39-.21,2.38.25,4.38,1.37,6.01.85,1.22,2.16,2.09,3.95,2.59-.79,1.76-1.72,3.72-2.8,5.88-1.08,2.16-2.19,4.17-3.34,6.04-3.49,5.7-5.85,9.95-8.68,13.97-7.6,10.79-16.47,18.34-21.24,22.36-5.53,4.66-9.94,7.61-13.57,9.86-4.66,2.88-9.26,5.02-13.81,6.41-4.55,1.39-7.88,1.79-9.99,1.2-2.11-.59-3.36-1.64-3.75-3.15-.06-.24-.12-.48-.18-.71-.06-.24-.07-.49-.01-.77.03-.86.21-1.81.56-2.86.34-1.04.8-2.13,1.38-3.24.59-.09,1.32-.25,2.18-.47.86-.22,1.69-.45,2.49-.7.8-.24,1.56-.48,2.3-.7.74-.23,1.5-.5,2.27-.82,2.23-.85,4.88-2.01,7.94-3.46,3.06-1.45,6.04-3.11,8.93-4.98,2.89-1.87,5.2-3.86,6.93-5.97,1.73-2.11,2.31-4.27,1.74-6.49-.38-1.5-1.43-2.62-3.15-3.33-1.72-.71-4.12-.9-7.22-.55-.5-.02-1.08.08-1.77.28-.68.21-1.36.42-2.05.63-1.82.56-3.69,1.28-5.61,2.16-1.92.89-3.49,1.82-4.71,2.79-3.16,2.51-6.32,5.5-9.47,8.99-3.16,3.49-5.67,6.97-7.54,10.45-.62,1.16-1.09,2.28-1.43,3.35-1.02.3-2.67.63-4.95.98-2.68.42-5.57.77-8.7,1.06-1.27.12-2.57.22-3.9.3-1.33.08-2.63.18-3.9.3-.23-.06-.77-.06-1.64.03-.87.08-1.88.13-3.03.16-.76-.6-1.89-1.19-3.4-1.76-1.51-.57-3.06-.95-4.65-1.14-1.14-.15-2.23-.17-3.27-.07-2.55.24-3.83,1.24-3.85,3,.18,2.17,1.55,3.42,4.11,3.77,2.56.35,4.94.42,7.14.22.09.33.15.64.19.93.03.29.04.56.02.82-.24,3.13-1.49,6.08-3.77,8.85-2.28,2.77-5.12,5.07-8.54,6.9-3.41,1.83-7.09,2.93-11.02,3.29-4.63.43-7.89-.55-9.78-2.93-1.89-2.39-2.7-5.35-2.43-8.91.04-.51.08-1.01.11-1.52.04-.51.13-1.02.29-1.54.3-.95.06-1.91-.73-2.89-.79-.97-1.94-1.39-3.44-1.25-.81.07-1.76.41-2.84,1.02-4.8,2.71-9.56,5.61-14.28,8.69-4.71,3.08-9.77,6.13-15.17,9.15-2.4,1.31-4.76,2.56-7.09,3.74-2.33,1.18-4.38,2.11-6.16,2.78-1.54.56-2.65.87-3.35.94-.93.09-1.36-.25-1.3-1.01.13-1.78.97-3.76,2.52-5.96,1.54-2.2,3.43-4.37,5.66-6.51,2.23-2.14,4.53-4.07,6.9-5.8,2.37-1.73,4.45-2.97,6.23-3.73.95-.42,1.56-.94,1.84-1.56.27-.61.42-.96.42-1.05.05-.68-.42-1.26-1.42-1.76-1-.49-2.06-.9-3.18-1.22-1.13-.32-1.98-.45-2.56-.39-1.16.11-2.63.92-4.41,2.42-1.78,1.51-3.68,3.41-5.69,5.69-.45.51-.88,1.02-1.31,1.54-2.29.23-5.39.45-9.03.42-4.08-.04-7.09-.39-9.88-.71-3.51-.4-6.85-.94-10.03-1.64l-9.38-2.05c.21-.41.43-.85.66-1.3.23-.45.42-.94.56-1.46,1-2.9.42-5.18-1.73-6.84-2.16-1.66-4.88-2.85-8.16-3.57-2.86-.62-6.4-1.01-10.63-1.15-4.22-.14-8.72.18-13.47.98-.23-.23-.46-.49-.67-.76-.21-.27-.44-.53-.67-.77-.36-.44-.86-.74-1.5-.88-.74-.16-1.56-.06-2.44.29-.89.36-1.52.91-1.9,1.65-.34.66-.35,1.44-.04,2.33.31.89,1.04,1.83,2.19,2.82,2.4,1.99,6.36,3.87,11.89,5.62,5.52,1.76,11.02,3.28,16.49,4.56-1.82,1.26-3.81,2.4-5.98,3.44-2.18,1.04-4.3,1.98-6.37,2.81-3.91,1.44-7.98,2.68-12.22,3.73-4.24,1.05-8.16,1.82-11.77,2.32-3.61.5-6.5.69-8.68.58-.79-.08-1.48-.16-2.08-.25-.6-.09-1.17-.19-1.7-.3-1.91-.42-3.04-.96-3.41-1.64-.36-.68-.38-1.34-.04-2,.59-1.16,1.7-2.36,3.33-3.61,1.63-1.25,3.36-2.27,5.17-3.07,1.56-.76,3.57-1.65,6.03-2.67,2.46-1.02,4.84-1.83,7.15-2.43,2.3-.6,3.81-.55,4.51.16,1.08.88,1.9.78,2.44-.29.08-.16.14-.52.19-1.06-.29-.42-.74-.99-1.39-1.61-1.09-1.04-2.17-1.65-2.79-1.98-4.86-2.61-10.76-4.68-10.76-4.68-2.39-.84-6.06-2.14-10.68-3.9,1.11-1.47,1.7-3.15,1.74-5.05.05-1.89-.21-3.35-.77-4.37-1.19-3.03-3.23-5.63-6.12-7.8-2.89-2.17-5.8-3.97-8.72-5.41-2.56-1.26-4.94-2.27-7.14-3.03-2.2-.76-3.87-1.32-5-1.66-.39-.61-1.08-1.17-2.08-1.67-1.64-.81-3.78-1.3-6.41-1.48-2.63-.18-5.06-.1-7.29.24-2.23.34-3.71.86-4.43,1.57-.57.68-.08,1.4,1.47,2.16.27.14.55.27.82.4.27.14.62.26,1.05.36-6.99,2.3-13.91,4.67-20.75,7.1-6.84,2.43-13.68,4.78-20.52,7.05-7.05,2.38-14.09,4.66-21.11,6.84-7.02,2.18-14.08,4.18-21.18,6.01-10.85,2.74-21.03,4.91-30.54,6.51-9.5,1.6-17.45,2.36-23.87,2.29-4.71-.09-9.49-.6-14.32-1.54-4.83-.94-9.39-2.47-13.69-4.58-1.19-.58-2.34-1.21-3.47-1.87-1.12-.66-2.21-1.36-3.28-2.09-3.84-2.95-6.26-6.14-7.25-9.55-.99-3.42-.74-7.31.75-11.68.42-.96.5-1.78.22-2.44-.28-.67-.69-1.14-1.24-1.41-1.19-.59-2.26-.31-3.21.81-.13.15-.26.35-.41.6-.14.25-.3.54-.46.89-1.57,4.76-1.49,9.26.22,13.51,1.71,4.25,4.33,8.04,7.85,11.37,2.47,2.28,5.67,4.39,9.6,6.32,4.66,2.29,9.73,4.1,15.22,5.41,5.48,1.32,10.66,2.16,15.52,2.53,6.9.42,14.95-.17,24.18-1.74,9.23-1.58,18.84-3.84,28.83-6.79,9.19-2.6,17.19-5.18,24-7.73,6.81-2.55,13.52-5.13,20.12-7.73,6.69-2.56,13.81-5.17,21.37-7.83,7.56-2.66,16.67-5.41,27.34-8.24l3.13.42c1.69.3,4.01.96,6.96,1.99,2.95,1.03,5.88,2.26,8.81,3.7,4.29,2.11,7.64,4.4,10.02,6.85,2.39,2.45,2.57,4.88.54,7.29-.25.3-.51.6-.76.9-.25.3-.6.56-1.04.77-7.77-2.44-15.29-4.52-22.57-6.24-7.28-1.72-13.76-2.97-19.44-3.75-5.68-.78-10.05-.96-13.12-.55-3.22.44-5.46,1.41-6.73,2.91-1.4,1.65-1.28,3.47.35,5.44,1.63,1.97,3.77,3.61,6.42,4.92,2.38,1.17,5.4,2.34,9.07,3.51,3.67,1.17,7.68,2.16,12.04,2.97,4.36.81,8.73,1.29,13.14,1.44,4.4.15,8.63-.22,12.67-1.1,4.04-.88,7.47-2.44,10.26-4.68,5.54,1.56,10.45,3.1,14.73,4.62.55.2,1.08.39,1.59.58-.75.19-1.52.42-2.31.68-3.13,1.06-6.15,2.44-9.07,4.14-2.92,1.7-5.29,3.41-7.1,5.12-1.24,1.29-2.14,2.47-2.68,3.54-1.05,2.06-1.09,4.12-.13,6.16.96,2.04,3.4,3.49,7.32,4.35,3.71.81,8.18,1.1,13.42.86,5.24-.23,10.64-.96,16.2-2.17,5.56-1.21,10.74-2.9,15.55-5.07,4.8-2.16,8.63-4.77,11.47-7.82,2.12.46,4.06.87,5.83,1.2,1.77.34,3.31.61,4.62.8,5.38.99,10.67,1.59,15.85,1.81,5.19.22,9.15.16,11.91-.15.19-.01.36-.03.54-.05-.72.95-1.43,1.91-2.11,2.89-1.74,2.51-3.19,4.89-4.33,7.14-1.15,2.25-1.77,4.05-1.87,5.4-.16,2.11.95,3.44,3.32,3.97,2.37.54,4.6.71,6.68.51,1.62-.15,4.1-1.07,7.45-2.77,3.34-1.69,7.07-3.78,11.16-6.26,4.09-2.48,8.05-4.97,11.85-7.46,3.81-2.49,6.87-4.56,9.17-6.2.47,2.9,1.41,5.62,2.83,8.18,1.41,2.56,3.71,4.53,6.88,5.91,3.17,1.39,7.42,1.83,12.74,1.34,3.01-.28,6.17-1.12,9.5-2.52,3.32-1.4,6.45-3.16,9.36-5.28,2.92-2.12,5.33-4.38,7.23-6.78,1.91-2.4,2.95-4.78,3.13-7.15.08-1.01-.02-2.01-.29-2.99,3.01-.28,6.14-.65,9.39-1.12,3.25-.47,6.25-.96,8.99-1.46,2-.37,3.62-.7,4.85-1-.11,1.14-.03,2.22.23,3.24.39,1.51,1.2,2.79,2.46,3.86,1.25,1.07,3.05,1.85,5.38,2.33,2.46.53,5.01.67,7.65.42,2.63-.25,5.2-.76,7.7-1.52,4.09-1.25,8.06-3,11.9-5.24,2.37-1.38,5.79-3.34,10.42-6.72,13.71-9.99,21.52-19.65,23.44-22.08,2.1-2.66,3.66-4.91,4.65-6.39,3.23-4.74,6.16-9.44,8.77-14.11,1.1-1.93,2.15-4.03,3.16-6.29,1.01-2.26,1.68-4.19,2.01-5.79,3.13-.24,6.44-1.35,9.95-3.31.51-.29,1.03-.58,1.55-.87.52-.29,1.01-.61,1.48-.97-1.9,5.11-3.34,10.32-4.32,15.62-.98,5.31-1.32,10.18-1.03,14.63.29,4.45,1.36,8,3.19,10.65,1.69,2.44,4.16,3.84,7.41,4.18,3.25.35,7.25-.81,11.99-3.47.93-.52,1.87-1.12,2.83-1.8.96-.68,1.93-1.34,2.92-1.99,4.11-2.96,7.67-6.3,10.68-10.01,1.48-1.82,5.17-6.26,7.5-11.19,3.51-7.43,3.17-14.2,2.46-18.29,4.94-.85,10.29-1.59,16.06-2.2,5.76-.61,11.42-1.09,16.99-1.45,1.21-1.56,2.18-3.42,2.92-5.59.73-2.17.73-4.22,0-6.17-.55-1.17-1.42-2.29-2.59-3.39-.86-1.07-4.33-3.1-10.43-6.11,3.13-3.73,6.7-8.45,10.7-14.17,4.01-5.72,8.12-11.79,12.35-18.23,3.02-4.6,5.93-9.09,8.73-13.48,0,0,0,0-.01-.01-1.21-1.21-2.24-2.56-3.12-4.02ZM478.7,495.04c3.08-3.08,6.07-5.62,8.99-7.62,1.45-1.04,2.77-1.85,3.98-2.43,1.2-.58,2.2-.99,2.99-1.24,2.16-.66,3.37-.48,3.63.55.37,1.43-.15,3-1.56,4.71-1.4,1.71-3.24,3.39-5.52,5.02-2.28,1.64-4.6,3.12-6.96,4.44-2.36,1.32-4.36,2.36-6.01,3.12-2.61,1.31-5.01,2.22-7.21,2.72,2.03-3.1,4.58-6.19,7.65-9.27ZM227.54,507.38c-4.11.27-8.36.17-12.75-.29-4.15-.45-8.26-1.25-12.33-2.4-4.07-1.15-7.29-2.31-9.67-3.48-2.56-1.26-3.62-2.15-3.17-2.68.13-.15.73-.33,1.82-.54,1.08-.21,2.98-.23,5.69-.07,3.26.12,7.13.56,11.59,1.32,4.46.76,9.28,1.72,14.45,2.88,5.16,1.16,10.24,2.38,15.23,3.67-3.13.8-6.75,1.33-10.86,1.6ZM304.43,516.57c-.34.66-.85,1.33-1.55,2-4.26-1.11-8.42-2.43-12.47-3.96-4.05-1.53-7.66-3.23-10.82-5.11,2.9-.38,5.86-.53,8.89-.47,3.03.07,6.02.42,8.99,1.07,3.39.74,5.56,1.67,6.52,2.8.96,1.13,1.1,2.35.43,3.67ZM604.42,427.18c-.26-3.99-.6-7.53-1.02-10.6,1.06.81,2.15,1.57,3.27,2.3,1.12.72,2.21,1.43,3.25,2.11,1.56,1.03,3.09,1.96,4.58,2.78,1.49.83,3.1,1.73,4.81,2.71-2.34,2.57-4.72,4.94-7.15,7.12-2.43,2.18-4.84,4.08-7.23,5.7-.08-4.08-.25-8.12-.51-12.12ZM628.47,432.81c2.04,1.64,3.8,3.31,5.3,5-3.72.58-8.02,1.16-12.92,1.75-4.9.58-9.65,1.38-14.25,2.38,2.89-1.98,5.6-4.12,8.14-6.43,2.53-2.31,4.97-4.75,7.3-7.32,2.25,1.44,4.39,2.99,6.43,4.63Z"/>
    <path class="st2" d="M719.38,321.75c-1.16-3.34-3.26-5.96-6.28-7.86-2.58-1.59-5.63-1.87-9.12-.85-3.71,1.16-7.36,3.42-10.93,6.78-3.57,3.36-6.91,7.03-10.01,11-.42.54-.83,1.08-1.24,1.63,1.63.26,3.21.7,4.72,1.35.13.06.24.12.37.18,2.02-2.43,4.1-4.65,6.22-6.66,2.8-2.65,5.56-4.57,8.29-5.76,2.72-1.18,5.26-1.26,7.61-.24,2.27.99,4.08,2.74,5.45,5.24,1.03,1.9,1.7,3.95,2.01,6.16h4.49c.09-4.02-.44-7.68-1.58-10.96Z"/>
    <path class="st2" d="M669.19,360.09v-8.97c-.37.58-.74,1.14-1.07,1.66-3.97,6.19-7.85,12.34-11.64,18.46.88,1.46,1.91,2.81,3.12,4.02,0,0,0,0,.01.01,1.12-1.76,2.23-3.5,3.31-5.22,2.28-3.62,4.37-6.94,6.26-9.96Z"/>
    <path class="st2" d="M715.28,346.62c-.98,3.86-2.08,7.72-3.29,11.59-.37.76-.3,1.26.2,1.48.33.15.76.1,1.29-.13.6-.2,1.18-.64,1.71-1.34.2-.26.49-.77.86-1.54,1.19-3.41,2.28-7.19,3.26-11.34.98-4.14,1.53-8.27,1.64-12.39,0-.08,0-.16,0-.23h-4.49c.1.71.16,1.44.19,2.18.06,3.96-.4,7.87-1.38,11.73Z"/>
    <path class="st2" d="M484.58,198.96c1.44,1.52,3.74,2.5,6.89,2.94,2.56.36,5.44.37,8.65.04,3.21-.33,6.5-.86,9.89-1.59,3.38-.74,6.56-1.54,9.53-2.42,2.97-.88,5.49-1.66,7.55-2.35-.86.8-1.67,1.62-2.44,2.46-.77.84-1.32,1.67-1.67,2.48-.93,2.23-.37,3.93,1.68,5.1,2.06,1.18,4.56,1.97,7.51,2.38,1.87.26,3.82.4,5.84.43,2.02.02,3.83,0,5.42-.06,2.78-.14,5.59-.4,8.44-.76.21.2.51.38.9.56l.5.23c.9,0,2.09-.08,3.59-.27.77-.12,1.61-.22,2.52-.31.91-.08,1.67-.16,2.28-.21,2.51-.19,5.24-.36,8.19-.52,2.94-.16,6.11-.16,9.5-.02,5.11.27,8.55.8,10.31,1.62,1.76.81,2.32,2.25,1.68,4.31-.3,1.01-.81,2.1-1.53,3.28-.72,1.18-1.4,2.5-2.04,3.96-1.99,4.6-1.52,8.72,1.4,12.36,2.92,3.63,7.2,6.74,12.82,9.33,3.27,1.51,6.82,2.84,10.64,3.99,3.82,1.15,7.69,2.13,11.61,2.92,8.18,1.75,15.98,2.75,23.41,3.01,7.43.26,14.21-.05,20.35-.93,6.14-.88,11.31-2.16,15.52-3.86,4.21-1.7,7.16-3.67,8.85-5.92,1.76-2.35,1.76-4.64-.01-6.87-1.77-2.23-4.25-4.08-7.44-5.55-2.69-1.24-5.62-2.15-8.79-2.74-3.18-.59-6.07-.64-8.69-.16-.77.12-1.32.4-1.66.85l-.17.22c-.13.48.01.81.43,1.01.34.15.75.21,1.23.16,1.5-.05,3.35.05,5.55.28,2.19.24,4.46.64,6.8,1.21,2.34.57,4.39,1.26,6.15,2.08,1.76.81,3.02,1.73,3.78,2.75.76,1.02.65,2.18-.33,3.48-1.28,1.7-3.55,3.23-6.83,4.58-3.28,1.35-7.22,2.47-11.82,3.34-4.61.87-9.55,1.47-14.82,1.81-5.28.33-10.6.39-15.97.17-5.37-.22-10.45-.76-15.23-1.61-8.33-1.55-14.84-3.4-19.55-5.57-6.13-2.82-9.58-6.13-10.35-9.91-.78-3.79.1-7.96,2.62-12.52,1.13-2.11,1.84-4.08,2.15-5.92.31-1.84-.92-3.4-3.69-4.68-1.6-.73-3.59-1.31-5.98-1.74-3.47-.65-7.39-1.06-11.78-1.24-3.41-.13-6.58-.15-9.54-.06.15-.04.31-.07.47-.11.97-.24,1.91-.47,2.81-.7,1.13-.16,2.28-.32,3.46-.47,3.31-.43,6.48-.73,9.5-.92,3.02-.19,5.38-.13,7.07.18.78.16,1.26.28,1.43.35l1.01.47c.92.42,1.63.31,2.12-.34.3-.4.23-.84-.21-1.31-.35-.43-.97-1.07-1.86-1.92-.89-.85-1.5-1.35-1.84-1.5-1.34-.62-3.26-.89-5.74-.82-2.48.07-5.28.34-8.41.82-2.77.42-5.48.88-9.3,1.78-4.06.95-9.42,2.44-15.73,4.82-4.4.41-7.91.8-10.17,1.05-4.75.54-7.48.42-11.06-.08-2.76-.38-3.86-1.23-3.31-2.53.39-.92,1.43-2.04,3.13-3.35,1.7-1.31,3.72-2.78,6.07-4.41,1.3-.85,2.08-1.6,2.35-2.26.18-.43.11-.76-.21-.98-.8-.57-1.94-.96-3.42-1.17-.99-.14-1.77-.13-2.35.02-3.67,1.04-7.8,2.14-12.4,3.31-4.61,1.17-8.73,2.24-12.37,3.23-.95.27-2.53.62-4.74,1.06-2.21.44-4.53.79-6.93,1.06-2.4.27-4.44.29-6.11.05-.89-.12-1.59-.36-2.12-.73-.53-.36-.62-.95-.28-1.76.05-.11.1-.24.17-.41.07-.16.18-.32.35-.47.75-1.04,2.39-2.15,4.91-3.32,2.52-1.17,5.54-2.29,9.06-3.35,3.52-1.06,7.16-1.97,10.91-2.74s7.33-1.28,10.72-1.52c3.38-.25,6.17-.13,8.37.35,1.65.29,2.48.79,2.49,1.51,0,.72-.06,1.27-.22,1.65-.34.81-.02,1.29.96,1.43.2.03.51.01.95-.04,1.04-.26,1.72-.74,2.01-1.44l.1-.24c.27-1.63-.1-2.99-1.1-4.07-1-1.09-3.08-1.85-6.23-2.29-2.76-.38-6.62-.49-11.58-.32-3.6.13-7.41.6-11.45,1.42-4.04.82-7.92,1.87-11.64,3.16-3.72,1.29-6.86,2.69-9.42,4.2-2.56,1.51-4.16,3.03-4.8,4.54-.57,1.36-.34,2.54.7,3.54Z"/>
  </g>
  <g id="DESIGN__x26__WORKSHOP">
    <g>
      <path class="st1" d="M36.61,374.57c1.96-1.91,3.49-4.14,4.58-6.68,1.1-2.54,1.65-5.26,1.65-8.16v-6.93c0-2.89-.55-5.57-1.65-8.02-1.1-2.45-2.62-4.57-4.58-6.37-1.96-1.8-4.22-3.2-6.79-4.2-2.57-1-5.3-1.5-8.19-1.5H0v48.02h21.63c2.89,0,5.62-.55,8.19-1.64,2.57-1.1,4.83-2.6,6.79-4.52ZM27.09,362.6c0,1.31-.3,2.49-.91,3.54-.61,1.05-1.42,1.89-2.45,2.52-1.03.63-2.19.95-3.5.95h-5.46v-25.97h5.46c1.31,0,2.47.28,3.5.84,1.03.56,1.84,1.33,2.45,2.31.61.98.91,2.12.91,3.43v12.39Z"/>
      <path class="st1" d="M83.65,369.53h-20.23v-7.91h19.46v-10.71h-19.46v-7h20.23l1.4-11.2h-23.83c-.31.59-.59,1.13-.85,1.6-.52.95-.95,1.56-1.31,1.83-1.53,1.14-2.55,1.4-3.07.78-.33-.39-.44-.99-.33-1.83.09-.7.24-1.51.45-2.39h-7.09v48.02h36.05l-1.4-11.2Z"/>
      <path class="st1" d="M679.58,343.72c.75.34,1.42.8,2,1.38.65.65,1.16,1.4,1.51,2.24.35.84.52,1.75.52,2.73v13.44c0,.98-.17,1.89-.52,2.73-.35.84-.85,1.58-1.51,2.21s-1.41,1.13-2.27,1.5c-.86.37-1.83.56-2.91.56s-1.98-.17-2.87-.53c-.89-.35-1.66-.85-2.31-1.5-.65-.65-1.16-1.4-1.5-2.24-.35-.84-.53-1.75-.53-2.73v-3.41c-1.89,3.02-3.98,6.34-6.26,9.96-1.09,1.72-2.19,3.47-3.31,5.22,1.91,1.91,4.13,3.41,6.67,4.5,2.54,1.1,5.26,1.65,8.16,1.65h3.92c2.89,0,5.61-.55,8.16-1.65,2.54-1.1,4.77-2.6,6.68-4.51s3.42-4.14,4.52-6.68c1.1-2.54,1.64-5.26,1.64-8.16v-7.28c0-2.89-.55-5.61-1.64-8.16-1.1-2.54-2.6-4.77-4.52-6.68-1.82-1.82-3.93-3.25-6.31-4.33-.64.77-1.28,1.56-1.92,2.37-1.94,2.49-3.73,4.94-5.39,7.37Z"/>
      <path class="st1" d="M669.19,351.13v-1.06c0-.98.17-1.89.53-2.73.35-.84.85-1.58,1.5-2.21.65-.63,1.42-1.13,2.31-1.5.2-.09.41-.16.63-.23.12-.2.25-.38.37-.58,2.22-3.48,4.65-6.94,7.27-10.38-1.12-.18-2.26-.3-3.44-.3h-3.92c-2.89,0-5.61.55-8.16,1.65-2.54,1.1-4.77,2.6-6.68,4.51s-3.42,4.14-4.51,6.68c-1.1,2.54-1.65,5.26-1.65,8.16v7.28c0,2.89.55,5.61,1.65,8.16.4.94.88,1.81,1.39,2.66,3.79-6.12,7.66-12.27,11.64-18.46.34-.52.7-1.08,1.07-1.66Z"/>
      <path class="st1" d="M743.81,339.71c-1.31-2.15-3.07-3.85-5.29-5.11-2.22-1.26-4.68-1.89-7.38-1.89h-10.19c0,.08,0,.15,0,.23-.11,4.12-.66,8.25-1.64,12.39-.98,4.15-2.07,7.93-3.26,11.34-.37.77-.66,1.28-.86,1.54-.54.69-1.11,1.14-1.71,1.34-.52.24-.95.28-1.29.13-.5-.22-.57-.71-.2-1.48,1.21-3.87,2.31-7.73,3.29-11.59.98-3.85,1.43-7.76,1.38-11.73-.02-.74-.09-1.47-.19-2.18h-10.94v48.02h14.7v-17.08h10.85c2.71,0,5.17-.7,7.38-2.1,2.22-1.4,3.99-3.24,5.32-5.53,1.33-2.29,2-4.78,2-7.49v-1.54c0-2.71-.65-5.13-1.96-7.28ZM730.34,350.77c-.35.7-.83,1.24-1.43,1.61-.61.37-1.35.56-2.24.56h-6.44v-9.24h6.44c1.45,0,2.51.47,3.19,1.4.68.93,1.01,1.98,1.01,3.15,0,.98-.17,1.82-.53,2.52Z"/>
      <path class="st1" d="M681.8,332.45c-2.61,3.44-5.04,6.9-7.27,10.38-.13.2-.25.39-.37.58.71-.22,1.45-.33,2.24-.33,1.07,0,2.04.17,2.91.53.09.04.18.09.28.13,1.66-2.43,3.45-4.88,5.39-7.37.63-.81,1.27-1.6,1.92-2.37-.13-.06-.24-.13-.37-.18-1.51-.65-3.09-1.08-4.72-1.35Z"/>
    </g>
    <path class="st1" d="M104.46,382.14c-3.6,0-6.93-.56-10.01-1.67-3.08-1.11-5.55-2.82-7.42-5.11-1.87-2.3-2.8-5.24-2.8-8.84v-.82c0-.26.02-.56.07-.89h13.77c-.05.19-.07.33-.07.43v.43c0,.85.2,1.66.6,2.41.4.76,1.08,1.38,2.02,1.88.95.5,2.27.75,3.98.75,1.94,0,3.38-.14,4.33-.43.95-.28,1.59-.66,1.92-1.14.33-.47.5-.97.5-1.49,0-.99-.47-1.76-1.42-2.31-.95-.54-2.19-.99-3.73-1.35-1.54-.36-3.23-.72-5.08-1.1-1.85-.38-3.7-.89-5.57-1.53-1.87-.64-3.57-1.5-5.11-2.59-1.54-1.09-2.78-2.52-3.73-4.29-.95-1.78-1.42-4.01-1.42-6.71,0-3.45.95-6.34,2.84-8.66,1.89-2.32,4.41-4.08,7.56-5.29,3.15-1.21,6.61-1.81,10.4-1.81s6.95.53,9.9,1.6c2.96,1.06,5.33,2.69,7.1,4.86,1.77,2.18,2.66,4.99,2.66,8.45v.85h-13.63v-.28c0-.85-.19-1.63-.57-2.34-.38-.71-1.01-1.28-1.88-1.7-.88-.43-2.02-.64-3.44-.64-1.33,0-2.43.13-3.3.39-.88.26-1.53.6-1.95,1.03-.43.43-.64.95-.64,1.56,0,1.04.47,1.86,1.42,2.45.95.59,2.2,1.08,3.76,1.46,1.56.38,3.29.76,5.18,1.14,1.89.38,3.77.86,5.64,1.46,1.87.59,3.59,1.41,5.15,2.45,1.56,1.04,2.82,2.4,3.76,4.08.95,1.68,1.42,3.8,1.42,6.35,0,4.02-.96,7.28-2.88,9.76-1.92,2.49-4.54,4.31-7.88,5.47-3.34,1.16-7.16,1.74-11.47,1.74Z"/>
    <path class="st1" d="M127.75,381.43v-10.51h5.82v-27.69h-5.82v-10.51h26.55v10.51h-5.75v27.69h5.75v10.51h-26.55Z"/>
    <path class="st1" d="M175.89,382.14c-2.94,0-5.63-.56-8.09-1.67-2.46-1.11-4.6-2.64-6.43-4.58-1.82-1.94-3.24-4.2-4.26-6.78-1.02-2.58-1.53-5.34-1.53-8.27v-7.53c0-2.93.54-5.69,1.63-8.27,1.09-2.58,2.65-4.84,4.69-6.78,2.03-1.94,4.44-3.47,7.21-4.58,2.77-1.11,5.81-1.67,9.12-1.67h1.99c2.79,0,5.38.45,7.77,1.35,2.39.9,4.48,2.17,6.28,3.8,1.8,1.63,3.19,3.56,4.19,5.79.99,2.23,1.49,4.66,1.49,7.31h-13.77c0-1.56-.28-2.88-.85-3.94-.57-1.06-1.41-1.87-2.52-2.41-1.11-.54-2.47-.82-4.08-.82-1.09,0-2.07.18-2.95.53-.88.35-1.63.86-2.27,1.53-.64.66-1.12,1.42-1.46,2.27-.33.85-.5,1.77-.5,2.77v13.77c0,.99.17,1.92.5,2.77.33.85.82,1.61,1.46,2.27s1.4,1.17,2.27,1.53c.88.35,1.86.53,2.95.53,1.23,0,2.31-.12,3.23-.36.92-.24,1.69-.61,2.31-1.14.61-.52,1.09-1.17,1.42-1.95.33-.78.5-1.74.5-2.88v-.92h-8.24v-9.66h22.01v17.04c0,2.18.04,3.98.11,5.4.07,1.42.2,3.03.39,4.83h-7.95l-1.99-5.18c-1.47,1.7-3.49,3.11-6.07,4.22-2.58,1.11-5.2,1.67-7.85,1.67h-.71Z"/>
    <path class="st1" d="M203.57,381.43v-48.71h12.5l12.57,18.1,2.2,4.19.35-.21v-22.08h13.7v48.71h-12.78l-12.99-18.74-1.49-2.98-.35.14v21.58h-13.7Z"/>
    <path class="st1" d="M267.47,382.14c-3.6,0-6.93-.56-10.01-1.67-3.08-1.11-5.55-2.82-7.42-5.11-1.87-2.3-2.8-5.24-2.8-8.84v-.82c0-.26.02-.56.07-.89h13.77c-.05.19-.07.33-.07.43v.43c0,.85.2,1.66.6,2.41.4.76,1.08,1.38,2.02,1.88.95.5,2.27.75,3.98.75,1.94,0,3.38-.14,4.33-.43.95-.28,1.59-.66,1.92-1.14.33-.47.5-.97.5-1.49,0-.99-.47-1.76-1.42-2.31-.95-.54-2.19-.99-3.73-1.35-1.54-.36-3.23-.72-5.08-1.1-1.85-.38-3.7-.89-5.57-1.53-1.87-.64-3.57-1.5-5.11-2.59-1.54-1.09-2.78-2.52-3.73-4.29-.95-1.78-1.42-4.01-1.42-6.71,0-3.45.95-6.34,2.84-8.66,1.89-2.32,4.41-4.08,7.56-5.29,3.15-1.21,6.61-1.81,10.4-1.81s6.95.53,9.9,1.6c2.96,1.06,5.33,2.69,7.1,4.86,1.77,2.18,2.66,4.99,2.66,8.45v.85h-13.63v-.28c0-.85-.19-1.63-.57-2.34-.38-.71-1.01-1.28-1.88-1.7-.88-.43-2.02-.64-3.44-.64-1.33,0-2.43.13-3.3.39-.88.26-1.53.6-1.95,1.03-.43.43-.64.95-.64,1.56,0,1.04.47,1.86,1.42,2.45.95.59,2.2,1.08,3.76,1.46,1.56.38,3.29.76,5.18,1.14,1.89.38,3.77.86,5.64,1.46,1.87.59,3.59,1.41,5.15,2.45,1.56,1.04,2.82,2.4,3.76,4.08.95,1.68,1.42,3.8,1.42,6.35,0,4.02-.96,7.28-2.88,9.76-1.92,2.49-4.54,4.31-7.88,5.47-3.34,1.16-7.16,1.74-11.47,1.74Z"/>
    <path class="st1" d="M319.73,381.43c-2.46,0-4.85-.21-7.17-.64-2.32-.43-4.39-1.16-6.21-2.2-1.82-1.04-3.27-2.47-4.33-4.3-1.06-1.82-1.6-4.11-1.6-6.85,0-2.93.76-5.3,2.27-7.1,1.51-1.8,3.57-3.15,6.18-4.05l.07-.57c-1.47-.57-2.72-1.35-3.76-2.34-1.04-.99-1.85-2.18-2.41-3.55-.57-1.37-.85-2.82-.85-4.33,0-2.27.5-4.26,1.49-5.96.99-1.7,2.34-3.11,4.05-4.22,1.7-1.11,3.59-1.94,5.64-2.49,2.06-.54,4.15-.82,6.28-.82,1.23,0,2.41.07,3.55.21v10.65c-.81-.24-1.49-.35-2.06-.35-.9,0-1.75.18-2.56.53-.81.35-1.44.86-1.92,1.53-.47.66-.71,1.49-.71,2.49,0,.52.14,1.14.43,1.85.28.71.77,1.33,1.46,1.85.69.52,1.57.78,2.66.78h8.59l3.83-8.45h9.73v8.45h5.68v10.08h-5.68v19.81h-22.65ZM320.58,371.63h7.74v-10.01h-8.09c-1.52,0-2.69.3-3.51.89-.83.59-1.4,1.27-1.7,2.02-.31.76-.46,1.42-.46,1.99,0,1.75.61,3.04,1.85,3.87,1.23.83,2.63,1.24,4.19,1.24Z"/>
    <path class="st1" d="M370.07,381.43l-13.28-48.71h15.41l6.89,27.05h.28l6.96-27.05h15.27l6.82,27.05h.28l6.89-27.05h13.99l-13.21,48.71h-16.9l-5.89-23.36h-.43l-5.89,23.36h-17.18Z"/>
    <path class="st1" d="M449.44,382.14c-2.94,0-5.69-.56-8.27-1.67-2.58-1.11-4.84-2.64-6.78-4.58-1.94-1.94-3.47-4.2-4.58-6.78-1.11-2.58-1.67-5.34-1.67-8.27v-7.38c0-2.93.56-5.69,1.67-8.27,1.11-2.58,2.64-4.84,4.58-6.78,1.94-1.94,4.2-3.47,6.78-4.58,2.58-1.11,5.34-1.67,8.27-1.67h3.98c2.93,0,5.69.56,8.27,1.67,2.58,1.11,4.84,2.64,6.78,4.58,1.94,1.94,3.47,4.2,4.58,6.78,1.11,2.58,1.67,5.34,1.67,8.27v7.38c0,2.93-.56,5.69-1.67,8.27-1.11,2.58-2.64,4.84-4.58,6.78s-4.2,3.47-6.78,4.58c-2.58,1.11-5.34,1.67-8.27,1.67h-3.98ZM451.43,371.06c1.09,0,2.07-.19,2.95-.57.88-.38,1.64-.89,2.31-1.53.66-.64,1.17-1.38,1.53-2.24.35-.85.53-1.78.53-2.77v-13.63c0-.99-.18-1.92-.53-2.77-.36-.85-.86-1.61-1.53-2.27-.66-.66-1.43-1.17-2.31-1.53-.88-.35-1.86-.53-2.95-.53s-2.01.19-2.91.57c-.9.38-1.68.89-2.34,1.53s-1.17,1.38-1.53,2.24c-.35.85-.53,1.78-.53,2.77v13.63c0,.99.18,1.92.53,2.77.36.85.86,1.61,1.53,2.27s1.44,1.17,2.34,1.53c.9.35,1.87.53,2.91.53Z"/>
    <path class="st1" d="M512.49,382.14c-2.18,0-4-.3-5.47-.89-1.47-.59-2.59-1.55-3.37-2.88-.78-1.32-1.17-3.12-1.17-5.4,0-.71-.05-1.56-.14-2.56-.1-.99-.34-1.95-.75-2.88s-1.03-1.7-1.88-2.34c-.85-.64-2.04-.96-3.55-.96h-4.12v17.18h-14.56v-48.71h27.26c2.32,0,4.51.46,6.57,1.38,2.06.92,3.74,2.27,5.04,4.05,1.3,1.77,1.95,3.99,1.95,6.64,0,2.23-.4,4.22-1.21,6-.81,1.78-1.87,3.27-3.19,4.47-1.33,1.21-2.77,2.12-4.33,2.73v.36c1.37.43,2.56,1.02,3.55,1.78s1.8,1.64,2.41,2.66c.61,1.02,1.08,2.07,1.38,3.16.31,1.09.46,2.15.46,3.2,0,.71.02,1.53.07,2.45.05.92.18,1.81.39,2.66.21.85.57,1.61,1.06,2.27.5.66,1.2,1.11,2.09,1.35v2.91c-1.28.52-2.67.88-4.19,1.07-1.51.19-2.96.28-4.33.28ZM492.04,353.38h7.24c.71,0,1.36-.22,1.95-.67.59-.45,1.05-1.05,1.38-1.81.33-.76.5-1.63.5-2.63,0-1.51-.36-2.63-1.07-3.34s-1.56-1.06-2.56-1.06h-7.46v9.51Z"/>
    <path class="st1" d="M522.43,381.43v-48.71h14.98v19.24l13.99-19.24h15.9l-14.84,19.52,15.27,29.18h-16.69l-8.45-17.61-5.18,6.11v11.5h-14.98Z"/>
    <path class="st1" d="M585.55,382.14c-3.6,0-6.93-.56-10.01-1.67-3.08-1.11-5.55-2.82-7.42-5.11-1.87-2.3-2.8-5.24-2.8-8.84v-.82c0-.26.02-.56.07-.89h13.77c-.05.19-.07.33-.07.43v.43c0,.85.2,1.66.6,2.41.4.76,1.08,1.38,2.02,1.88.95.5,2.27.75,3.98.75,1.94,0,3.38-.14,4.33-.43.95-.28,1.59-.66,1.92-1.14.33-.47.5-.97.5-1.49,0-.99-.47-1.76-1.42-2.31-.95-.54-2.19-.99-3.73-1.35-1.54-.36-3.23-.72-5.08-1.1-1.85-.38-3.7-.89-5.57-1.53-1.87-.64-3.58-1.5-5.11-2.59-1.54-1.09-2.78-2.52-3.73-4.29-.95-1.78-1.42-4.01-1.42-6.71,0-3.45.95-6.34,2.84-8.66,1.89-2.32,4.41-4.08,7.56-5.29,3.15-1.21,6.61-1.81,10.4-1.81s6.95.53,9.9,1.6,5.33,2.69,7.1,4.86c1.77,2.18,2.66,4.99,2.66,8.45v.85h-13.63v-.28c0-.85-.19-1.63-.57-2.34-.38-.71-1.01-1.28-1.88-1.7-.88-.43-2.02-.64-3.44-.64-1.33,0-2.43.13-3.3.39-.88.26-1.53.6-1.95,1.03-.43.43-.64.95-.64,1.56,0,1.04.47,1.86,1.42,2.45.95.59,2.2,1.08,3.76,1.46,1.56.38,3.29.76,5.18,1.14,1.89.38,3.77.86,5.64,1.46,1.87.59,3.58,1.41,5.15,2.45,1.56,1.04,2.82,2.4,3.76,4.08.95,1.68,1.42,3.8,1.42,6.35,0,4.02-.96,7.28-2.88,9.76-1.92,2.49-4.54,4.31-7.88,5.47-3.34,1.16-7.16,1.74-11.47,1.74Z"/>
    <path class="st1" d="M610.33,381.43v-48.71h14.98v17.96h11.43v-17.96h14.98v48.71h-14.91v-18.96h-11.43v18.96h-15.05Z"/>
  </g>
</svg>