<?xml version="1.0" encoding="UTF-8"?><svg id="Layer_3" xmlns="http://www.w3.org/2000/svg" viewBox="0 0 645.1 659.08"><path d="M322.55,619.62c-4.75-3.47-9.67-6.77-14.7-9.83-23.71-14.42-50.07-23.91-78.37-28.21l-.76-.11-54.79-3.67c-18.39-1.28-36.26-5.67-53.07-13.04-28.18-12.37-45.77-29.8-52.01-36.71-40.99-45.41-38.13-103.96-37.15-115.22,1.4-15.9,5.34-31.57,11.7-46.55l.15-.34.13-.35c5.81-15.43,12.3-30.55,19.29-44.93,2.29-4.71,4.33-8.72,6.12-12.25,5.42-10.66,9.33-18.37,12.63-30.42.6-2.23,5.78-22.17,4.36-47.28-2.44-43.08-25.74-80.74-41.69-101.75l86.6-87.87c21.68,9.75,52.12,19.15,88.9,19.15,2.59,0,5.23-.05,7.81-.14,40.01-1.45,72.21-13.71,94.34-25.57,23.62,13.26,58.26,26.73,101.51,26.73,1.53,0,3.06-.02,4.62-.05,35.2-.8,64.27-10.56,85.04-20.56l87.41,87.34c-8.3,11-15.52,22.68-21.56,34.87-9.2,18.59-26.34,53.2-20.3,93.7,2.15,14.45,7.14,28.79,8.62,32.85,3.59,9.86,6.92,16.29,10.76,23.73,1.46,2.82,2.97,5.74,4.67,9.18,5.82,11.76,11.19,24.2,15.95,36.96l.21.56.25.55c10.84,24.02,15.68,48.89,14.36,73.93-.16,3.05-4.55,75.25-57.92,113.18-16.26,11.56-34.79,18.33-44.39,21.34-14.29,4.48-29.15,7.06-44.19,7.67-20.63.04-41.13,2.4-60.95,7.02-13.74,3.2-45.93,10.7-79.7,33.41-1.32.89-2.63,1.79-3.93,2.71v-.04Z" fill="#d9822b"/><path d="M127.25,19.07c15.75,8.34,51.7,24.65,99.83,22.9,46.33-1.68,79.98-19.22,95.22-28.43,14.74,9.33,52.92,30.72,105.51,29.53,42.25-.96,73.65-16.03,88.85-24.66,36.14,36.11,72.27,72.22,108.41,108.32-14.73,16.75-23.99,32.6-29.7,44.16-8.75,17.67-23.82,48.1-18.62,82.97,2.01,13.49,7.03,27.4,7.72,29.31,4.45,12.19,8.33,18.31,14.65,31.09,4.42,8.93,10.46,22,16.68,38.66,8.55,18.93,17.76,47.56,15.94,82.34-.26,5-5.63,84.42-65.52,126.99-19.3,13.71-40.8,21.15-49.46,23.85-19.62,6.14-36.86,8.03-49.24,8.51-23.8.01-43.35,3.31-57.2,6.55-14.7,3.42-43.31,10.37-73.7,30.79-6.18,4.16-11.06,7.94-14.28,10.55-5.45-4.63-13.47-10.91-23.88-17.23-26.81-16.31-52.88-22.93-71.67-25.78-18.01-1.21-36.02-2.41-54.03-3.61-14.1-.99-35.43-4.13-59.14-14.53-33.88-14.87-53.79-36.31-58.18-41.16-47.41-52.5-42.63-118.82-41.75-128.96,1.98-22.57,8.17-40.51,13.07-52.05,7.47-19.85,14.66-35.59,19.95-46.46,9-18.52,13.76-25.61,17.57-39.53,0,0,5.04-18.49,3.75-41.48-2.84-50.11-38.64-93.12-46.03-101.74-.49-.87-.98-1.74-1.47-2.61C56.09,91.27,91.67,55.17,127.24,19.08h0Z" fill="none" stroke="#d9822b" stroke-miterlimit="10" stroke-width="20"/><path d="M328.23,384.68c-1.6.43-3.87,1.13-6.52,2.21-2.44.99-3.76,1.53-5.35,2.65-2,1.39-4.54,3.15-5.18,6.21-.39,1.88.09,3.48.43,4.61.79,2.58,2.25,4.28,3.09,5.13,2.44,2.5,6.05,6.84,8.69,13.15,0,0,2.42,5.79,3.08,12.29,1.49,14.58-6.32,28.1-10.88,35.78-7.82,13.17-16.68,20.74-28.03,30.58-7.32,6.34-17.86,14.68-31.65,23.09" fill="none" stroke="#2b2b2a" stroke-miterlimit="10"/><path d="M364.17,460.45c.14,7.54-1.2,14.15-2.64,21.32-1.83,9.05-3.44,16.73-8.57,25.49-3.52,6.04-7.41,10.37-10.21,13.12" fill="none" stroke="#2b2b2a" stroke-dasharray="3.33 1.94 0 0 0 0" stroke-miterlimit="10"/><path d="M344.93,417.95c1.32,1.16,2.67,2.44,3.99,3.8,4.51,4.67,7.57,9.31,9.61,12.92,1.85,3.99,4.14,9.95,5.29,17.47.33,2.16.53,4.23.63,6.23" fill="none" stroke="#2b2b2a" stroke-dasharray="2.22 1.39 0 0 0 0" stroke-miterlimit="10"/><path d="M326.06,386.09c-.91.43-2.22,1.18-3.57,2.38-1.08.97-2.93,2.62-3.42,4.62-.32,1.3-.28,3.65,3.58,8.1,4.15,4.77,7.46,5.94,13.27,9.83,1.23.83,4.53,3.07,8.23,6.25" fill="none" stroke="#2b2b2a" stroke-dasharray="1.11 .55 0 0 0 0" stroke-miterlimit="10"/><path d="M331.91,384.68c-2.07,1.08-3.6,2.21-4.64,3.07-1.13.94-1.84,1.7-2.22,2.82,0,0-.27.83-.24,1.71.08,2.52,3.12,5.17,7.54,7.91,2.53,1.57,3.96,2.22,6.89,3.73,1.42.74,4.19,2.3,9.67,5.38,10.47,5.89,15.72,8.84,15.79,8.89,0,0,8.62,5.19,17.43,12.35,7.05,5.73,17.62,14.33,26.31,28.51,5.7,9.29,15.36,25.07,12.48,44.67-1.22,8.32-4.32,14.71-6.64,18.68" fill="none" stroke="#2b2b2a" stroke-miterlimit="10"/><path d="M370.75,285.87c-1.05,2.38.35.49-1.54,2.31l4.75,6.92-3.42,1.74c6.35,11.6,6.21,6.35,9.64,11.81l-4.05.98,1.05,2.8-3.64.91c1.47,2.66,3.07,5.17,4.96,6.92.55.49,2.45,2.38,2.52,2.45,1.82,1.33,2.16.77,3.91,1.95-.28.55.49,2.31-5.31,3,4.26,1.68-2.73,1.19,7.54,4.26-1.33,3.35-3.14,3-6.92,3.28l1.26,2.52-6.01.49c2.52,4.54,7.89,7.75,13.48,9.36-.28,1.88-.49,1.88-1.47,3.14,2.94,1.6,1.82.14,3.56,2.45-3.14,3.07-6.28,1.26-10.55,1.19l2.86,3.71c-2.66,1.33-2.24.69-4.96.55,3.21,3.07.49,1.88,7.27,6.57-1.26,2.31.28.28-2.16,2.02,2.93,4.47,5.87,4.12,9.08,6.85l-4.05,1.6c1.05,1.61,8.25,5.11,9.51,5.8-3.56,2.59-9.58,1.4-13.55-.07.98,3.56,1.82.49,1.75,4.19-6.15.69-6.15-.49-10.41-1.95,1.05,4.4,1.6-.28,1.68,4.82-7.82,1.05-7.06-1.4-13.28-2.16l2.38,12.29h-11.53l2.59-13.48c-5.24,1.47-8.87,2.24-14.33,1.54-.42-2.31-.69-1.47,1.26-3.98-4.26.28-6.01,1.81-10.62.49,2.16-2.59,1.74-.55,2.24-3.64-1.88.69-2.31,1.54-4.96,1.81-3.56.35-4.06.42-5.24-1.95-.28-1.26,1.67-.42,7.2-5.59,2.24-2.09,5.59-6.57,7.54-8.04-2.73-2.02-1.4-.28-3.91-3.14,1.54-1.05,3.91-2.8,5.31-4.33-2.24-1.68-6.64-2.59-8.32-4.96,1.6-1.47,8.25-2.31,11.67-11.05-4.19-.62-5.73-.49-8.87-3.21,2.24-1.47,3-2.02,4.75-4.33-3.49-1.12-6.36-1.88-6.64-5.87,5.31-2.02,6.28-.49,9.43-6.35l-2.31-1.95c6.71-6.42,3.78-6.71,9.57-12.65-2.02-1.19-1.33-.69-4.26-1.05-.78-4.19.69-1.33-3.28-3.28,2.86-4.82,6.85-5.38,9.43-10.69-.49-1.47-.28.07-1.26-2.8,7.61-6.99-.78-3.42,10.55-16.28,2.87,4.54,4.4,7.82,8.11,12.09h0Z" fill="#12221d" fill-rule="evenodd"/><path d="M542.63,281.36c-1.73,3.94.46.81-2.66,3.82l7.98,11.45-5.67,2.89c10.52,19.2,10.29,10.53,15.96,19.55l-6.83,1.62,1.74,4.63-6.02,1.5c2.43,4.4,5.1,8.56,8.33,11.45.82.81,4.05,3.94,4.17,4.05,2.89,2.2,3.46,1.27,6.36,3.24-.46.93.93,3.82-8.79,4.97,7.17,2.78-4.4,1.96,12.5,7.06-2.2,5.55-5.21,4.97-11.34,5.44l1.97,4.17-9.95.81c4.28,7.52,13.07,12.84,22.32,15.51-.46,3.12-.82,3.12-2.43,5.21,4.85,2.66,3.12.23,6.02,4.05-5.33,5.09-10.41,2.08-17.47,1.96l4.63,6.13c-4.28,2.2-3.71,1.16-8.22.93,5.44,5.09.93,3.12,12.03,10.87-2.08,3.82.46.46-3.47,3.35,4.86,7.4,9.61,6.83,15.04,11.34l-6.83,2.66c1.85,2.66,13.64,8.45,15.73,9.61-5.9,4.28-15.85,2.32-22.32-.11,1.62,5.9,3.01.82,2.89,6.95-10.18,1.16-10.18-.81-17.24-3.24,1.62,7.29,2.66-.46,2.78,7.98-13.07,1.74-11.69-2.32-21.98-3.58l3.94,20.36h-19.09l4.28-22.32c-8.79,2.43-14.69,3.71-23.83,2.55-.57-3.82-1.04-2.43,2.08-6.6-7.06.46-9.95,3.01-17.58.81,3.7-4.28,2.89-.93,3.7-6.01-3.12,1.16-3.82,2.55-8.21,3-5.9.58-6.72.69-8.68-3.23-.34-2.08,2.78-.69,11.91-9.25,3.82-3.47,9.37-10.87,12.61-13.3-4.51-3.35-2.43-.46-6.6-5.21,2.54-1.73,6.47-4.63,8.79-7.17-3.71-2.78-10.87-4.28-13.76-8.22,2.78-2.43,13.64-3.82,19.32-18.29-6.95-1.04-9.37-.81-14.69-5.32,3.82-2.43,5.1-3.35,7.86-7.17-5.78-1.85-10.41-3.12-10.99-9.72,8.91-3.35,10.41-.81,15.62-10.52l-3.82-3.24c11.22-10.64,6.24-11.11,15.85-20.93-3.35-1.96-2.2-1.16-7.06-1.73-1.16-6.94,1.16-2.2-5.44-5.44,4.85-7.98,11.46-8.91,15.74-17.7-.81-2.43-.57.11-2.08-4.63,12.5-11.57-1.39-5.67,17.47-26.96,4.74,7.52,7.29,12.96,13.41,20.02h0v-.03Z" fill="#12221d" fill-rule="evenodd"/><path d="M177.04,281.79c-1.88,4.1.5.85-2.89,3.98l8.68,11.92-6.16,3.01c11.45,19.99,11.2,10.96,17.36,20.34l-7.42,1.68,1.89,4.81-6.55,1.56c2.65,4.57,5.54,8.91,9.06,11.92.89.85,4.4,4.1,4.53,4.21,3.14,2.29,3.77,1.32,6.92,3.37-.5.97,1.01,3.98-9.57,5.18,7.8,2.89-4.78,2.04,13.59,7.34-2.39,5.78-5.67,5.18-12.33,5.66l2.14,4.33-10.81.85c4.65,7.82,14.22,13.36,24.28,16.13-.5,3.24-.89,3.24-2.65,5.42,5.29,2.77,3.39.24,6.55,4.21-5.79,5.3-11.33,2.16-19,2.04l5.03,6.38c-4.65,2.29-4.03,1.2-8.94.97,5.92,5.3,1.01,3.24,13.09,11.32-2.27,3.98.5.48-3.78,3.49,5.29,7.7,10.44,7.11,16.36,11.8l-7.42,2.77c2.01,2.77,14.84,8.79,17.11,9.99-6.42,4.45-17.24,2.41-24.28-.12,1.76,6.14,3.27.85,3.14,7.22-11.07,1.2-11.07-.85-18.74-3.37,1.76,7.58,2.89-.48,3.02,8.31-14.22,1.81-12.71-2.41-23.9-3.74l4.28,21.19h-20.76l4.65-23.23c-9.57,2.53-15.98,3.86-25.92,2.65-.62-3.97-1.13-2.53,2.27-6.86-7.67.48-10.82,3.13-19.12.85,4.02-4.45,3.14-.97,4.02-6.26-3.39,1.2-4.15,2.65-8.93,3.13-6.42.6-7.3.72-9.45-3.36-.37-2.16,3.02-.72,12.96-9.63,4.15-3.61,10.19-11.32,13.71-13.85-4.9-3.49-2.65-.48-7.17-5.42,2.77-1.8,7.04-4.81,9.57-7.46-4.03-2.89-11.83-4.45-14.97-8.55,3.02-2.53,14.84-3.98,21.01-19.02-7.55-1.09-10.19-.85-15.98-5.54,4.15-2.53,5.54-3.49,8.56-7.46-6.29-1.93-11.32-3.25-11.95-10.12,9.69-3.48,11.32-.85,16.99-10.96l-4.15-3.37c12.2-11.08,6.8-11.56,17.23-21.79-3.65-2.04-2.4-1.21-7.67-1.8-1.26-7.22,1.26-2.29-5.92-5.66,5.29-8.31,12.46-9.27,17.11-18.42-.88-2.53-.62.12-2.27-4.81,13.59-12.03-1.51-5.9,19-28.05,5.16,7.82,7.92,13.48,14.59,20.82h0Z" fill="#12221d" fill-rule="evenodd"/><path d="M291.91,303.84c-1.22,3.15.4.61-1.89,3.08l5.81,9.47-4.12,2.39c7.56,15.7,7.43,8.62,11.49,16.08l-4.86,1.31,1.29,3.77-4.39,1.16c1.76,3.7,3.72,7.08,5.94,9.47.67.69,2.97,3.23,3.04,3.31,2.09,1.84,2.57,1.08,4.66,2.69-.34.77.61,3.23-6.35,4.08,5.14,2.31-3.24,1.61,8.98,5.85-1.55,4.54-3.72,4.08-8.18,4.46l1.42,3.38-7.16.69c3.04,6.15,9.46,10.54,16.15,12.77-.4,2.54-.6,2.54-1.82,4.23,3.51,2.24,2.23.15,4.32,3.31-3.79,4.23-7.5,1.77-12.64,1.69l3.44,5c-3.18,1.84-2.7.93-5.95.77,3.86,4.16.61,2.54,8.65,8.92-1.49,3.15.4.38-2.5,2.77,3.44,6.08,6.96,5.62,10.81,9.3l-4.86,2.24c1.29,2.15,9.87,6.85,11.35,7.92-4.26,3.46-11.42,1.84-16.15-.08,1.15,4.77,2.16.53,2.09,5.69-7.36.93-7.36-.69-12.44-2.77,1.15,6.08,1.89-.31,1.96,6.54-9.32,1.54-8.38-1.77-15.88-2.92l2.91,16.78h-13.78l3.04-18.31c-6.28,1.92-10.54,3-17.16,2.07-.4-3.15-.75-2.07,1.49-5.39-5.06.38-7.16,2.39-12.64.61,2.57-3.53,2.02-.77,2.64-5-2.23,1-2.77,2.07-5.94,2.54-4.19.46-4.79.53-6.21-2.62-.34-1.77,1.95-.61,8.58-7.62,2.7-2.92,6.69-9,9.05-10.93-3.24-2.85-1.69-.46-4.73-4.31,1.82-1.46,4.66-3.85,6.42-5.92-2.77-2.24-7.9-3.61-10-6.77,1.96-2,9.87-3.15,13.93-15-4.93-.85-6.76-.69-10.54-4.38,2.7-2,3.58-2.77,5.61-5.92-4.12-1.54-7.5-2.54-7.9-8.01,6.35-2.77,7.5-.61,11.28-8.62l-2.77-2.69c8.11-8.69,4.53-9.08,11.42-17.24-2.37-1.54-1.55-.93-5.06-1.39-.88-5.69.88-1.84-3.92-4.46,3.44-6.54,8.25-7.31,11.28-14.62-.54-2-.34.15-1.42-3.7,8.98-9.54-1.02-4.69,12.57-22.23,3.44,6.15,5.27,10.61,9.67,16.54h-.02Z" fill="#12221d" fill-rule="evenodd"/><path d="M472.65,294.56c1.62,3.69-.43.76,2.5,3.58l-7.48,10.73,5.32,2.71c-9.87,18-9.66,9.87-14.96,18.34l6.4,1.52-1.63,4.34,5.64,1.41c-2.28,4.12-4.77,8.03-7.81,10.73-.77.76-3.8,3.69-3.91,3.8-2.71,2.06-3.25,1.19-5.96,3.04.43.87-.87,3.58,8.25,4.66-6.73,2.61,4.12,1.84-11.71,6.62,2.05,5.21,4.88,4.66,10.63,5.1l-1.84,3.91,9.32.76c-4.02,7.05-12.25,12.04-20.93,14.54.43,2.93.77,2.93,2.28,4.88-4.55,2.5-2.93.22-5.64,3.8,4.99,4.77,9.77,1.95,16.38,1.84l-4.34,5.75c4.02,2.06,3.47,1.09,7.7.87-5.11,4.77-.87,2.93-11.28,10.19,1.95,3.58-.43.43,3.25,3.14-4.56,6.95-9,6.4-14.11,10.63l6.39,2.5c-1.73,2.5-12.8,7.91-14.75,9,5.54,4.02,14.86,2.17,20.93-.11-1.52,5.54-2.82.77-2.71,6.5,9.55,1.09,9.55-.76,16.16-3.04-1.52,6.84-2.5-.43-2.6,7.48,12.25,1.63,10.96-2.16,20.61-3.36l-3.69,19.09h17.9l-4.02-20.93c8.25,2.28,13.77,3.47,22.34,2.39.54-3.57.98-2.28-1.95-6.18,6.62.43,9.33,2.82,16.48.76-3.46-4.02-2.71-.87-3.46-5.64,2.93,1.09,3.58,2.39,7.7,2.82,5.54.54,6.29.65,8.14-3.03.32-1.95-2.61-.65-11.18-8.68-3.58-3.25-8.79-10.2-11.82-12.48,4.23-3.14,2.28-.43,6.18-4.88-2.39-1.62-6.07-4.34-8.25-6.73,3.47-2.61,10.2-4.02,12.91-7.7-2.6-2.28-12.8-3.58-18.11-17.14,6.5-.98,8.78-.76,13.77-4.98-3.58-2.28-4.77-3.14-7.38-6.73,5.42-1.74,9.76-2.93,10.3-9.11-8.35-3.14-9.76-.76-14.64-9.87l3.57-3.04c-10.52-9.98-5.86-10.41-14.86-19.64,3.14-1.84,2.06-1.09,6.62-1.63,1.09-6.5-1.09-2.06,5.11-5.1-4.55-7.48-10.74-8.35-14.75-16.59.76-2.28.54.11,1.95-4.34-11.72-10.84,1.3-5.32-16.38-25.27-4.45,7.05-6.83,12.14-12.58,18.77h0l-.02.02Z" fill="#1c352d" fill-rule="evenodd"/><path d="M206.04,288.42c1.69,4.13-.45.85,2.6,4.01l-7.81,12.03,5.55,3.04c-10.3,20.18-10.07,11.07-15.62,20.54l6.68,1.7-1.7,4.86,5.89,1.58c-2.38,4.62-4.98,8.99-8.15,12.03-.8.85-3.96,4.13-4.08,4.26-2.83,2.31-3.39,1.34-6.22,3.4.45.98-.91,4.01,8.6,5.23-7.02,2.92,4.3,2.06-12.22,7.42,2.14,5.83,5.1,5.23,11.1,5.71l-1.92,4.38,9.73.85c-4.19,7.9-12.79,13.49-21.84,16.29.45,3.28.8,3.28,2.38,5.47-4.75,2.79-3.06.24-5.89,4.26,5.21,5.35,10.19,2.19,17.1,2.06l-4.53,6.44c4.19,2.31,3.62,1.22,8.04.98-5.33,5.35-.91,3.28-11.77,11.42,2.03,4.01-.45.48,3.39,3.52-4.75,7.78-9.39,7.17-14.71,11.91l6.68,2.79c-1.81,2.8-13.35,8.87-15.39,10.09,5.77,4.5,15.51,2.44,21.84-.12-1.58,6.2-2.94.86-2.83,7.29,9.96,1.22,9.96-.85,16.86-3.4-1.58,7.66-2.6-.48-2.72,8.39,12.79,1.82,11.43-2.43,21.5-3.77l-3.85,21.4h18.68l-4.19-23.46c8.6,2.55,14.37,3.89,23.31,2.67.56-4.01,1.02-2.55-2.04-6.93,6.91.48,9.74,3.16,17.2.85-3.61-4.5-2.83-.98-3.61-6.32,3.06,1.22,3.74,2.67,8.04,3.16,5.77.61,6.57.74,8.49-3.4.33-2.2-2.72-.72-11.66-9.73-3.74-3.65-9.17-11.43-12.33-13.98,4.41-3.52,2.38-.49,6.44-5.48-2.49-1.82-6.33-4.86-8.6-7.53,3.62-2.92,10.64-4.5,13.46-8.63-2.72-2.56-13.35-4.01-18.9-19.21,6.8-1.1,9.16-.85,14.38-5.59-3.74-2.55-4.98-3.52-7.69-7.53,5.66-1.94,10.18-3.28,10.75-10.21-8.71-3.52-10.18-.85-15.28-11.06l3.74-3.4c-10.98-11.19-6.11-11.67-15.5-22,3.28-2.06,2.15-1.22,6.9-1.82,1.14-7.29-1.13-2.31,5.33-5.72-4.75-8.39-11.21-9.36-15.4-18.6.8-2.55.56.12,2.03-4.86-12.22-12.15,1.36-5.96-17.1-28.33-4.64,7.9-7.13,13.61-13.12,21.03h.02Z" fill="#1c352d" fill-rule="evenodd"/><path d="M420.6,261.23c-1.57,3.58.52.7-2.45,3.49l7.43,10.75-5.25,2.71c9.79,17.83,9.62,9.79,14.86,18.28l-6.29,1.49,1.66,4.28-5.68,1.31c2.28,4.2,4.72,8.05,7.69,10.75.88.79,3.85,3.68,3.94,3.76,2.71,2.09,3.32,1.23,6.03,3.06-.52.88.79,3.68-8.22,4.63,6.56,2.63-4.2,1.83,11.63,6.65-2,5.16-4.81,4.63-10.66,5.07l1.92,3.85-9.26.79c3.94,7,12.15,11.98,20.89,14.51-.52,2.89-.79,2.89-2.37,4.8,4.54,2.54,2.89.17,5.6,3.77-4.89,4.8-9.71,2-16.35,1.92l4.37,5.68c-4.02,2.09-3.41,1.05-7.6.88,4.98,4.72.79,2.89,11.19,10.14-1.92,3.58.44.43-3.23,3.15,4.46,6.91,9,6.38,13.99,10.57l-6.29,2.54c1.66,2.45,12.77,7.78,14.69,9-5.51,3.94-14.77,2.09-20.89-.09,1.49,5.42,2.8.61,2.71,6.46-9.53,1.05-9.53-.79-16.09-3.15,1.49,6.91,2.46-.35,2.54,7.43-12.15,1.75-10.84-2-20.54-3.32l3.77,19.06h-17.92l4.02-20.8c-8.14,2.19-13.72,3.41-22.2,2.36-.61-3.58-.96-2.36,1.92-6.11-6.56.43-9.26,2.71-16.43.69,3.41-4.02,2.71-.88,3.49-5.68-2.89,1.14-3.58,2.37-7.69,2.89-5.51.52-6.29.61-8.05-2.97-.43-2.01,2.54-.69,11.11-8.66,3.49-3.32,8.65-10.23,11.71-12.42-4.2-3.23-2.19-.52-6.12-4.89,2.37-1.66,6.03-4.37,8.22-6.74-3.5-2.54-10.23-4.11-12.85-7.69,2.54-2.28,12.76-3.58,18-17.05-6.38-.96-8.83-.79-13.63-4.98,3.49-2.28,4.63-3.15,7.26-6.74-5.34-1.75-9.8-2.89-10.23-9.09,8.22-3.15,9.71-.69,14.6-9.79l-3.58-3.06c10.49-9.88,5.86-10.31,14.77-19.58-3.06-1.75-2.01-1.05-6.56-1.57-1.14-6.46,1.14-2.09-5.06-5.07,4.46-7.43,10.57-8.31,14.6-16.61-.69-2.28-.43.17-1.92-4.2,11.72-10.84-1.22-5.34,16.35-25.26,4.46,7,6.82,12.06,12.51,18.8h0l-.03.02Z" fill="#1c352d" fill-rule="evenodd"/><path d="M107.15,339.58c1.91,3.85-.51.8,2.93,3.74l-8.81,11.22,6.25,2.83c-11.62,18.8-11.37,10.31-17.62,19.14l7.53,1.59-1.92,4.53,6.65,1.47c-2.69,4.3-5.62,8.38-9.19,11.22-.9.8-4.47,3.85-4.6,3.97-3.19,2.15-3.83,1.25-7.02,3.17.51.91-1.02,3.74,9.71,4.87-7.91,2.72,4.85,1.92-13.8,6.91,2.43,5.44,5.75,4.87,12.52,5.33l-2.17,4.08,10.99.8c-4.72,7.36-14.43,12.58-24.65,15.17.51,3.05.9,3.05,2.69,5.1-5.37,2.6-3.45.22-6.65,3.97,5.88,4.98,11.5,2.03,19.28,1.92l-5.12,6c4.72,2.15,4.09,1.13,9.07.91-6,4.98-1.02,3.05-13.28,10.64,2.3,3.74-.51.45,3.84,3.28-5.37,7.25-10.6,6.69-16.6,11.1l7.53,2.6c-2.04,2.61-15.06,8.27-17.37,9.4,6.51,4.19,17.5,2.27,24.65-.11-1.78,5.78-3.32.8-3.19,6.8,11.24,1.13,11.24-.8,19.02-3.17-1.78,7.14-2.93-.45-3.06,7.81,14.43,1.7,12.9-2.27,24.27-3.51l-4.34,19.94h21.08l-4.72-21.86c9.71,2.38,16.21,3.62,26.3,2.49.63-3.74,1.15-2.38-2.31-6.45,7.79.45,10.99,2.95,19.41.8-4.08-4.19-3.19-.91-4.08-5.89,3.45,1.13,4.22,2.49,9.06,2.94,6.51.57,7.41.68,9.59-3.17.38-2.04-3.06-.67-13.15-9.06-4.22-3.4-10.35-10.65-13.92-13.03,4.98-3.28,2.69-.45,7.28-5.1-2.81-1.7-7.15-4.53-9.71-7.02,4.09-2.72,12-4.19,15.19-8.05-3.06-2.38-15.06-3.74-21.33-17.9,7.66-1.02,10.34-.8,16.22-5.21-4.22-2.38-5.62-3.28-8.68-7.02,6.38-1.81,11.49-3.06,12.13-9.52-9.84-3.28-11.49-.8-17.24-10.3l4.22-3.17c-12.39-10.42-6.9-10.87-17.49-20.5,3.71-1.92,2.43-1.14,7.78-1.7,1.28-6.8-1.28-2.15,6-5.33-5.37-7.81-12.65-8.72-17.37-17.33.9-2.38.63.11,2.3-4.53-13.8-11.33,1.53-5.55-19.28-26.39-5.24,7.36-8.05,12.69-14.81,19.59h-.01Z" fill="#3b5f51" fill-rule="evenodd"/><path d="M545.81,378.94c-1.45,2.84.38.58-2.22,2.76l6.67,8.27-4.73,2.08c8.79,13.86,8.59,7.59,13.32,14.11l-5.7,1.17,1.45,3.34-5.02,1.09c2.03,3.17,4.25,6.17,6.95,8.27.67.58,3.38,2.84,3.48,2.92,2.42,1.58,2.89.92,5.31,2.34-.38.66.78,2.76-7.34,3.58,5.99,2-3.67,1.42,10.43,5.1-1.83,4.01-4.35,3.58-9.47,3.93l1.64,3-8.31.58c3.57,5.43,10.92,9.26,18.64,11.19-.38,2.26-.67,2.26-2.03,3.76,4.06,1.92,2.61.17,5.02,2.92-4.44,3.68-8.69,1.5-14.58,1.42l3.87,4.43c-3.57,1.58-3.09.84-6.86.66,4.54,3.68.78,2.26,10.04,7.84-1.73,2.76.39.33-2.9,2.43,4.06,5.35,8.02,4.92,12.56,8.19l-5.7,1.92c1.54,1.92,11.39,6.09,13.13,6.93-4.92,3.09-13.23,1.67-18.64-.08,1.35,4.26,2.51.58,2.42,5.01-8.5.84-8.5-.58-14.39-2.34,1.35,5.26,2.22-.33,2.32,5.76-10.92,1.26-9.76-1.67-18.35-2.59l3.28,14.69h-15.94l3.57-16.11c-7.34,1.75-12.26,2.67-19.89,1.83-.48-2.75-.87-1.75,1.74-4.75-5.89.33-8.31,2.17-14.68.58,3.09-3.09,2.42-.66,3.09-4.34-2.61.84-3.19,1.83-6.86,2.16-4.92.42-5.6.5-7.25-2.34-.28-1.5,2.32-.5,9.95-6.68,3.19-2.51,7.82-7.84,10.52-9.6-3.77-2.43-2.03-.33-5.5-3.76,2.12-1.25,5.41-3.34,7.34-5.18-3.09-2-9.08-3.09-11.49-5.93,2.32-1.75,11.39-2.76,16.12-13.19-5.8-.76-7.82-.58-12.26-3.84,3.19-1.75,4.25-2.43,6.57-5.18-4.82-1.34-8.69-2.26-9.17-7.02,7.43-2.42,8.69-.58,13.04-7.59l-3.18-2.34c9.36-7.68,5.22-8.02,13.23-15.11-2.8-1.42-1.83-.84-5.89-1.25-.97-5,.97-1.59-4.54-3.93,4.06-5.76,9.57-6.42,13.13-12.77-.67-1.75-.48.08-1.74-3.34,10.43-8.35-1.16-4.09,14.58-19.45,3.96,5.43,6.08,9.35,11.2,14.44h0l.02-.02Z" fill="#3b5f51" fill-rule="evenodd"/><path d="M455.24,307.89c-1.38,4.05.37.84-2.11,3.93l6.35,11.78-4.51,2.97c8.39,19.76,8.2,10.82,12.72,20.11l-5.44,1.66,1.38,4.76-4.79,1.55c1.93,4.52,4.06,8.81,6.64,11.78.64.84,3.22,4.05,3.32,4.17,2.31,2.26,2.76,1.31,5.06,3.33-.37.95.74,3.93-7,5.12,5.71,2.86-3.5,2.02,9.95,7.26-1.75,5.71-4.15,5.12-9.03,5.59l1.57,4.28-7.92.84c3.41,7.73,10.41,13.21,17.78,15.95-.37,3.21-.64,3.21-1.93,5.36,3.87,2.74,2.49.24,4.79,4.17-4.24,5.24-8.3,2.13-13.92,2.02l3.69,6.31c-3.41,2.26-2.95,1.19-6.55.95,4.33,5.24.74,3.21,9.59,11.19-1.66,3.93.37.47-2.77,3.45,3.88,7.61,7.65,7.02,11.98,11.66l-5.44,2.74c1.47,2.74,10.86,8.69,12.53,9.88-4.7,4.4-12.63,2.39-17.78-.12,1.29,6.07,2.4.84,2.31,7.14-8.11,1.19-8.11-.84-13.72-3.33,1.29,7.5,2.11-.47,2.21,8.22-10.41,1.78-9.3-2.38-17.51-3.69l3.13,20.94h-15.2l3.41-22.97c-7,2.5-11.7,3.81-18.98,2.62-.46-3.93-.83-2.5,1.66-6.78-5.62.47-7.92,3.09-14.01.84,2.95-4.4,2.31-.95,2.95-6.18-2.49,1.19-3.04,2.62-6.54,3.09-4.7.59-5.35.71-6.92-3.33-.27-2.14,2.22-.71,9.5-9.52,3.04-3.57,7.46-11.19,10.04-13.68-3.59-3.45-1.93-.48-5.25-5.36,2.02-1.78,5.16-4.76,7-7.37-2.95-2.86-8.66-4.4-10.97-8.45,2.21-2.5,10.86-3.93,15.39-18.81-5.53-1.07-7.46-.84-11.7-5.48,3.04-2.5,4.06-3.45,6.26-7.37-4.6-1.9-8.29-3.21-8.75-10,7.1-3.44,8.29-.84,12.45-10.82l-3.04-3.33c8.93-10.95,4.97-11.42,12.62-21.54-2.67-2.02-1.75-1.19-5.62-1.78-.93-7.14.92-2.27-4.33-5.6,3.87-8.21,9.12-9.16,12.54-18.21-.64-2.5-.46.12-1.66-4.76,9.96-11.9-1.11-5.83,13.92-27.73,3.78,7.73,5.8,13.33,10.68,20.59h0v-.03Z" fill="#3b5f51" fill-rule="evenodd"/><path d="M269.54,369.24c1.13,2.57-.3.52,1.73,2.49l-5.2,7.46,3.7,1.88c-6.86,12.51-6.71,6.86-10.4,12.74l4.45,1.06-1.13,3.01,3.92.98c-1.58,2.86-3.32,5.58-5.43,7.46-.53.52-2.64,2.57-2.72,2.64-1.88,1.43-2.26.83-4.14,2.11.3.6-.6,2.49,5.73,3.24-4.67,1.81,2.86,1.28-8.14,4.6,1.43,3.61,3.39,3.24,7.39,3.54l-1.28,2.71,6.48.52c-2.79,4.9-8.52,8.37-14.54,10.1.3,2.03.53,2.03,1.58,3.39-3.16,1.73-2.03.15-3.92,2.64,3.46,3.31,6.79,1.36,11.38,1.28l-3.02,4c2.79,1.43,2.42.76,5.36.6-3.54,3.31-.6,2.03-7.83,7.08,1.36,2.49-.3.3,2.27,2.19-3.17,4.82-6.25,4.45-9.8,7.39l4.44,1.73c-1.21,1.73-8.89,5.5-10.25,6.25,3.85,2.79,10.32,1.51,14.54-.07-1.06,3.85-1.96.53-1.88,4.52,6.64.76,6.64-.52,11.23-2.11-1.06,4.75-1.73-.3-1.8,5.2,8.52,1.13,7.61-1.51,14.32-2.34l-2.57,13.26h12.44l-2.79-14.54c5.73,1.58,9.57,2.42,15.53,1.66.37-2.49.67-1.58-1.36-4.29,4.6.3,6.48,1.96,11.46.52-2.41-2.79-1.88-.6-2.41-3.92,2.03.76,2.49,1.66,5.35,1.95,3.85.38,4.37.45,5.66-2.1.22-1.36-1.81-.45-7.76-6.03-2.49-2.27-6.1-7.09-8.22-8.67,2.94-2.19,1.58-.3,4.29-3.39-1.65-1.13-4.22-3.01-5.73-4.67,2.42-1.81,7.09-2.79,8.97-5.35-1.8-1.58-8.89-2.49-12.59-11.91,4.52-.67,6.1-.52,9.58-3.46-2.49-1.58-3.32-2.19-5.13-4.67,3.77-1.21,6.79-2.03,7.16-6.33-5.8-2.19-6.78-.52-10.17-6.86l2.49-2.11c-7.31-6.94-4.07-7.23-10.32-13.64,2.19-1.28,1.43-.76,4.59-1.13.76-4.52-.76-1.43,3.54-3.54-3.16-5.2-7.46-5.8-10.25-11.53.52-1.58.37.07,1.36-3.01-8.15-7.53.91-3.7-11.38-17.56-3.09,4.9-4.74,8.44-8.74,13.04h-.04Z" fill="#3b5f51" fill-rule="evenodd"/><path d="M119.78,124.5c5.52-2.03,11.07-3.98,16.66-5.84.77-.26,1.42-.57,1.95-.96.53-.38,1.01-.75,1.44-1.08.43-.34.86-.58,1.29-.72.82-.27,1.44-.16,1.87.33.43.49.8,1.42,1.11,2.82.72,4.2,1.44,8.43,2.17,12.68.18,1.02.16,1.89-.06,2.61-.22.72-.61,1.24-1.2,1.55-.53.32-1.01.39-1.43.21-.42-.18-.8-.68-1.12-1.49-1.12-2.81-2.07-4.94-2.84-6.42-.77-1.47-1.48-2.45-2.13-2.94-.65-.49-1.35-.61-2.12-.37-.43.13-.85.27-1.27.41.55,13.06,1.1,26.12,1.65,39.18.03.64.16,1.13.39,1.48.23.36.57.62,1,.8.33.12.65.24.98.37.9.36,1.37,1.23,1.43,2.62.07,1.75-.61,2.74-2.06,2.97-4.82.78-9.64,1.58-14.44,2.42-.74.13-1.29,0-1.66-.39-.37-.38-.57-.95-.6-1.7-.05-1.3.34-2.28,1.19-2.93.31-.23.62-.46.93-.7.42-.33.73-.7.93-1.12.19-.42.28-.94.25-1.55-.52-12.55-1.03-25.1-1.55-37.65-.42.14-.84.29-1.26.43-.74.26-1.41.81-2,1.67-.59.85-1.2,2.18-1.83,3.97-.63,1.79-1.37,4.25-2.23,7.36-.25.9-.57,1.53-.96,1.92-.39.39-.86.58-1.39.58-.57.03-.98-.2-1.24-.71-.26-.51-.35-1.25-.27-2.22.37-4.06.74-8.15,1.11-12.27.19-1.41.48-2.47.85-3.17.37-.71.96-1.22,1.76-1.52.43-.16.86-.24,1.29-.22.43.02.92.02,1.46.01.54,0,1.19-.15,1.95-.43Z" fill="#1c352d"/><path d="M171.42,158.4c.03.7.16,1.25.4,1.66.24.4.58.71,1.01.94.33.15.66.3.99.45.91.44,1.39,1.43,1.45,2.96.04.88-.12,1.6-.45,2.17-.34.57-.88.9-1.63,1-4.88.62-9.74,1.28-14.6,1.96-.74.1-1.3-.07-1.68-.52-.38-.45-.58-1.09-.62-1.93-.06-1.46.34-2.52,1.19-3.21.31-.24.63-.48.94-.72.43-.34.74-.74.93-1.2.19-.46.28-1.02.25-1.71-.54-13.03-1.08-26.06-1.63-39.1-.03-.68-.16-1.21-.39-1.57-.23-.36-.57-.62-1.02-.77-.33-.1-.66-.2-.99-.3-.9-.3-1.38-1.17-1.44-2.63-.04-.86.11-1.59.45-2.18.33-.59.87-1,1.62-1.21,4.85-1.42,9.72-2.77,14.6-4.06.75-.2,1.31-.09,1.69.33.38.42.59,1.08.62,1.98.06,1.53-.34,2.69-1.2,3.47-.32.28-.63.56-.95.83-.41.39-.72.83-.93,1.32-.2.49-.29,1.09-.26,1.79.54,13.42,1.08,26.84,1.63,40.25ZM163.67,138.13c7.18-1.52,14.39-2.93,21.63-4.24.08,2.16.16,4.32.25,6.48-7.24,1.21-14.45,2.52-21.63,3.93-.08-2.06-.17-4.11-.25-6.17ZM193.95,155.26c.03.74.16,1.32.4,1.75.24.43.58.77,1.02,1.01.33.17.66.34,1,.5.91.49,1.39,1.53,1.45,3.13.03.92-.12,1.67-.46,2.26-.34.59-.88.92-1.64,1-4.9.53-9.8,1.09-14.68,1.68-.75.09-1.31-.11-1.69-.59-.38-.48-.58-1.17-.62-2.05-.06-1.54.34-2.65,1.2-3.35.32-.24.63-.49.95-.73.43-.35.74-.76.94-1.23.2-.47.28-1.07.25-1.79-.53-13.74-1.07-27.48-1.6-41.22-.03-.72-.16-1.28-.39-1.67-.23-.4-.57-.68-1.03-.87-.33-.12-.67-.25-1-.37-.91-.36-1.4-1.31-1.46-2.85-.04-.91.12-1.67.45-2.27.34-.6.88-1,1.64-1.19,4.91-1.22,9.83-2.38,14.78-3.47.76-.17,1.33-.02,1.71.43.38.45.59,1.16.62,2.1.06,1.6-.35,2.79-1.22,3.57-.32.27-.64.55-.96.82-.42.39-.73.83-.94,1.33-.21.5-.3,1.12-.27,1.86.52,14.07,1.03,28.14,1.55,42.21Z" fill="#1c352d"/><path d="M205.58,103.49c-.03-.96.12-1.75.47-2.37.35-.61.9-1,1.66-1.15,6.53-1.28,13.09-2.44,19.67-3.5.8-.13,1.46-.37,1.98-.74.52-.36,1-.72,1.46-1.07.45-.35.99-.58,1.6-.67.79-.12,1.39.19,1.82.93.42.74.81,1.98,1.15,3.73.86,4.31,1.72,8.62,2.57,12.95.22,1.11.25,2.05.07,2.83-.17.78-.52,1.37-1.05,1.78-.62.49-1.18.55-1.68.21-.51-.35-.93-1.03-1.27-2.06-.82-2.38-1.58-4.31-2.28-5.8-.71-1.49-1.41-2.62-2.1-3.39-.7-.77-1.42-1.28-2.17-1.51-.75-.23-1.59-.27-2.51-.13-1.18.18-2.35.37-3.52.56.46,15.3.92,30.6,1.39,45.91.06,1.88.36,3.27.92,4.16.55.89,1.32,1.29,2.3,1.21.4-.04.81-.07,1.21-.11,1.29-.11,2.42-.58,3.39-1.4.97-.82,1.88-2.27,2.72-4.37.84-2.1,1.71-5.1,2.61-9.03.23-1.03.56-1.75,1-2.15.43-.4.93-.54,1.49-.4.61.16,1.07.63,1.36,1.41.3.78.37,1.78.21,2.99-.67,5.15-1.35,10.28-2.02,15.4-.23,1.75-.54,3.06-.92,3.92-.38.86-1,1.32-1.84,1.38-.53.04-1.02-.07-1.47-.32-.45-.25-.94-.49-1.47-.74-.53-.24-1.19-.33-1.99-.27-6.84.53-13.68,1.12-20.5,1.78-.75.07-1.32-.15-1.7-.68-.38-.52-.58-1.25-.62-2.18-.06-1.63.35-2.79,1.22-3.49.32-.25.64-.49.96-.74.44-.35.75-.77.95-1.26.2-.49.29-1.12.26-1.88-.48-14.49-.96-28.98-1.44-43.46-.03-.76-.15-1.35-.39-1.78-.23-.43-.58-.76-1.04-.98-.34-.15-.67-.3-1.01-.45-.92-.44-1.41-1.46-1.46-3.09ZM217.53,126.76c2.27-.32,4.55-.62,6.83-.92,1.07-.14,1.83-.61,2.27-1.44.44-.82.81-2.34,1.11-4.56.14-1.08.37-1.88.69-2.39.32-.51.69-.8,1.13-.85.92-.12,1.53.72,1.82,2.53.81,4.83,1.63,9.68,2.44,14.54.19,1.14.21,2.06.06,2.75-.15.69-.47,1.22-.96,1.58-.48.36-.93.46-1.36.28-.43-.17-.8-.64-1.12-1.38-.59-1.37-1.13-2.41-1.61-3.1-.48-.69-1.01-1.15-1.58-1.36-.57-.21-1.31-.27-2.2-.16-2.44.29-4.87.6-7.31.92-.07-2.15-.13-4.29-.2-6.44Z" fill="#1c352d"/><path d="M297.73,138.64c.02,2.59-.32,5.18-1.02,7.76-.7,2.58-1.72,4.94-3.05,7.09-1.33,2.15-2.94,3.88-4.83,5.19-1.89,1.31-4.03,2-6.41,2.08-3.87.13-7.24-1.27-10.12-4.18-2.88-2.91-5.14-6.98-6.78-12.23-1.64-5.25-2.53-11.32-2.66-18.25-.1-5.19.27-10.01,1.12-14.47.85-4.46,2.08-8.4,3.7-11.81,1.62-3.41,3.54-6.12,5.76-8.12,2.22-2,4.64-3.1,7.26-3.29,1.64-.12,2.98.06,4,.52,1.02.46,1.85.94,2.47,1.44.62.5,1.16.74,1.6.72.51-.03.93-.3,1.25-.83.32-.52.65-1.04.99-1.55.34-.51.78-.78,1.31-.8.44-.02.81.22,1.11.73.3.51.55,1.39.75,2.62.96,5.76,1.92,11.53,2.87,17.31.17,1.01.11,1.93-.17,2.74-.28.82-.7,1.36-1.24,1.65-.59.29-1.14.23-1.63-.16-.5-.39-.88-1.15-1.15-2.29-.93-3.9-1.95-6.9-3.05-9.03-1.1-2.12-2.24-3.58-3.42-4.38-1.18-.8-2.38-1.16-3.6-1.08-1.29.08-2.43.73-3.43,1.94-1,1.21-1.83,2.91-2.5,5.11-.67,2.2-1.17,4.83-1.49,7.89-.32,3.06-.45,6.49-.4,10.3.09,6.21.62,11.35,1.57,15.45.95,4.1,2.22,7.15,3.82,9.15,1.6,2,3.43,2.97,5.49,2.9,1.8-.06,3.45-.99,4.95-2.79,1.49-1.8,2.72-4.42,3.68-7.86.29-1.06.6-1.76.95-2.1.35-.34.73-.43,1.15-.28.4.12.69.43.87.93.18.5.27,1.17.28,1.99Z" fill="#1c352d"/><path d="M318.04,154.77c0,1.02-.18,1.84-.53,2.45-.35.61-.91.92-1.67.92-2.77.02-5.54.04-8.31.08-.74,0-1.3-.29-1.67-.89-.37-.6-.55-1.41-.56-2.43,0-.72.08-1.34.26-1.85.18-.51.48-1.02.89-1.52.18-.22.36-.43.54-.65.57-.67,1.01-1.49,1.33-2.46.32-.98.66-2.67,1.03-5.08,2.17-13.64,4.37-27.3,6.59-40.94.31-1.95.42-3.36.34-4.23-.09-.87-.45-1.59-1.09-2.14-.5-.46-.85-.98-1.05-1.57-.21-.59-.31-1.3-.31-2.12,0-1.05.18-1.88.55-2.48.37-.6.94-.9,1.72-.91,5.69-.06,11.39-.04,17.08.05.78.01,1.35.32,1.72.92.37.6.55,1.43.55,2.48,0,.89-.12,1.62-.34,2.19-.22.57-.54,1.04-.95,1.39-.44.39-.71.92-.79,1.59-.08.67,0,1.74.24,3.19,2.38,14.38,4.72,28.77,7.03,43.14.35,2.21.67,3.84.96,4.88.29,1.04.67,1.8,1.16,2.27.6.6,1.01,1.19,1.21,1.75.2.56.3,1.29.3,2.17,0,1.02-.19,1.83-.56,2.43-.37.6-.93.9-1.69.88-4.57-.07-9.14-.12-13.72-.14-.78,0-1.35-.31-1.7-.92-.35-.61-.53-1.43-.53-2.45,0-.82.11-1.49.34-2,.23-.51.56-.96,1.02-1.36.28-.25.56-.49.84-.74.45-.39.64-.93.58-1.6-.07-.68-.22-1.77-.46-3.29-2.53-16.08-5.09-32.16-7.7-48.22.37-.48.74-.96,1.11-1.44-2.53,15.28-5.03,30.58-7.48,45.87-.27,1.68-.41,3.04-.42,4.08,0,1.04.16,1.91.49,2.61.33.71.86,1.42,1.59,2.14.24.23.49.46.73.69.4.39.72.83.97,1.3.24.48.37,1.13.37,1.95ZM313.78,128.71c5.11-.05,10.21-.06,15.32-.02,0,2.45,0,4.91.01,7.36-5.12-.04-10.24-.03-15.36.02.01-2.45.02-4.91.03-7.36Z" fill="#1c352d"/><path d="M378.87,136.26c-1.28.26-2.55.52-3.83.79,2.82-12.93,5.67-25.79,8.54-38.54.56-2.43,1.17-4.08,1.85-4.94.68-.86,1.61-1.23,2.79-1.11,3.41.37,6.82.77,10.22,1.2.77.1,1.34.46,1.69,1.08.36.62.52,1.44.5,2.45-.02.89-.16,1.61-.41,2.17-.25.56-.59.95-1.02,1.19-.34.18-.68.36-1.01.55-.55.29-.93.69-1.12,1.21-.2.52-.29,1.34-.28,2.46.21,14.9.42,29.77.62,44.62,0,1.18.1,2.01.27,2.5.17.49.47.89.89,1.21.32.25.65.49.97.74.39.28.68.72.88,1.3.19.58.28,1.29.26,2.11-.02.98-.23,1.79-.6,2.41-.38.63-.95.91-1.7.87-4.81-.31-9.62-.58-14.44-.83-.78-.04-1.34-.37-1.69-.98-.35-.61-.52-1.42-.5-2.42.02-.84.13-1.56.34-2.16.21-.6.57-1.05,1.08-1.34.34-.21.68-.41,1.02-.62.53-.32.89-.75,1.08-1.26.19-.52.28-1.31.27-2.37-.33-15.93-.66-31.88-1-47.86,1.15-.07,2.31-.13,3.46-.19-3.88,17.06-7.71,34.31-11.5,51.7-.53,2.43-1.05,3.98-1.57,4.64-.52.66-1.14.97-1.84.94-.52-.02-.99-.16-1.41-.4-.42-.24-.81-.8-1.17-1.68-.36-.88-.72-2.26-1.09-4.17-3.31-17.06-6.67-34.2-10.1-51.4,1.11-.3,2.23-.59,3.34-.88-.86,15.43-1.72,30.87-2.57,46.33-.09,1.56.07,2.76.49,3.6.42.83.94,1.6,1.57,2.31.24.27.48.54.72.81.29.3.52.7.67,1.2.16.5.23,1.12.22,1.87-.01,1.04-.2,1.88-.57,2.5-.36.62-.92.92-1.69.9-2.55-.08-5.1-.16-7.66-.22-.76-.02-1.32-.34-1.67-.95-.35-.61-.52-1.43-.51-2.45,0-1.02.16-1.79.44-2.32.28-.53.65-1.01,1.11-1.42.18-.16.37-.32.55-.48.54-.48,1.01-1.13,1.41-1.97.4-.84.64-2.03.73-3.56.74-13.89,1.49-27.77,2.24-41.64.11-1.92.07-3.33-.11-4.23-.19-.89-.56-1.55-1.12-1.98-.33-.25-.67-.49-1-.74-.45-.35-.79-.83-1.02-1.43-.22-.6-.33-1.36-.32-2.28.02-2.23.79-3.3,2.31-3.22,3.39.19,6.79.41,10.18.66,1.09.08,1.97.57,2.62,1.47.65.9,1.23,2.67,1.73,5.31,2.52,13.04,5,26.03,7.45,38.96Z" fill="#1c352d"/><path d="M446.5,125.37c-.14,3.93-.86,7.23-2.17,9.92-1.3,2.7-3.11,4.69-5.43,5.98-2.31,1.29-5.05,1.76-8.2,1.37-2.05-.25-3.86-.86-5.43-1.84-1.57-.98-2.97-2.26-4.21-3.83.19-1.9.37-3.8.56-5.7.63.92,1.24,1.67,1.83,2.27.59.6,1.21,1.06,1.87,1.39.66.33,1.39.54,2.2.65,1.28.16,2.46-.19,3.54-1.04,1.08-.85,1.97-2.24,2.67-4.17.7-1.93,1.09-4.41,1.19-7.44.11-3.49-.14-6.55-.77-9.19-.63-2.64-1.53-4.76-2.71-6.34-1.18-1.58-2.56-2.52-4.14-2.78-.21-.04-.42-.07-.63-.1-.49,15.92-.98,31.84-1.47,47.76-.02.77.05,1.43.24,1.99.18.56.51.95.99,1.18.51.25,1.02.5,1.53.75.54.27.93.68,1.15,1.24.22.56.32,1.34.29,2.35-.03.95-.24,1.69-.61,2.22-.38.53-.94.77-1.7.7-5.18-.46-10.37-.88-15.57-1.27-.76-.06-1.31-.39-1.65-.99-.35-.61-.51-1.4-.48-2.37.05-1.69.52-2.82,1.44-3.37.33-.19.67-.38,1-.58.46-.28.8-.64,1.03-1.11.23-.47.35-1.09.38-1.87.41-14.93.83-29.85,1.24-44.78.02-.78-.07-1.43-.27-1.94-.2-.52-.53-.96-.97-1.34-.33-.27-.65-.53-.98-.8-.89-.76-1.31-1.98-1.27-3.67.03-1,.23-1.76.61-2.27.38-.51.96-.71,1.73-.59,4.87.74,9.72,1.54,14.56,2.4,4.17.74,7.67,2.45,10.49,5.04,2.82,2.59,4.92,5.81,6.3,9.64,1.38,3.83,1.98,8,1.82,12.55Z" fill="#1c352d"/><path d="M456.08,106.88c.03-.94.24-1.63.62-2.07.38-.44.95-.58,1.7-.4,6.47,1.51,12.92,3.13,19.33,4.86.78.21,1.43.26,1.95.15.52-.11,1.01-.23,1.47-.35.46-.12.99-.1,1.58.07.76.22,1.32.73,1.69,1.54.36.81.65,2.04.88,3.68.56,4.05,1.12,8.09,1.68,12.1.14,1.03.11,1.85-.1,2.46-.21.61-.59,1-1.12,1.18-.62.21-1.17.08-1.64-.39-.47-.47-.83-1.21-1.1-2.22-.64-2.35-1.25-4.31-1.84-5.87-.59-1.56-1.19-2.81-1.81-3.76-.62-.95-1.29-1.67-2-2.16-.71-.49-1.52-.85-2.42-1.08-1.15-.29-2.3-.57-3.45-.86-.56,14.06-1.12,28.12-1.68,42.18-.07,1.73.14,3.06.62,4,.48.94,1.21,1.47,2.18,1.61.4.06.8.11,1.2.17,1.27.18,2.41.02,3.41-.49,1-.51,1.98-1.59,2.94-3.23.95-1.64,1.99-4.06,3.11-7.23.29-.83.66-1.37,1.1-1.6.44-.23.93-.22,1.47.05.58.31,1,.83,1.24,1.58.24.75.25,1.62.02,2.61-.97,4.23-1.94,8.5-2.91,12.79-.33,1.47-.71,2.53-1.14,3.21-.43.67-1.06.95-1.89.84-.53-.07-1-.26-1.42-.56-.42-.31-.89-.62-1.39-.94-.51-.32-1.15-.53-1.93-.63-6.75-.89-13.53-1.72-20.32-2.49-.75-.09-1.29-.42-1.63-1-.34-.58-.49-1.33-.46-2.23.06-1.58.54-2.61,1.45-3.08.33-.16.66-.33,1-.49.46-.23.8-.56,1.03-.99.23-.42.36-1,.39-1.72.53-13.9,1.05-27.79,1.58-41.69.03-.73-.06-1.34-.26-1.84-.2-.5-.51-.94-.95-1.33-.32-.28-.64-.55-.95-.83-.87-.78-1.28-1.96-1.22-3.54ZM466.18,133.11c2.24.43,4.48.88,6.72,1.33,1.06.21,1.82.03,2.3-.57.48-.59.94-1.83,1.37-3.71.21-.91.48-1.54.82-1.89.34-.35.72-.47,1.15-.37.9.21,1.43,1.16,1.61,2.85.48,4.52.96,9.02,1.45,13.49.11,1.05.07,1.86-.11,2.42-.19.56-.53.94-1.03,1.12-.49.19-.93.15-1.34-.12-.41-.27-.74-.78-1-1.53-.49-1.38-.95-2.45-1.37-3.21-.42-.76-.91-1.31-1.45-1.67-.54-.36-1.26-.62-2.14-.79-2.4-.46-4.8-.9-7.21-1.33.08-2,.16-4.01.24-6.01Z" fill="#1c352d"/><path d="M531.46,144.33c-.09,2.15-.52,4.01-1.3,5.63-.78,1.61-1.86,2.87-3.23,3.78-1.37.91-3,1.39-4.88,1.42-.91.02-1.73.1-2.47.22-.74.12-1.48.21-2.22.26-.74.05-1.59-.03-2.54-.25-1.02-.23-1.96-.55-2.81-.96-.85-.41-1.62-.9-2.31-1.46-.69-.57-1.31-1.17-1.88-1.82.08-1.63.15-3.25.23-4.88.43.6.88,1.11,1.36,1.55.47.44,1,.8,1.58,1.1.58.29,1.24.53,2,.72,1.99.49,3.57.05,4.73-1.29,1.17-1.34,1.82-3.72,1.96-7.18.11-2.66-.12-5.12-.7-7.4-.58-2.28-1.42-4.2-2.53-5.78-1.11-1.58-2.41-2.62-3.89-3.1-.32-.11-.65-.21-.97-.31-.56,13.32-1.12,26.63-1.68,39.95-.03.64.03,1.16.17,1.57.14.41.39.79.75,1.13.23.22.46.44.68.66.5.47.84.93.99,1.38.16.45.22,1,.2,1.65-.07,1.71-.83,2.45-2.27,2.21-4.65-.76-9.32-1.49-13.99-2.19-.74-.11-1.28-.44-1.61-.98-.33-.54-.48-1.23-.45-2.06.06-1.44.54-2.35,1.44-2.74.33-.13.66-.26.98-.4.45-.19.79-.47,1.02-.84.23-.37.36-.89.38-1.55.53-12.59,1.06-25.19,1.6-37.78.03-.66-.05-1.22-.25-1.69-.19-.47-.5-.9-.93-1.29-.31-.28-.62-.56-.93-.84-.85-.79-1.25-1.9-1.19-3.34.04-.85.24-1.46.61-1.83.37-.37.93-.44,1.67-.21,4.84,1.51,9.66,3.08,14.46,4.72,4.11,1.4,7.53,3.42,10.28,5.93,2.75,2.51,4.79,5.35,6.14,8.47,1.34,3.13,1.95,6.39,1.81,9.84ZM513.77,153.06c3.78.25,7.54.56,11.3.91,1.66,5.06,3.32,10.04,4.99,14.92.27.8.52,1.4.75,1.82.23.42.53.79.9,1.13.4.37.7.77.87,1.2.18.44.25.96.23,1.56-.03.73-.23,1.27-.59,1.64-.37.37-.92.49-1.65.35-4.14-.75-8.28-1.48-12.44-2.19-1.37-.23-2.03-1.19-1.96-2.89.02-.4.09-.74.21-1.03.12-.29.32-.55.6-.77.11-.09.21-.19.31-.28.32-.29.5-.59.56-.91.06-.31-.01-.8-.2-1.46-1.29-4.61-2.58-9.28-3.87-14.01Z" fill="#1c352d"/><rect x="145.97" y="542.74" width="357.32" height="54.31" fill="none"/><path d="M230.71,569.02c-.62,0-1.14-.2-1.55-.61-.41-.41-.61-.91-.61-1.51v-20.92c0-.62.2-1.14.59-1.55s.91-.61,1.53-.61h2.16v25.2h-2.12ZM231.32,558.04v-3.92h9.72c.58,0,1.04.19,1.4.56.36.37.54.85.54,1.42s-.18,1.04-.54,1.4c-.36.36-.83.54-1.4.54h-9.72ZM231.46,547.71v-3.89h10.91c.58,0,1.04.18,1.4.54.36.36.54.83.54,1.4s-.18,1.04-.54,1.4c-.36.36-.83.54-1.4.54h-10.91ZM231.79,569.02v-4h10.94c.58,0,1.04.18,1.4.54.36.36.54.84.54,1.44s-.18,1.06-.54,1.44c-.36.38-.83.58-1.4.58h-10.94Z" fill="#1c352d"/><path d="M260.59,569.56c-1.87,0-3.51-.31-4.91-.92-1.4-.61-2.5-1.4-3.28-2.38-.78-.97-1.17-1.99-1.17-3.04,0-.62.19-1.13.56-1.51.37-.38.87-.58,1.49-.58s1.04.17,1.33.52c.29.35.54.75.76,1.21.36.74.94,1.4,1.75,1.96.8.56,1.91.85,3.33.85.82,0,1.57-.11,2.25-.32.68-.22,1.24-.58,1.66-1.1.42-.52.63-1.18.63-2,0-.72-.18-1.31-.54-1.76-.36-.46-.91-.87-1.66-1.24-.74-.37-1.69-.79-2.84-1.24-.86-.34-1.73-.69-2.61-1.06-.88-.37-1.68-.83-2.41-1.39-.73-.55-1.32-1.25-1.76-2.09-.44-.84-.67-1.91-.67-3.2,0-1.54.35-2.82,1.06-3.85.71-1.03,1.66-1.81,2.84-2.34,1.19-.53,2.53-.79,4.01-.79,1.13,0,2.16.14,3.1.43s1.76.69,2.47,1.21c.71.52,1.26,1.09,1.66,1.73s.62,1.31.67,2.03c.02.6-.15,1.1-.52,1.51-.37.41-.87.61-1.49.61-.5,0-.87-.11-1.1-.34s-.46-.56-.7-.99c-.36-.74-.85-1.31-1.48-1.71-.62-.4-1.45-.59-2.48-.59-.72,0-1.36.11-1.93.34s-1,.56-1.31.99c-.31.43-.47.96-.47,1.58,0,.79.24,1.43.72,1.93.48.49,1.11.91,1.89,1.24.78.34,1.63.68,2.54,1.04,1.1.46,2.11.91,3.01,1.37.9.46,1.67.97,2.32,1.55.65.58,1.15,1.25,1.49,2.03.35.78.52,1.7.52,2.75,0,1.61-.36,2.98-1.08,4.1-.72,1.13-1.73,1.99-3.04,2.57-1.31.59-2.84.88-4.59.88Z" fill="#1c352d"/><path d="M276.93,547.93c-.58,0-1.06-.2-1.46-.59-.4-.4-.59-.88-.59-1.46s.2-1.09.59-1.48.88-.58,1.46-.58h15.44c.58,0,1.06.19,1.46.58s.59.88.59,1.48-.2,1.06-.59,1.46c-.4.4-.88.59-1.46.59h-15.44ZM284.63,569.38c-.6,0-1.1-.2-1.51-.61-.41-.41-.61-.92-.61-1.55v-21.24h4.28v21.24c0,.62-.2,1.14-.59,1.55s-.92.61-1.57.61Z" fill="#1c352d"/><path d="M302.74,569.45c-.77,0-1.39-.24-1.87-.72-.48-.48-.72-1.18-.72-2.09s.24-1.58.72-2.07c.48-.49,1.1-.74,1.87-.74s1.39.25,1.87.74c.48.49.72,1.18.72,2.07s-.24,1.61-.72,2.09c-.48.48-1.1.72-1.87.72Z" fill="#1c352d"/><path d="M329.17,569.02c-.74,0-1.37-.22-1.89-.67-.52-.44-.77-1.1-.77-1.96,0-1.25.22-2.38.67-3.38.44-1.01,1.04-1.92,1.8-2.74.76-.82,1.58-1.57,2.48-2.25s1.78-1.34,2.65-1.96c.91-.62,1.76-1.24,2.54-1.85.78-.61,1.41-1.24,1.89-1.89.48-.65.72-1.36.72-2.12,0-.65-.17-1.2-.5-1.66-.34-.46-.8-.81-1.4-1.06-.6-.25-1.32-.38-2.16-.38-.91,0-1.67.13-2.29.4-.61.26-1.1.62-1.47,1.08-.37.46-.67.97-.88,1.55-.19.53-.44.92-.76,1.17-.31.25-.7.38-1.15.38-.55,0-1.01-.2-1.37-.59-.36-.4-.54-.88-.54-1.46.02-.79.26-1.56.72-2.3.46-.74,1.08-1.42,1.87-2.02.79-.6,1.72-1.08,2.79-1.44,1.07-.36,2.22-.54,3.47-.54,1.51,0,2.86.28,4.03.85,1.18.56,2.11,1.36,2.79,2.39.69,1.03,1.04,2.23,1.06,3.6.02,1.1-.16,2.1-.56,2.99-.39.89-.93,1.69-1.6,2.41s-1.42,1.39-2.23,2c-.81.61-1.64,1.21-2.48,1.78-.84.58-1.66,1.15-2.45,1.73-.79.58-1.45,1.18-1.96,1.8-.52.62-.78,1.33-.78,2.12v.07l10.62-.04c.58,0,1.05.2,1.44.59.38.4.58.87.58,1.42s-.19,1.02-.58,1.4c-.38.38-.86.58-1.44.58h-12.85Z" fill="#1c352d"/><path d="M360.84,569.56c-1.97,0-3.73-.55-5.27-1.66-1.55-1.1-2.76-2.64-3.64-4.61-.88-1.97-1.31-4.25-1.31-6.84s.44-4.88,1.33-6.86c.89-1.98,2.11-3.53,3.67-4.64,1.56-1.12,3.31-1.67,5.26-1.67s3.69.56,5.24,1.67c1.55,1.12,2.77,2.66,3.65,4.64.89,1.98,1.33,4.27,1.33,6.86s-.44,4.87-1.31,6.84-2.09,3.5-3.64,4.61c-1.55,1.1-3.32,1.66-5.31,1.66ZM360.84,565.67c1.27,0,2.36-.37,3.26-1.12.9-.74,1.6-1.81,2.09-3.2.49-1.39.74-3.02.74-4.9s-.25-3.5-.74-4.9c-.49-1.39-1.19-2.47-2.09-3.24-.9-.77-1.99-1.15-3.26-1.15s-2.3.38-3.22,1.15c-.92.77-1.63,1.85-2.12,3.24-.49,1.39-.74,3.02-.74,4.9s.25,3.5.74,4.9c.49,1.39,1.2,2.46,2.12,3.2s2,1.12,3.22,1.12Z" fill="#1c352d"/><path d="M380.83,569.02c-.74,0-1.37-.22-1.89-.67-.52-.44-.77-1.1-.77-1.96,0-1.25.22-2.38.67-3.38.44-1.01,1.04-1.92,1.8-2.74.76-.82,1.58-1.57,2.48-2.25.9-.68,1.78-1.34,2.65-1.96.91-.62,1.76-1.24,2.54-1.85.78-.61,1.41-1.24,1.89-1.89.48-.65.72-1.36.72-2.12,0-.65-.17-1.2-.5-1.66-.34-.46-.8-.81-1.4-1.06-.6-.25-1.32-.38-2.16-.38-.91,0-1.67.13-2.29.4-.61.26-1.1.62-1.48,1.08-.37.46-.67.97-.88,1.55-.19.53-.44.92-.76,1.17-.31.25-.7.38-1.15.38-.55,0-1.01-.2-1.37-.59-.36-.4-.54-.88-.54-1.46.02-.79.26-1.56.72-2.3.46-.74,1.08-1.42,1.87-2.02s1.72-1.08,2.79-1.44c1.07-.36,2.23-.54,3.47-.54,1.51,0,2.86.28,4.03.85,1.18.56,2.11,1.36,2.79,2.39.68,1.03,1.04,2.23,1.06,3.6.02,1.1-.16,2.1-.56,2.99-.4.89-.93,1.69-1.6,2.41s-1.42,1.39-2.23,2c-.82.61-1.64,1.21-2.48,1.78-.84.58-1.66,1.15-2.45,1.73s-1.45,1.18-1.96,1.8c-.52.62-.77,1.33-.77,2.12v.07l10.62-.04c.58,0,1.06.2,1.44.59.38.4.58.87.58,1.42s-.19,1.02-.58,1.4-.86.58-1.44.58h-12.85Z" fill="#1c352d"/><path d="M416.39,569.38c-.58,0-1.07-.2-1.49-.61s-.62-.9-.59-1.48l.36-21.28,2.63.29-11.81,14-1.62-1.91,16.42-.14c.58,0,1.06.18,1.46.54.4.36.59.82.59,1.37s-.2,1.07-.59,1.48c-.4.41-.88.61-1.46.61h-16.13c-.62,0-1.18-.22-1.67-.67-.49-.44-.74-1-.74-1.67,0-.33.08-.68.23-1.04.16-.36.34-.68.56-.97l10.98-13.25c.38-.48.78-.8,1.19-.97s.83-.25,1.26-.25c.89,0,1.53.23,1.93.68.4.46.59.96.59,1.51v21.67c0,.58-.2,1.07-.61,1.48s-.9.61-1.48.61Z" fill="#1c352d"/><rect x="143.97" y="540.74" width="357.32" height="54.31" fill="none"/><path d="M228.71,567.02c-.62,0-1.14-.2-1.55-.61-.41-.41-.61-.91-.61-1.51v-20.92c0-.62.2-1.14.59-1.55s.91-.61,1.53-.61h2.16v25.2h-2.12ZM229.32,556.04v-3.92h9.72c.58,0,1.04.19,1.4.56.36.37.54.85.54,1.42s-.18,1.04-.54,1.4c-.36.36-.83.54-1.4.54h-9.72ZM229.46,545.71v-3.89h10.91c.58,0,1.04.18,1.4.54.36.36.54.83.54,1.4s-.18,1.04-.54,1.4c-.36.36-.83.54-1.4.54h-10.91ZM229.79,567.02v-4h10.94c.58,0,1.04.18,1.4.54.36.36.54.84.54,1.44s-.18,1.06-.54,1.44c-.36.38-.83.58-1.4.58h-10.94Z" fill="#faf7f0"/><path d="M258.59,567.56c-1.87,0-3.51-.31-4.91-.92-1.4-.61-2.5-1.4-3.28-2.38-.78-.97-1.17-1.99-1.17-3.04,0-.62.19-1.13.56-1.51.37-.38.87-.58,1.49-.58s1.04.17,1.33.52c.29.35.54.75.76,1.21.36.74.94,1.4,1.75,1.96.8.56,1.91.85,3.33.85.82,0,1.57-.11,2.25-.32.68-.22,1.24-.58,1.66-1.1.42-.52.63-1.18.63-2,0-.72-.18-1.31-.54-1.76-.36-.46-.91-.87-1.66-1.24-.74-.37-1.69-.79-2.84-1.24-.86-.34-1.73-.69-2.61-1.06-.88-.37-1.68-.83-2.41-1.39-.73-.55-1.32-1.25-1.76-2.09-.44-.84-.67-1.91-.67-3.2,0-1.54.35-2.82,1.06-3.85.71-1.03,1.66-1.81,2.84-2.34,1.19-.53,2.53-.79,4.01-.79,1.13,0,2.16.14,3.1.43s1.76.69,2.47,1.21c.71.52,1.26,1.09,1.66,1.73s.62,1.31.67,2.03c.02.6-.15,1.1-.52,1.51-.37.41-.87.61-1.49.61-.5,0-.87-.11-1.1-.34s-.46-.56-.7-.99c-.36-.74-.85-1.31-1.48-1.71-.62-.4-1.45-.59-2.48-.59-.72,0-1.36.11-1.93.34s-1,.56-1.31.99c-.31.43-.47.96-.47,1.58,0,.79.24,1.43.72,1.93.48.49,1.11.91,1.89,1.24.78.34,1.63.68,2.54,1.04,1.1.46,2.11.91,3.01,1.37.9.46,1.67.97,2.32,1.55.65.58,1.15,1.25,1.49,2.03.35.78.52,1.7.52,2.75,0,1.61-.36,2.98-1.08,4.1-.72,1.13-1.73,1.99-3.04,2.57-1.31.59-2.84.88-4.59.88Z" fill="#faf7f0"/><path d="M274.93,545.93c-.58,0-1.06-.2-1.46-.59-.4-.4-.59-.88-.59-1.46s.2-1.09.59-1.48.88-.58,1.46-.58h15.44c.58,0,1.06.19,1.46.58s.59.88.59,1.48-.2,1.06-.59,1.46c-.4.4-.88.59-1.46.59h-15.44ZM282.63,567.38c-.6,0-1.1-.2-1.51-.61-.41-.41-.61-.92-.61-1.55v-21.24h4.28v21.24c0,.62-.2,1.14-.59,1.55s-.92.61-1.57.61Z" fill="#faf7f0"/><path d="M300.74,567.45c-.77,0-1.39-.24-1.87-.72-.48-.48-.72-1.18-.72-2.09s.24-1.58.72-2.07c.48-.49,1.1-.74,1.87-.74s1.39.25,1.87.74c.48.49.72,1.18.72,2.07s-.24,1.61-.72,2.09c-.48.48-1.1.72-1.87.72Z" fill="#faf7f0"/><path d="M327.17,567.02c-.74,0-1.37-.22-1.89-.67-.52-.44-.77-1.1-.77-1.96,0-1.25.22-2.38.67-3.38.44-1.01,1.04-1.92,1.8-2.74.76-.82,1.58-1.57,2.48-2.25s1.78-1.34,2.65-1.96c.91-.62,1.76-1.24,2.54-1.85.78-.61,1.41-1.24,1.89-1.89.48-.65.72-1.36.72-2.12,0-.65-.17-1.2-.5-1.66-.34-.46-.8-.81-1.4-1.06-.6-.25-1.32-.38-2.16-.38-.91,0-1.67.13-2.29.4-.61.26-1.1.62-1.47,1.08-.37.46-.67.97-.88,1.55-.19.53-.44.92-.76,1.17-.31.25-.7.38-1.15.38-.55,0-1.01-.2-1.37-.59-.36-.4-.54-.88-.54-1.46.02-.79.26-1.56.72-2.3.46-.74,1.08-1.42,1.87-2.02.79-.6,1.72-1.08,2.79-1.44,1.07-.36,2.22-.54,3.47-.54,1.51,0,2.86.28,4.03.85,1.18.56,2.11,1.36,2.79,2.39.69,1.03,1.04,2.23,1.06,3.6.02,1.1-.16,2.1-.56,2.99-.39.89-.93,1.69-1.6,2.41s-1.42,1.39-2.23,2c-.81.61-1.64,1.21-2.48,1.78-.84.58-1.66,1.15-2.45,1.73-.79.58-1.45,1.18-1.96,1.8-.52.62-.78,1.33-.78,2.12v.07l10.62-.04c.58,0,1.05.2,1.44.59.38.4.58.87.58,1.42s-.19,1.02-.58,1.4c-.38.38-.86.58-1.44.58h-12.85Z" fill="#faf7f0"/><path d="M358.84,567.56c-1.97,0-3.73-.55-5.27-1.66-1.55-1.1-2.76-2.64-3.64-4.61-.88-1.97-1.31-4.25-1.31-6.84s.44-4.88,1.33-6.86c.89-1.98,2.11-3.53,3.67-4.64,1.56-1.12,3.31-1.67,5.26-1.67s3.69.56,5.24,1.67c1.55,1.12,2.77,2.66,3.65,4.64.89,1.98,1.33,4.27,1.33,6.86s-.44,4.87-1.31,6.84-2.09,3.5-3.64,4.61c-1.55,1.1-3.32,1.66-5.31,1.66ZM358.84,563.67c1.27,0,2.36-.37,3.26-1.12.9-.74,1.6-1.81,2.09-3.2.49-1.39.74-3.02.74-4.9s-.25-3.5-.74-4.9c-.49-1.39-1.19-2.47-2.09-3.24-.9-.77-1.99-1.15-3.26-1.15s-2.3.38-3.22,1.15c-.92.77-1.63,1.85-2.12,3.24-.49,1.39-.74,3.02-.74,4.9s.25,3.5.74,4.9c.49,1.39,1.2,2.46,2.12,3.2s2,1.12,3.22,1.12Z" fill="#faf7f0"/><path d="M378.83,567.02c-.74,0-1.37-.22-1.89-.67-.52-.44-.77-1.1-.77-1.96,0-1.25.22-2.38.67-3.38.44-1.01,1.04-1.92,1.8-2.74.76-.82,1.58-1.57,2.48-2.25.9-.68,1.78-1.34,2.65-1.96.91-.62,1.76-1.24,2.54-1.85.78-.61,1.41-1.24,1.89-1.89.48-.65.72-1.36.72-2.12,0-.65-.17-1.2-.5-1.66-.34-.46-.8-.81-1.4-1.06-.6-.25-1.32-.38-2.16-.38-.91,0-1.67.13-2.29.4-.61.26-1.1.62-1.48,1.08-.37.46-.67.97-.88,1.55-.19.53-.44.92-.76,1.17-.31.25-.7.38-1.15.38-.55,0-1.01-.2-1.37-.59-.36-.4-.54-.88-.54-1.46.02-.79.26-1.56.72-2.3.46-.74,1.08-1.42,1.87-2.02s1.72-1.08,2.79-1.44c1.07-.36,2.23-.54,3.47-.54,1.51,0,2.86.28,4.03.85,1.18.56,2.11,1.36,2.79,2.39.68,1.03,1.04,2.23,1.06,3.6.02,1.1-.16,2.1-.56,2.99-.4.89-.93,1.69-1.6,2.41s-1.42,1.39-2.23,2c-.82.61-1.64,1.21-2.48,1.78-.84.58-1.66,1.15-2.45,1.73s-1.45,1.18-1.96,1.8c-.52.62-.77,1.33-.77,2.12v.07l10.62-.04c.58,0,1.06.2,1.44.59.38.4.58.87.58,1.42s-.19,1.02-.58,1.4-.86.58-1.44.58h-12.85Z" fill="#faf7f0"/><path d="M414.39,567.38c-.58,0-1.07-.2-1.49-.61s-.62-.9-.59-1.48l.36-21.28,2.63.29-11.81,14-1.62-1.91,16.42-.14c.58,0,1.06.18,1.46.54.4.36.59.82.59,1.37s-.2,1.07-.59,1.48c-.4.41-.88.61-1.46.61h-16.13c-.62,0-1.18-.22-1.67-.67-.49-.44-.74-1-.74-1.67,0-.33.08-.68.23-1.04.16-.36.34-.68.56-.97l10.98-13.25c.38-.48.78-.8,1.19-.97s.83-.25,1.26-.25c.89,0,1.53.23,1.93.68.4.46.59.96.59,1.51v21.67c0,.58-.2,1.07-.61,1.48s-.9.61-1.48.61Z" fill="#faf7f0"/><rect x="24.9" y="201.7" width="603.46" height="56.73" fill="none"/><path d="M119.26,227.6c-.56,0-1.01-.16-1.36-.49-.35-.33-.58-.72-.68-1.17s-.08-.87.09-1.24l7.7-20.72c.19-.54.47-.93.86-1.19.39-.26.83-.39,1.35-.39s.95.12,1.31.37c.36.25.65.65.86,1.21l7.7,20.72c.14.42.16.85.05,1.3s-.33.82-.68,1.14-.79.47-1.33.47c-.44,0-.85-.12-1.22-.37-.37-.25-.63-.57-.77-.96l-6.44-19.42h1.01l-6.48,19.42c-.12.4-.36.72-.73.96-.37.25-.78.37-1.23.37ZM121.15,221.09v-3.78h11.73v3.78h-11.73Z" fill="#1c352d"/><path d="M167.38,227.78c-2.17,0-4.08-.52-5.72-1.56-1.65-1.04-2.93-2.51-3.85-4.43-.92-1.91-1.38-4.19-1.38-6.83,0-1.84.26-3.54.77-5.09s1.24-2.9,2.17-4.04c.93-1.14,2.04-2.03,3.32-2.66,1.28-.63,2.69-.94,4.23-.94,1,0,1.96.12,2.87.37.91.25,1.73.6,2.45,1.07.72.47,1.31,1.03,1.75,1.68.44.65.7,1.38.77,2.17.07.61-.06,1.11-.4,1.51-.34.4-.81.59-1.42.59-.49,0-.89-.12-1.19-.37-.3-.25-.56-.57-.77-.96-.28-.7-.71-1.26-1.29-1.68-.58-.42-1.4-.63-2.45-.63-1.33,0-2.49.37-3.48,1.1-.99.74-1.76,1.77-2.31,3.1s-.82,2.94-.82,4.83.28,3.37.84,4.73c.56,1.35,1.35,2.4,2.36,3.13,1.01.73,2.21,1.1,3.59,1.1.93,0,1.74-.16,2.43-.49.69-.33,1.25-.75,1.7-1.26v-4.41h-2.42c-.58,0-1.1-.19-1.56-.56-.45-.37-.68-.84-.68-1.4s.23-1.06.68-1.42c.46-.36.99-.53,1.59-.51l4.69.04c.63,0,1.1.16,1.42.47s.47.8.47,1.45v6.69c0,.3-.02.55-.07.75-.05.2-.14.39-.28.58-.86,1.19-1.96,2.13-3.29,2.83-1.33.7-2.9,1.05-4.73,1.05Z" fill="#1c352d"/><path d="M193.28,227.78c-1.33,0-2.57-.24-3.71-.72-1.14-.48-2.14-1.15-2.99-2.01-.85-.86-1.52-1.87-2-3.01-.48-1.14-.72-2.37-.72-3.68v-13.86c0-.61.2-1.11.6-1.5.4-.4.9-.6,1.5-.6s1.11.2,1.5.6c.4.4.6.9.6,1.5v14.04c0,1.03.22,1.94.67,2.75.44.8,1.06,1.44,1.85,1.91.79.47,1.69.7,2.69.7s1.9-.23,2.68-.7c.78-.47,1.4-1.1,1.85-1.91.46-.81.68-1.72.68-2.75v-14.04c0-.61.2-1.11.6-1.5s.9-.6,1.5-.6,1.11.2,1.5.6c.4.4.6.9.6,1.5v13.86c0,1.31-.24,2.53-.72,3.68-.48,1.14-1.14,2.15-1.99,3.01-.85.86-1.85,1.53-2.99,2.01-1.14.48-2.38.72-3.71.72Z" fill="#1c352d"/><path d="M213.69,227.6c-.61,0-1.11-.2-1.5-.6-.4-.4-.6-.9-.6-1.5v-21c0-.61.2-1.11.6-1.5s.9-.6,1.5-.6,1.1.2,1.49.6c.38.4.58.9.58,1.5v21c0,.61-.19,1.11-.58,1.5-.39.4-.88.6-1.49.6Z" fill="#1c352d"/><path d="M226.95,227.25c-.61,0-1.11-.2-1.5-.6-.4-.4-.6-.9-.6-1.5v-20.3c0-.61.2-1.11.6-1.5s.9-.6,1.5-.6h6.86c2.01,0,3.74.52,5.2,1.58,1.46,1.05,2.58,2.5,3.36,4.36s1.17,3.97,1.17,6.35-.41,4.59-1.24,6.42c-.83,1.83-2.01,3.25-3.55,4.27s-3.38,1.52-5.53,1.52h-6.27ZM229.02,223.44h4.17c1.35,0,2.49-.33,3.41-1,.92-.67,1.6-1.63,2.05-2.89.44-1.26.67-2.75.67-4.48s-.22-3.23-.67-4.5c-.44-1.27-1.08-2.26-1.92-2.96-.84-.7-1.87-1.05-3.08-1.05h-4.62v16.87Z" fill="#1c352d"/><path d="M253.41,227.25c-.61,0-1.11-.2-1.5-.6-.4-.4-.6-.89-.6-1.47v-20.33c0-.61.19-1.11.58-1.5.39-.4.88-.6,1.49-.6h2.1v24.5h-2.06ZM254,216.58v-3.82h9.45c.56,0,1.02.18,1.37.54s.52.82.52,1.38-.17,1.02-.52,1.36c-.35.35-.81.53-1.37.53h-9.45ZM254.14,206.53v-3.78h10.61c.56,0,1.01.17,1.36.52s.52.81.52,1.37-.17,1.01-.52,1.36-.81.52-1.36.52h-10.61ZM254.46,227.25v-3.88h10.64c.56,0,1.02.17,1.37.52s.52.82.52,1.4-.17,1.03-.52,1.4c-.35.37-.81.56-1.37.56h-10.64Z" fill="#1c352d"/><path d="M287.6,206.74c-.56,0-1.03-.19-1.42-.58s-.58-.86-.58-1.42.19-1.06.58-1.44c.38-.37.86-.56,1.42-.56h15.02c.56,0,1.03.19,1.42.56.38.37.58.85.58,1.44s-.19,1.03-.58,1.42c-.39.38-.86.58-1.42.58h-15.02ZM295.09,227.6c-.58,0-1.07-.2-1.47-.6-.4-.4-.6-.9-.6-1.5v-20.65h4.17v20.65c0,.61-.19,1.11-.58,1.5-.39.4-.89.6-1.52.6Z" fill="#1c352d"/><path d="M320.33,227.78c-2.08,0-3.9-.54-5.48-1.61-1.57-1.07-2.81-2.57-3.69-4.48-.89-1.91-1.33-4.13-1.33-6.65s.45-4.74,1.35-6.67c.9-1.93,2.15-3.43,3.75-4.52,1.6-1.08,3.41-1.63,5.44-1.63s3.87.54,5.44,1.63c1.58,1.08,2.81,2.59,3.71,4.52.9,1.92,1.35,4.15,1.35,6.67s-.44,4.74-1.33,6.65c-.89,1.91-2.12,3.41-3.71,4.48-1.59,1.07-3.42,1.61-5.5,1.61ZM320.33,224c1.33,0,2.46-.36,3.4-1.08s1.65-1.76,2.15-3.12c.5-1.35.75-2.94.75-4.76s-.25-3.41-.75-4.76c-.5-1.35-1.22-2.4-2.15-3.15-.93-.75-2.06-1.12-3.4-1.12s-2.43.37-3.38,1.12c-.94.75-1.67,1.8-2.17,3.15-.5,1.35-.75,2.94-.75,4.76s.25,3.41.75,4.76c.5,1.35,1.23,2.39,2.17,3.12.95.72,2.07,1.08,3.38,1.08Z" fill="#1c352d"/><path d="M354.28,227.6c-.58,0-1.08-.2-1.49-.61-.41-.41-.61-.9-.61-1.49v-20.65c0-.61.2-1.11.61-1.5.41-.4.9-.6,1.49-.6h2.06v22.75c0,.58-.2,1.08-.59,1.49-.4.41-.89.61-1.47.61ZM355.36,217.21v-3.78h6.79c1.03,0,1.85-.31,2.47-.93.62-.62.93-1.42.93-2.4,0-1.14-.36-2.02-1.08-2.62-.72-.61-1.58-.91-2.55-.91h-6.58v-3.81h6.79c1.47,0,2.78.3,3.94.91,1.15.61,2.06,1.46,2.73,2.55.67,1.1,1,2.37,1,3.81s-.33,2.68-.98,3.76-1.53,1.92-2.64,2.52-2.35.89-3.73.89h-7.07ZM368.31,227.6c-.4,0-.76-.1-1.08-.31-.33-.21-.57-.48-.73-.81l-5.04-10.67,3.99-.74,4.65,9.59c.14.26.21.56.21.91,0,.54-.19,1.01-.58,1.42-.38.41-.86.61-1.42.61Z" fill="#1c352d"/><path d="M385.95,227.78c-.54,0-.99-.21-1.35-.63s-.65-.92-.86-1.5l-7.42-20.51c-.16-.4-.19-.8-.07-1.21.12-.41.34-.76.68-1.07.34-.3.79-.46,1.35-.46.47,0,.88.13,1.23.39.35.26.59.59.73,1.01l6.44,18.97h-1.44l6.44-18.97c.14-.42.39-.76.75-1.01.36-.26.78-.39,1.24-.39.54,0,.98.15,1.33.44.35.29.58.65.7,1.07.12.42.09.83-.07,1.23l-7.46,20.51c-.21.58-.5,1.08-.86,1.5-.36.42-.82.63-1.38.63Z" fill="#1c352d"/><path d="M418.01,227.25c-.58,0-1.08-.2-1.49-.61s-.61-.9-.61-1.49v-20.65c0-.58.19-1.08.58-1.49.38-.41.87-.61,1.45-.61s1.06.2,1.49.61.65.9.65,1.49v18.87h8.54c.56,0,1.01.17,1.37.52.35.35.52.82.52,1.4s-.17,1.03-.52,1.4c-.35.37-.8.56-1.37.56h-10.6Z" fill="#1c352d"/><path d="M440.03,227.6c-.61,0-1.11-.2-1.51-.6s-.59-.9-.59-1.5v-21c0-.61.2-1.11.59-1.5.4-.4.9-.6,1.51-.6s1.1.2,1.49.6c.38.4.58.9.58,1.5v21c0,.61-.19,1.11-.58,1.5s-.88.6-1.49.6Z" fill="#1c352d"/><path d="M458.86,227.78c-.54,0-.99-.21-1.35-.63s-.65-.92-.86-1.5l-7.42-20.51c-.16-.4-.19-.8-.07-1.21.12-.41.34-.76.68-1.07.34-.3.79-.46,1.35-.46.47,0,.88.13,1.23.39.35.26.59.59.73,1.01l6.44,18.97h-1.44l6.44-18.97c.14-.42.39-.76.75-1.01.36-.26.78-.39,1.24-.39.54,0,.98.15,1.33.44.35.29.58.65.7,1.07.12.42.09.83-.07,1.23l-7.46,20.51c-.21.58-.5,1.08-.86,1.5-.36.42-.82.63-1.38.63Z" fill="#1c352d"/><path d="M477.79,227.6c-.61,0-1.11-.2-1.51-.6s-.59-.9-.59-1.5v-21c0-.61.2-1.11.59-1.5.4-.4.9-.6,1.51-.6s1.1.2,1.49.6c.38.4.58.9.58,1.5v21c0,.61-.19,1.11-.58,1.5s-.88.6-1.49.6Z" fill="#1c352d"/><path d="M491.06,227.6c-.61,0-1.11-.2-1.51-.6s-.59-.9-.59-1.5v-20.83c0-.75.21-1.31.63-1.7.42-.39.89-.58,1.4-.58.58,0,1.03.14,1.33.42.3.28.58.63.84,1.05l10.96,17.29-.74,1.54-.28-18.2c-.02-.61.16-1.11.56-1.5.4-.4.91-.6,1.54-.6s1.1.2,1.49.6c.38.4.58.9.58,1.5v21c0,.58-.21,1.08-.61,1.49-.41.41-.89.61-1.45.61-.47,0-.87-.1-1.21-.3-.34-.2-.61-.46-.82-.79l-11.72-18.17,1.43-.46.28,17.6c0,.61-.19,1.11-.58,1.5-.39.4-.89.6-1.52.6Z" fill="#1c352d"/><path d="M526.44,227.78c-2.17,0-4.08-.52-5.72-1.56-1.64-1.04-2.93-2.51-3.85-4.43-.92-1.91-1.38-4.19-1.38-6.83,0-1.84.26-3.54.77-5.09.51-1.55,1.24-2.9,2.17-4.04.93-1.14,2.04-2.03,3.33-2.66,1.28-.63,2.69-.94,4.23-.94,1,0,1.96.12,2.87.37.91.25,1.73.6,2.45,1.07.72.47,1.31,1.03,1.75,1.68.44.65.7,1.38.77,2.17.07.61-.06,1.11-.4,1.51-.34.4-.81.59-1.42.59-.49,0-.89-.12-1.19-.37-.3-.25-.56-.57-.77-.96-.28-.7-.71-1.26-1.29-1.68-.58-.42-1.4-.63-2.45-.63-1.33,0-2.49.37-3.48,1.1-.99.74-1.76,1.77-2.31,3.1s-.82,2.94-.82,4.83.28,3.37.84,4.73c.56,1.35,1.35,2.4,2.36,3.13,1.02.73,2.21,1.1,3.59,1.1.93,0,1.74-.16,2.43-.49.69-.33,1.25-.75,1.7-1.26v-4.41h-2.42c-.58,0-1.1-.19-1.56-.56s-.68-.84-.68-1.4.23-1.06.68-1.42c.46-.36.99-.53,1.59-.51l4.69.04c.63,0,1.1.16,1.42.47s.47.8.47,1.45v6.69c0,.3-.02.55-.07.75-.05.2-.14.39-.28.58-.86,1.19-1.96,2.13-3.29,2.83-1.33.7-2.91,1.05-4.73,1.05Z" fill="#1c352d"/><rect x="22.9" y="199.7" width="603.46" height="56.73" fill="none"/><path d="M117.26,225.6c-.56,0-1.01-.16-1.36-.49-.35-.33-.58-.72-.68-1.17s-.08-.87.09-1.24l7.7-20.72c.19-.54.47-.93.86-1.19.39-.26.83-.39,1.35-.39s.95.12,1.31.37c.36.25.65.65.86,1.21l7.7,20.72c.14.42.16.85.05,1.3s-.33.82-.68,1.14-.79.47-1.33.47c-.44,0-.85-.12-1.22-.37-.37-.25-.63-.57-.77-.96l-6.44-19.42h1.01l-6.48,19.42c-.12.4-.36.72-.73.96-.37.25-.78.37-1.23.37ZM119.15,219.09v-3.78h11.73v3.78h-11.73Z" fill="#faf7f0"/><path d="M165.38,225.78c-2.17,0-4.08-.52-5.72-1.56-1.65-1.04-2.93-2.51-3.85-4.43-.92-1.91-1.38-4.19-1.38-6.83,0-1.84.26-3.54.77-5.09s1.24-2.9,2.17-4.04c.93-1.14,2.04-2.03,3.32-2.66,1.28-.63,2.69-.94,4.23-.94,1,0,1.96.12,2.87.37.91.25,1.73.6,2.45,1.07.72.47,1.31,1.03,1.75,1.68.44.65.7,1.38.77,2.17.07.61-.06,1.11-.4,1.51-.34.4-.81.59-1.42.59-.49,0-.89-.12-1.19-.37-.3-.25-.56-.57-.77-.96-.28-.7-.71-1.26-1.29-1.68-.58-.42-1.4-.63-2.45-.63-1.33,0-2.49.37-3.48,1.1-.99.74-1.76,1.77-2.31,3.1s-.82,2.94-.82,4.83.28,3.37.84,4.73c.56,1.35,1.35,2.4,2.36,3.13,1.01.73,2.21,1.1,3.59,1.1.93,0,1.74-.16,2.43-.49.69-.33,1.25-.75,1.7-1.26v-4.41h-2.42c-.58,0-1.1-.19-1.56-.56-.45-.37-.68-.84-.68-1.4s.23-1.06.68-1.42c.46-.36.99-.53,1.59-.51l4.69.04c.63,0,1.1.16,1.42.47s.47.8.47,1.45v6.69c0,.3-.02.55-.07.75-.05.2-.14.39-.28.58-.86,1.19-1.96,2.13-3.29,2.83-1.33.7-2.9,1.05-4.73,1.05Z" fill="#faf7f0"/><path d="M191.28,225.78c-1.33,0-2.57-.24-3.71-.72-1.14-.48-2.14-1.15-2.99-2.01-.85-.86-1.52-1.87-2-3.01-.48-1.14-.72-2.37-.72-3.68v-13.86c0-.61.2-1.11.6-1.5.4-.4.9-.6,1.5-.6s1.11.2,1.5.6c.4.4.6.9.6,1.5v14.04c0,1.03.22,1.94.67,2.75.44.8,1.06,1.44,1.85,1.91.79.47,1.69.7,2.69.7s1.9-.23,2.68-.7c.78-.47,1.4-1.1,1.85-1.91.46-.81.68-1.72.68-2.75v-14.04c0-.61.2-1.11.6-1.5s.9-.6,1.5-.6,1.11.2,1.5.6c.4.4.6.9.6,1.5v13.86c0,1.31-.24,2.53-.72,3.68-.48,1.14-1.14,2.15-1.99,3.01-.85.86-1.85,1.53-2.99,2.01-1.14.48-2.38.72-3.71.72Z" fill="#faf7f0"/><path d="M211.69,225.6c-.61,0-1.11-.2-1.5-.6-.4-.4-.6-.9-.6-1.5v-21c0-.61.2-1.11.6-1.5s.9-.6,1.5-.6,1.1.2,1.49.6c.38.4.58.9.58,1.5v21c0,.61-.19,1.11-.58,1.5-.39.4-.88.6-1.49.6Z" fill="#faf7f0"/><path d="M224.95,225.25c-.61,0-1.11-.2-1.5-.6-.4-.4-.6-.9-.6-1.5v-20.3c0-.61.2-1.11.6-1.5s.9-.6,1.5-.6h6.86c2.01,0,3.74.52,5.2,1.58,1.46,1.05,2.58,2.5,3.36,4.36s1.17,3.97,1.17,6.35-.41,4.59-1.24,6.42c-.83,1.83-2.01,3.25-3.55,4.27s-3.38,1.52-5.53,1.52h-6.27ZM227.02,221.44h4.17c1.35,0,2.49-.33,3.41-1,.92-.67,1.6-1.63,2.05-2.89.44-1.26.67-2.75.67-4.48s-.22-3.23-.67-4.5c-.44-1.27-1.08-2.26-1.92-2.96-.84-.7-1.87-1.05-3.08-1.05h-4.62v16.87Z" fill="#faf7f0"/><path d="M251.41,225.25c-.61,0-1.11-.2-1.5-.6-.4-.4-.6-.89-.6-1.47v-20.33c0-.61.19-1.11.58-1.5.39-.4.88-.6,1.49-.6h2.1v24.5h-2.06ZM252,214.58v-3.82h9.45c.56,0,1.02.18,1.37.54s.52.82.52,1.38-.17,1.02-.52,1.36c-.35.35-.81.53-1.37.53h-9.45ZM252.14,204.53v-3.78h10.61c.56,0,1.01.17,1.36.52s.52.81.52,1.37-.17,1.01-.52,1.36-.81.52-1.36.52h-10.61ZM252.46,225.25v-3.88h10.64c.56,0,1.02.17,1.37.52s.52.82.52,1.4-.17,1.03-.52,1.4c-.35.37-.81.56-1.37.56h-10.64Z" fill="#faf7f0"/><path d="M285.6,204.74c-.56,0-1.03-.19-1.42-.58s-.58-.86-.58-1.42.19-1.06.58-1.44c.38-.37.86-.56,1.42-.56h15.02c.56,0,1.03.19,1.42.56.38.37.58.85.58,1.44s-.19,1.03-.58,1.42c-.39.38-.86.58-1.42.58h-15.02ZM293.09,225.6c-.58,0-1.07-.2-1.47-.6-.4-.4-.6-.9-.6-1.5v-20.65h4.17v20.65c0,.61-.19,1.11-.58,1.5-.39.4-.89.6-1.52.6Z" fill="#faf7f0"/><path d="M318.33,225.78c-2.08,0-3.9-.54-5.48-1.61-1.57-1.07-2.81-2.57-3.69-4.48-.89-1.91-1.33-4.13-1.33-6.65s.45-4.74,1.35-6.67c.9-1.93,2.15-3.43,3.75-4.52,1.6-1.08,3.41-1.63,5.44-1.63s3.87.54,5.44,1.63c1.58,1.08,2.81,2.59,3.71,4.52.9,1.92,1.35,4.15,1.35,6.67s-.44,4.74-1.33,6.65c-.89,1.91-2.12,3.41-3.71,4.48-1.59,1.07-3.42,1.61-5.5,1.61ZM318.33,222c1.33,0,2.46-.36,3.4-1.08s1.65-1.76,2.15-3.12c.5-1.35.75-2.94.75-4.76s-.25-3.41-.75-4.76c-.5-1.35-1.22-2.4-2.15-3.15-.93-.75-2.06-1.12-3.4-1.12s-2.43.37-3.38,1.12c-.94.75-1.67,1.8-2.17,3.15-.5,1.35-.75,2.94-.75,4.76s.25,3.41.75,4.76c.5,1.35,1.23,2.39,2.17,3.12.95.72,2.07,1.08,3.38,1.08Z" fill="#faf7f0"/><path d="M352.28,225.6c-.58,0-1.08-.2-1.49-.61-.41-.41-.61-.9-.61-1.49v-20.65c0-.61.2-1.11.61-1.5.41-.4.9-.6,1.49-.6h2.06v22.75c0,.58-.2,1.08-.59,1.49-.4.41-.89.61-1.47.61ZM353.36,215.21v-3.78h6.79c1.03,0,1.85-.31,2.47-.93.62-.62.93-1.42.93-2.4,0-1.14-.36-2.02-1.08-2.62-.72-.61-1.58-.91-2.55-.91h-6.58v-3.81h6.79c1.47,0,2.78.3,3.94.91,1.15.61,2.06,1.46,2.73,2.55.67,1.1,1,2.37,1,3.81s-.33,2.68-.98,3.76-1.53,1.92-2.64,2.52-2.35.89-3.73.89h-7.07ZM366.31,225.6c-.4,0-.76-.1-1.08-.31-.33-.21-.57-.48-.73-.81l-5.04-10.67,3.99-.74,4.65,9.59c.14.26.21.56.21.91,0,.54-.19,1.01-.58,1.42-.38.41-.86.61-1.42.61Z" fill="#faf7f0"/><path d="M383.95,225.78c-.54,0-.99-.21-1.35-.63s-.65-.92-.86-1.5l-7.42-20.51c-.16-.4-.19-.8-.07-1.21.12-.41.34-.76.68-1.07.34-.3.79-.46,1.35-.46.47,0,.88.13,1.23.39.35.26.59.59.73,1.01l6.44,18.97h-1.44l6.44-18.97c.14-.42.39-.76.75-1.01.36-.26.78-.39,1.24-.39.54,0,.98.15,1.33.44.35.29.58.65.7,1.07.12.42.09.83-.07,1.23l-7.46,20.51c-.21.58-.5,1.08-.86,1.5-.36.42-.82.63-1.38.63Z" fill="#faf7f0"/><path d="M416.01,225.25c-.58,0-1.08-.2-1.49-.61s-.61-.9-.61-1.49v-20.65c0-.58.19-1.08.58-1.49.38-.41.87-.61,1.45-.61s1.06.2,1.49.61.65.9.65,1.49v18.87h8.54c.56,0,1.01.17,1.37.52.35.35.52.82.52,1.4s-.17,1.03-.52,1.4c-.35.37-.8.56-1.37.56h-10.6Z" fill="#faf7f0"/><path d="M438.03,225.6c-.61,0-1.11-.2-1.51-.6s-.59-.9-.59-1.5v-21c0-.61.2-1.11.59-1.5.4-.4.9-.6,1.51-.6s1.1.2,1.49.6c.38.4.58.9.58,1.5v21c0,.61-.19,1.11-.58,1.5s-.88.6-1.49.6Z" fill="#faf7f0"/><path d="M456.86,225.78c-.54,0-.99-.21-1.35-.63s-.65-.92-.86-1.5l-7.42-20.51c-.16-.4-.19-.8-.07-1.21.12-.41.34-.76.68-1.07.34-.3.79-.46,1.35-.46.47,0,.88.13,1.23.39.35.26.59.59.73,1.01l6.44,18.97h-1.44l6.44-18.97c.14-.42.39-.76.75-1.01.36-.26.78-.39,1.24-.39.54,0,.98.15,1.33.44.35.29.58.65.7,1.07.12.42.09.83-.07,1.23l-7.46,20.51c-.21.58-.5,1.08-.86,1.5-.36.42-.82.63-1.38.63Z" fill="#faf7f0"/><path d="M475.79,225.6c-.61,0-1.11-.2-1.51-.6s-.59-.9-.59-1.5v-21c0-.61.2-1.11.59-1.5.4-.4.9-.6,1.51-.6s1.1.2,1.49.6c.38.4.58.9.58,1.5v21c0,.61-.19,1.11-.58,1.5s-.88.6-1.49.6Z" fill="#faf7f0"/><path d="M489.06,225.6c-.61,0-1.11-.2-1.51-.6s-.59-.9-.59-1.5v-20.83c0-.75.21-1.31.63-1.7.42-.39.89-.58,1.4-.58.58,0,1.03.14,1.33.42.3.28.58.63.84,1.05l10.96,17.29-.74,1.54-.28-18.2c-.02-.61.16-1.11.56-1.5.4-.4.91-.6,1.54-.6s1.1.2,1.49.6c.38.4.58.9.58,1.5v21c0,.58-.21,1.08-.61,1.49-.41.41-.89.61-1.45.61-.47,0-.87-.1-1.21-.3-.34-.2-.61-.46-.82-.79l-11.72-18.17,1.43-.46.28,17.6c0,.61-.19,1.11-.58,1.5-.39.4-.89.6-1.52.6Z" fill="#faf7f0"/><path d="M524.44,225.78c-2.17,0-4.08-.52-5.72-1.56-1.64-1.04-2.93-2.51-3.85-4.43-.92-1.91-1.38-4.19-1.38-6.83,0-1.84.26-3.54.77-5.09.51-1.55,1.24-2.9,2.17-4.04.93-1.14,2.04-2.03,3.33-2.66,1.28-.63,2.69-.94,4.23-.94,1,0,1.96.12,2.87.37.91.25,1.73.6,2.45,1.07.72.47,1.31,1.03,1.75,1.68.44.65.7,1.38.77,2.17.07.61-.06,1.11-.4,1.51-.34.4-.81.59-1.42.59-.49,0-.89-.12-1.19-.37-.3-.25-.56-.57-.77-.96-.28-.7-.71-1.26-1.29-1.68-.58-.42-1.4-.63-2.45-.63-1.33,0-2.49.37-3.48,1.1-.99.74-1.76,1.77-2.31,3.1s-.82,2.94-.82,4.83.28,3.37.84,4.73c.56,1.35,1.35,2.4,2.36,3.13,1.02.73,2.21,1.1,3.59,1.1.93,0,1.74-.16,2.43-.49.69-.33,1.25-.75,1.7-1.26v-4.41h-2.42c-.58,0-1.1-.19-1.56-.56s-.68-.84-.68-1.4.23-1.06.68-1.42c.46-.36.99-.53,1.59-.51l4.69.04c.63,0,1.1.16,1.42.47s.47.8.47,1.45v6.69c0,.3-.02.55-.07.75-.05.2-.14.39-.28.58-.86,1.19-1.96,2.13-3.29,2.83-1.33.7-2.91,1.05-4.73,1.05Z" fill="#faf7f0"/></svg>