<?xml version="1.0" encoding="UTF-8"?><svg xmlns="http://www.w3.org/2000/svg" xmlns:xlink="http://www.w3.org/1999/xlink" viewBox="0 0 792 612"><defs><clipPath id="clippath"><rect x="852" y="664.07" width="306" height="396" fill="none"/></clipPath></defs><g id="Potty_Tokens"><circle cx="92.54" cy="96.67" r="51.46" fill="#54c5cc" stroke="#009eac" stroke-miterlimit="10" stroke-width="5"/><path d="M111.72,93.01s-.19,2.87-1.34,3.63c-1.15.77-5.55,1.34-5.55,1.34,0,0-1.06,6.88-.92,13.16.1,4.61,2.14,9.41,1.82,10.56-.32,1.15-3.95,3.06-8.92,3.82-4.97.76-13.45,0-14.6-1.34-1.15-1.34,1.72-4.59,1.34-8.41-.4-4.01-5.68-5.81-9.18-11.09-2.78-4.21-3.82-7.27-1.15-9.37,2.68-2.1,23.01-3.82,23.01-3.82l15.49,1.53h0Z" fill="#dfe5f4" stroke="#6d6e71" stroke-miterlimit="10" stroke-width=".5"/><path d="M114.53,93.01c-.51,1.35-5.9,2.29-8.45,2.29-3.06,0-12.78-1.29-14.06-2.82-1.27-1.53-2.77-23.65-2.52-25.43.25-1.78,7.11-3.22,12.75-3.2,6.17.02,14.51,1.04,15.78,3.08,1.27,2.04-2.75,24.04-3.51,26.08h0Z" fill="#dfe5f4" stroke="#6d6e71" stroke-miterlimit="10" stroke-width=".5"/><path d="M106.85,68.46c-3.9,0-17.22-1.27-17.36-1.29-.06,0-.11-.06-.1-.12,0-.06.06-.11.12-.1.13.01,13.44,1.29,17.34,1.29.03,0,.06,0,.09,0,2.36-.01,11-1.39,11.08-1.41.06,0,.12.03.13.09,0,.06-.03.12-.09.13-.09.01-8.74,1.4-11.12,1.41-.03,0-.06,0-.09,0h0Z" fill="#bbc9e8" stroke="#6d6e71" stroke-miterlimit="10" stroke-width=".5"/><path d="M102.1,64.74c0,.19.81.35,1.82.35s1.82-.16,1.82-.35-.81-.35-1.82-.35-1.82.16-1.82.35h0Z" fill="#bbc9e8" stroke="#6d6e71" stroke-miterlimit="10" stroke-width=".5"/><path d="M105.44,95.42c-3.3,0-10.24-.09-13.49-2.84-.05-.04-.05-.11-.01-.16.04-.05.11-.05.16-.01,3.3,2.8,10.59,2.8,13.69,2.79h.29c2.94,0,5.34-.73,5.36-.74.06-.02.12.02.14.07.02.06-.01.12-.07.14-.02,0-2.46.75-5.43.75h-.29c-.11,0-.23,0-.35,0h0Z" fill="#bbc9e8" stroke="#6d6e71" stroke-miterlimit="10" stroke-width=".5"/><path d="M89.48,112.25s-.06-.01-.09-.04c-.04-.05-.03-.12.01-.16,5.83-4.85,9.29-10.23,9.32-10.29.03-.05.1-.07.15-.03.05.03.07.1.03.15-.03.05-3.51,5.46-9.37,10.34-.02.02-.05.03-.07.03h0Z" fill="#bbc9e8" stroke="#6d6e71" stroke-miterlimit="10" stroke-width=".5"/><path d="M85.84,102.8c-1.14,0-2.29-.04-3.45-.11-.06,0-.11-.06-.1-.12,0-.06.05-.11.12-.1,11.13.75,21.78-2.51,21.88-2.54.06-.02.12.01.14.07.02.06-.01.12-.07.14-.1.03-8.69,2.66-18.52,2.66h0Z" fill="#bbc9e8" stroke="#6d6e71" stroke-miterlimit="10" stroke-width=".5"/><path d="M97.57,120.86s-.02,0-.02,0c-.06-.01-.1-.07-.09-.13l4.31-19.92c.01-.06.07-.1.13-.09.06.01.1.07.09.13l-4.31,19.92c-.01.05-.06.09-.11.09h0Z" fill="#bbc9e8" stroke="#6d6e71" stroke-miterlimit="10" stroke-width=".5"/><path d="M74.13,101.47s-.02,0-.03,0c-1.25-.4-2.19-1.32-2.22-1.36-.04-.04-.04-.11,0-.16.04-.04.11-.04.16,0,0,0,.93.91,2.14,1.3.06.02.09.08.07.14-.02.05-.06.08-.11.08h0Z" fill="#bbc9e8" stroke="#6d6e71" stroke-miterlimit="10" stroke-width=".5"/><path d="M88.52,91.74c-3.55.24-12.39,1.08-16.13,3.57-1.92,1.28-2.01,2.82-1.59,3.44.87,1.28,3.44,2.26,9.37,2.61,5.93.35,17.4-.7,20.08-1.94,0,0,.38-.92.7-1.24.32-.32,1.1-.89-1.22-1.85-9.3-3.84-9.42-4.71-11.21-4.59h0Z" fill="#f5f7fc" stroke="#6d6e71" stroke-miterlimit="10" stroke-width=".5"/><path d="M101.44,97.17s2.85-.51,2.89-9.41c.04-7.65-1.59-21.13-9.34-21.32-7.75-.19-7.58,22.81-5.51,25.37l11.96,5.37h0Z" fill="#f5f7fc" stroke="#6d6e71" stroke-miterlimit="10" stroke-width=".5"/><path d="M96.29,97.17c-.51.88-18.17,2.6-21.35.5-3.7-2.44,10.84-4.43,12.88-4.4,1.5.02,9.2,2.64,8.48,3.9h0Z" fill="#dfe5f4" stroke="#6d6e71" stroke-miterlimit="10" stroke-width=".5"/><path d="M101.15,97.28s-.03,0-.05-.01c-.11-.05-11.03-5.08-11.67-5.37-.06-.03-.08-.09-.06-.15.03-.06.09-.08.15-.06.64.29,11.56,5.32,11.67,5.37.06.03.08.09.05.15-.02.04-.06.06-.1.06h0Z" fill="#dfe5f4" stroke="#6d6e71" stroke-miterlimit="10" stroke-width=".5"/><path d="M95.72,99.75c-.05,0-.1-.04-.11-.09-.01-.06.03-.12.09-.13,2.63-.44,5.18-1.45,5.2-1.46.06-.02.12,0,.14.06.02.06,0,.12-.06.14-.03.01-2.59,1.03-5.25,1.47,0,0-.01,0-.02,0h0Z" fill="#dfe5f4" stroke="#6d6e71" stroke-miterlimit="10" stroke-width=".5"/><path d="M100.95,96.38s-.05,0-.07-.03c-.05-.04-.05-.11-.01-.16.02-.03,2.45-3,1.82-10.95,0-.06.04-.11.1-.12.06,0,.12.04.12.1.63,8.05-1.77,10.99-1.87,11.11-.02.03-.05.04-.08.04h0Z" fill="#dfe5f4" stroke="#6d6e71" stroke-miterlimit="10" stroke-width=".5"/><path d="M100.95,74.57s-.09-.03-.11-.08c-.02-.06-1.68-6.34-5.15-7.45-.06-.02-.09-.08-.07-.14.02-.06.08-.09.14-.07,3.59,1.15,5.23,7.34,5.3,7.6.02.06-.02.12-.08.14,0,0-.02,0-.03,0h0Z" fill="#dfe5f4" stroke="#6d6e71" stroke-miterlimit="10" stroke-width=".5"/><path d="M63.34,117.52c-.91.88-2,4.7-2,4.7l1.89,1.05s.93-2.7,1.89-2.54c.96.17,8.32,3.16,8.55,3.97.24.82-.11,3.67-.11,3.67l1.93,1.11,1.99-.52s-.43-3.08.13-3.96c.55-.89,5.66-1.82,6.3-1.57s1.11,3.34,1.11,3.34l2.04-.67s-.45-4.53-1.49-5.82c0,0-21.32-3.65-22.23-2.77h0Z" fill="#7c9cc9" stroke="#6d6e71" stroke-miterlimit="10" stroke-width=".5"/><path d="M85.57,120.29c.72.6-8.78,3.61-9.97,3.61s-12.4-5.51-12.37-6.16c.05-1.07,7.79-2.69,9.01-2.61,1.22.08,12.04,4.06,13.33,5.15h0Z" fill="#93adda" stroke="#6d6e71" stroke-miterlimit="10" stroke-width=".5"/><circle cx="91.46" cy="301.93" r="51.46" fill="#54c5cc" stroke="#009eac" stroke-miterlimit="10" stroke-width="5"/><path d="M110.64,298.28s-.19,2.87-1.34,3.63c-1.15.77-5.55,1.34-5.55,1.34,0,0-1.06,6.88-.92,13.16.1,4.61,2.14,9.41,1.82,10.56-.32,1.15-3.95,3.06-8.92,3.82-4.97.76-13.45,0-14.6-1.34-1.15-1.34,1.72-4.59,1.34-8.41-.4-4.01-5.68-5.81-9.18-11.09-2.78-4.21-3.82-7.27-1.15-9.37,2.68-2.1,23.01-3.82,23.01-3.82l15.49,1.53h0Z" fill="#dfe5f4" stroke="#6d6e71" stroke-miterlimit="10" stroke-width=".5"/><path d="M113.44,298.28c-.51,1.35-5.9,2.29-8.45,2.29-3.06,0-12.78-1.29-14.06-2.82-1.27-1.53-2.77-23.65-2.52-25.43.25-1.78,7.11-3.22,12.75-3.2,6.17.02,14.51,1.04,15.78,3.08,1.27,2.04-2.75,24.04-3.51,26.08h0Z" fill="#dfe5f4" stroke="#6d6e71" stroke-miterlimit="10" stroke-width=".5"/><path d="M105.77,273.72c-3.9,0-17.22-1.27-17.36-1.29-.06,0-.11-.06-.1-.12,0-.06.06-.11.12-.1.13.01,13.44,1.29,17.34,1.29.03,0,.06,0,.09,0,2.36-.01,11-1.39,11.08-1.41.06,0,.12.03.13.09,0,.06-.03.12-.09.13-.09.01-8.74,1.4-11.12,1.41-.03,0-.06,0-.09,0h0Z" fill="#bbc9e8" stroke="#6d6e71" stroke-miterlimit="10" stroke-width=".5"/><path d="M101.01,270.01c0,.19.81.35,1.82.35s1.82-.16,1.82-.35-.81-.35-1.82-.35-1.82.16-1.82.35h0Z" fill="#bbc9e8" stroke="#6d6e71" stroke-miterlimit="10" stroke-width=".5"/><path d="M104.35,300.68c-3.3,0-10.24-.09-13.49-2.84-.05-.04-.05-.11-.01-.16.04-.05.11-.05.16-.01,3.3,2.8,10.59,2.8,13.69,2.79h.29c2.94,0,5.34-.73,5.36-.74.06-.02.12.02.14.07.02.06-.01.12-.07.14-.02,0-2.46.75-5.43.75h-.29c-.11,0-.23,0-.35,0h0Z" fill="#bbc9e8" stroke="#6d6e71" stroke-miterlimit="10" stroke-width=".5"/><path d="M88.39,317.51s-.06-.01-.09-.04c-.04-.05-.03-.12.01-.16,5.83-4.85,9.29-10.23,9.32-10.29.03-.05.1-.07.15-.03.05.03.07.1.03.15-.03.05-3.51,5.46-9.37,10.34-.02.02-.05.03-.07.03h0Z" fill="#bbc9e8" stroke="#6d6e71" stroke-miterlimit="10" stroke-width=".5"/><path d="M84.76,308.06c-1.14,0-2.29-.04-3.45-.11-.06,0-.11-.06-.1-.12,0-.06.05-.11.12-.1,11.13.75,21.78-2.51,21.88-2.54.06-.02.12.01.14.07.02.06-.01.12-.07.14-.1.03-8.69,2.66-18.52,2.66h0Z" fill="#bbc9e8" stroke="#6d6e71" stroke-miterlimit="10" stroke-width=".5"/><path d="M96.49,326.12s-.02,0-.02,0c-.06-.01-.1-.07-.09-.13l4.31-19.92c.01-.06.07-.1.13-.09.06.01.1.07.09.13l-4.31,19.92c-.01.05-.06.09-.11.09h0Z" fill="#bbc9e8" stroke="#6d6e71" stroke-miterlimit="10" stroke-width=".5"/><path d="M73.05,306.74s-.02,0-.03,0c-1.25-.4-2.19-1.32-2.22-1.36-.04-.04-.04-.11,0-.16.04-.04.11-.04.16,0,0,0,.93.91,2.14,1.3.06.02.09.08.07.14-.02.05-.06.08-.11.08h0Z" fill="#bbc9e8" stroke="#6d6e71" stroke-miterlimit="10" stroke-width=".5"/><path d="M87.44,297c-3.55.24-12.39,1.08-16.13,3.57-1.92,1.28-2.01,2.82-1.59,3.44.87,1.28,3.44,2.26,9.37,2.61,5.93.35,17.4-.7,20.08-1.94,0,0,.38-.92.7-1.24.32-.32,1.1-.89-1.22-1.85-9.3-3.84-9.42-4.71-11.21-4.59h0Z" fill="#f5f7fc" stroke="#6d6e71" stroke-miterlimit="10" stroke-width=".5"/><path d="M100.35,302.43s2.85-.51,2.89-9.41c.04-7.65-1.59-21.13-9.34-21.32-7.75-.19-7.58,22.81-5.51,25.37l11.96,5.37h0Z" fill="#f5f7fc" stroke="#6d6e71" stroke-miterlimit="10" stroke-width=".5"/><path d="M95.21,302.43c-.51.88-18.17,2.6-21.35.5-3.7-2.44,10.84-4.43,12.88-4.4,1.5.02,9.2,2.64,8.48,3.9h0Z" fill="#dfe5f4" stroke="#6d6e71" stroke-miterlimit="10" stroke-width=".5"/><path d="M100.07,302.54s-.03,0-.05-.01c-.11-.05-11.03-5.08-11.67-5.37-.06-.03-.08-.09-.06-.15.03-.06.09-.08.15-.06.64.29,11.56,5.32,11.67,5.37.06.03.08.09.05.15-.02.04-.06.06-.1.06h0Z" fill="#dfe5f4" stroke="#6d6e71" stroke-miterlimit="10" stroke-width=".5"/><path d="M94.64,305.02c-.05,0-.1-.04-.11-.09-.01-.06.03-.12.09-.13,2.63-.44,5.18-1.45,5.2-1.46.06-.02.12,0,.14.06.02.06,0,.12-.06.14-.03.01-2.59,1.03-5.25,1.47,0,0-.01,0-.02,0h0Z" fill="#dfe5f4" stroke="#6d6e71" stroke-miterlimit="10" stroke-width=".5"/><path d="M99.87,301.64s-.05,0-.07-.03c-.05-.04-.05-.11-.01-.16.02-.03,2.45-3,1.82-10.95,0-.06.04-.11.1-.12.06,0,.12.04.12.1.63,8.05-1.77,10.99-1.87,11.11-.02.03-.05.04-.08.04h0Z" fill="#dfe5f4" stroke="#6d6e71" stroke-miterlimit="10" stroke-width=".5"/><path d="M99.87,279.84s-.09-.03-.11-.08c-.02-.06-1.68-6.34-5.15-7.45-.06-.02-.09-.08-.07-.14.02-.06.08-.09.14-.07,3.59,1.15,5.23,7.34,5.3,7.6.02.06-.02.12-.08.14,0,0-.02,0-.03,0h0Z" fill="#dfe5f4" stroke="#6d6e71" stroke-miterlimit="10" stroke-width=".5"/><path d="M62.26,322.78c-.91.88-2,4.7-2,4.7l1.89,1.05s.93-2.7,1.89-2.54c.96.17,8.32,3.16,8.55,3.97.24.82-.11,3.67-.11,3.67l1.93,1.11,1.99-.52s-.43-3.08.13-3.96c.55-.89,5.66-1.82,6.3-1.57s1.11,3.34,1.11,3.34l2.04-.67s-.45-4.53-1.49-5.82c0,0-21.32-3.65-22.23-2.77h0Z" fill="#7c9cc9" stroke="#6d6e71" stroke-miterlimit="10" stroke-width=".5"/><path d="M84.49,325.55c.72.6-8.78,3.61-9.97,3.61s-12.4-5.51-12.37-6.16c.05-1.07,7.79-2.69,9.01-2.61,1.22.08,12.04,4.06,13.33,5.15h0Z" fill="#93adda" stroke="#6d6e71" stroke-miterlimit="10" stroke-width=".5"/><circle cx="95.21" cy="507.2" r="51.46" fill="#54c5cc" stroke="#009eac" stroke-miterlimit="10" stroke-width="5"/><path d="M114.39,503.54s-.19,2.87-1.34,3.63c-1.15.77-5.55,1.34-5.55,1.34,0,0-1.06,6.88-.92,13.16.1,4.61,2.14,9.41,1.82,10.56-.32,1.15-3.95,3.06-8.92,3.82-4.97.76-13.45,0-14.6-1.34-1.15-1.34,1.72-4.59,1.34-8.41-.4-4.01-5.68-5.81-9.18-11.09-2.78-4.21-3.82-7.27-1.15-9.37,2.68-2.1,23.01-3.82,23.01-3.82l15.49,1.53h0Z" fill="#dfe5f4" stroke="#6d6e71" stroke-miterlimit="10" stroke-width=".5"/><path d="M117.2,503.54c-.51,1.35-5.9,2.29-8.45,2.29-3.06,0-12.78-1.29-14.06-2.82-1.27-1.53-2.77-23.65-2.52-25.43.25-1.78,7.11-3.22,12.75-3.2,6.17.02,14.51,1.04,15.78,3.08,1.27,2.04-2.75,24.04-3.51,26.08h0Z" fill="#dfe5f4" stroke="#6d6e71" stroke-miterlimit="10" stroke-width=".5"/><path d="M109.52,478.98c-3.9,0-17.22-1.27-17.36-1.29-.06,0-.11-.06-.1-.12,0-.06.06-.11.12-.1.13.01,13.44,1.29,17.34,1.29.03,0,.06,0,.09,0,2.36-.01,11-1.39,11.08-1.41.06,0,.12.03.13.09,0,.06-.03.12-.09.13-.09.01-8.74,1.4-11.12,1.41-.03,0-.06,0-.09,0h0Z" fill="#bbc9e8" stroke="#6d6e71" stroke-miterlimit="10" stroke-width=".5"/><path d="M104.77,475.27c0,.19.81.35,1.82.35s1.82-.16,1.82-.35-.81-.35-1.82-.35-1.82.16-1.82.35h0Z" fill="#bbc9e8" stroke="#6d6e71" stroke-miterlimit="10" stroke-width=".5"/><path d="M108.11,505.95c-3.3,0-10.24-.09-13.49-2.84-.05-.04-.05-.11-.01-.16.04-.05.11-.05.16-.01,3.3,2.8,10.59,2.8,13.69,2.79h.29c2.94,0,5.34-.73,5.36-.74.06-.02.12.02.14.07.02.06-.01.12-.07.14-.02,0-2.46.75-5.43.75h-.29c-.11,0-.23,0-.35,0h0Z" fill="#bbc9e8" stroke="#6d6e71" stroke-miterlimit="10" stroke-width=".5"/><path d="M92.15,522.78s-.06-.01-.09-.04c-.04-.05-.03-.12.01-.16,5.83-4.85,9.29-10.23,9.32-10.29.03-.05.1-.07.15-.03.05.03.07.1.03.15-.03.05-3.51,5.46-9.37,10.34-.02.02-.05.03-.07.03h0Z" fill="#bbc9e8" stroke="#6d6e71" stroke-miterlimit="10" stroke-width=".5"/><path d="M88.51,513.33c-1.14,0-2.29-.04-3.45-.11-.06,0-.11-.06-.1-.12,0-.06.05-.11.12-.1,11.13.75,21.78-2.51,21.88-2.54.06-.02.12.01.14.07.02.06-.01.12-.07.14-.1.03-8.69,2.66-18.52,2.66h0Z" fill="#bbc9e8" stroke="#6d6e71" stroke-miterlimit="10" stroke-width=".5"/><path d="M100.24,531.38s-.02,0-.02,0c-.06-.01-.1-.07-.09-.13l4.31-19.92c.01-.06.07-.1.13-.09.06.01.1.07.09.13l-4.31,19.92c-.01.05-.06.09-.11.09h0Z" fill="#bbc9e8" stroke="#6d6e71" stroke-miterlimit="10" stroke-width=".5"/><path d="M76.8,512s-.02,0-.03,0c-1.25-.4-2.19-1.32-2.22-1.36-.04-.04-.04-.11,0-.16.04-.04.11-.04.16,0,0,0,.93.91,2.14,1.3.06.02.09.08.07.14-.02.05-.06.08-.11.08h0Z" fill="#bbc9e8" stroke="#6d6e71" stroke-miterlimit="10" stroke-width=".5"/><path d="M91.19,502.27c-3.55.24-12.39,1.08-16.13,3.57-1.92,1.28-2.01,2.82-1.59,3.44.87,1.28,3.44,2.26,9.37,2.61,5.93.35,17.4-.7,20.08-1.94,0,0,.38-.92.7-1.24.32-.32,1.1-.89-1.22-1.85-9.3-3.84-9.42-4.71-11.21-4.59h0Z" fill="#f5f7fc" stroke="#6d6e71" stroke-miterlimit="10" stroke-width=".5"/><path d="M104.11,507.69s2.85-.51,2.89-9.41c.04-7.65-1.59-21.13-9.34-21.32-7.75-.19-7.58,22.81-5.51,25.37l11.96,5.37h0Z" fill="#f5f7fc" stroke="#6d6e71" stroke-miterlimit="10" stroke-width=".5"/><path d="M98.97,507.69c-.51.88-18.17,2.6-21.35.5-3.7-2.44,10.84-4.43,12.88-4.4,1.5.02,9.2,2.64,8.48,3.9h0Z" fill="#dfe5f4" stroke="#6d6e71" stroke-miterlimit="10" stroke-width=".5"/><path d="M103.82,507.8s-.03,0-.05-.01c-.11-.05-11.03-5.08-11.67-5.37-.06-.03-.08-.09-.06-.15.03-.06.09-.08.15-.06.64.29,11.56,5.32,11.67,5.37.06.03.08.09.05.15-.02.04-.06.06-.1.06h0Z" fill="#dfe5f4" stroke="#6d6e71" stroke-miterlimit="10" stroke-width=".5"/><path d="M98.39,510.28c-.05,0-.1-.04-.11-.09-.01-.06.03-.12.09-.13,2.63-.44,5.18-1.45,5.2-1.46.06-.02.12,0,.14.06.02.06,0,.12-.06.14-.03.01-2.59,1.03-5.25,1.47,0,0-.01,0-.02,0h0Z" fill="#dfe5f4" stroke="#6d6e71" stroke-miterlimit="10" stroke-width=".5"/><path d="M103.62,506.9s-.05,0-.07-.03c-.05-.04-.05-.11-.01-.16.02-.03,2.45-3,1.82-10.95,0-.06.04-.11.1-.12.06,0,.12.04.12.1.63,8.05-1.77,10.99-1.87,11.11-.02.03-.05.04-.08.04h0Z" fill="#dfe5f4" stroke="#6d6e71" stroke-miterlimit="10" stroke-width=".5"/><path d="M103.62,485.1s-.09-.03-.11-.08c-.02-.06-1.68-6.34-5.15-7.45-.06-.02-.09-.08-.07-.14.02-.06.08-.09.14-.07,3.59,1.15,5.23,7.34,5.3,7.6.02.06-.02.12-.08.14,0,0-.02,0-.03,0h0Z" fill="#dfe5f4" stroke="#6d6e71" stroke-miterlimit="10" stroke-width=".5"/><path d="M66.01,528.05c-.91.88-2,4.7-2,4.7l1.89,1.05s.93-2.7,1.89-2.54c.96.17,8.32,3.16,8.55,3.97.24.82-.11,3.67-.11,3.67l1.93,1.11,1.99-.52s-.43-3.08.13-3.96c.55-.89,5.66-1.82,6.3-1.57s1.11,3.34,1.11,3.34l2.04-.67s-.45-4.53-1.49-5.82c0,0-21.32-3.65-22.23-2.77h0Z" fill="#7c9cc9" stroke="#6d6e71" stroke-miterlimit="10" stroke-width=".5"/><path d="M88.24,530.82c.72.6-8.78,3.61-9.97,3.61s-12.4-5.51-12.37-6.16c.05-1.07,7.79-2.69,9.01-2.61,1.22.08,12.04,4.06,13.33,5.15h0Z" fill="#93adda" stroke="#6d6e71" stroke-miterlimit="10" stroke-width=".5"/><circle cx="290.98" cy="96.67" r="51.46" fill="#54c5cc" stroke="#009eac" stroke-miterlimit="10" stroke-width="5"/><path d="M310.17,93.01s-.19,2.87-1.34,3.63c-1.15.77-5.55,1.34-5.55,1.34,0,0-1.06,6.88-.92,13.16.1,4.61,2.14,9.41,1.82,10.56-.32,1.15-3.95,3.06-8.92,3.82-4.97.76-13.45,0-14.6-1.34-1.15-1.34,1.72-4.59,1.34-8.41-.4-4.01-5.68-5.81-9.18-11.09-2.78-4.21-3.82-7.27-1.15-9.37,2.68-2.1,23.01-3.82,23.01-3.82l15.49,1.53h0Z" fill="#dfe5f4" stroke="#6d6e71" stroke-miterlimit="10" stroke-width=".5"/><path d="M312.97,93.01c-.51,1.35-5.9,2.29-8.45,2.29-3.06,0-12.78-1.29-14.06-2.82-1.27-1.53-2.77-23.65-2.52-25.43.25-1.78,7.11-3.22,12.75-3.2,6.17.02,14.51,1.04,15.78,3.08,1.27,2.04-2.75,24.04-3.51,26.08h0Z" fill="#dfe5f4" stroke="#6d6e71" stroke-miterlimit="10" stroke-width=".5"/><path d="M305.3,68.46c-3.9,0-17.22-1.27-17.36-1.29-.06,0-.11-.06-.1-.12,0-.06.06-.11.12-.1.13.01,13.44,1.29,17.34,1.29.03,0,.06,0,.09,0,2.36-.01,11-1.39,11.08-1.41.06,0,.12.03.13.09,0,.06-.03.12-.09.13-.09.01-8.74,1.4-11.12,1.41-.03,0-.06,0-.09,0h0Z" fill="#bbc9e8" stroke="#6d6e71" stroke-miterlimit="10" stroke-width=".5"/><path d="M300.54,64.74c0,.19.81.35,1.82.35s1.82-.16,1.82-.35-.81-.35-1.82-.35-1.82.16-1.82.35h0Z" fill="#bbc9e8" stroke="#6d6e71" stroke-miterlimit="10" stroke-width=".5"/><path d="M303.88,95.42c-3.3,0-10.24-.09-13.49-2.84-.05-.04-.05-.11-.01-.16.04-.05.11-.05.16-.01,3.3,2.8,10.59,2.8,13.69,2.79h.29c2.94,0,5.34-.73,5.36-.74.06-.02.12.02.14.07.02.06-.01.12-.07.14-.02,0-2.46.75-5.43.75h-.29c-.11,0-.23,0-.35,0h0Z" fill="#bbc9e8" stroke="#6d6e71" stroke-miterlimit="10" stroke-width=".5"/><path d="M287.92,112.25s-.06-.01-.09-.04c-.04-.05-.03-.12.01-.16,5.83-4.85,9.29-10.23,9.32-10.29.03-.05.1-.07.15-.03.05.03.07.1.03.15-.03.05-3.51,5.46-9.37,10.34-.02.02-.05.03-.07.03h0Z" fill="#bbc9e8" stroke="#6d6e71" stroke-miterlimit="10" stroke-width=".5"/><path d="M284.29,102.8c-1.14,0-2.29-.04-3.45-.11-.06,0-.11-.06-.1-.12,0-.06.05-.11.12-.1,11.13.75,21.78-2.51,21.88-2.54.06-.02.12.01.14.07.02.06-.01.12-.07.14-.1.03-8.69,2.66-18.52,2.66h0Z" fill="#bbc9e8" stroke="#6d6e71" stroke-miterlimit="10" stroke-width=".5"/><path d="M296.01,120.86s-.02,0-.02,0c-.06-.01-.1-.07-.09-.13l4.31-19.92c.01-.06.07-.1.13-.09.06.01.1.07.09.13l-4.31,19.92c-.01.05-.06.09-.11.09h0Z" fill="#bbc9e8" stroke="#6d6e71" stroke-miterlimit="10" stroke-width=".5"/><path d="M272.57,101.47s-.02,0-.03,0c-1.25-.4-2.19-1.32-2.22-1.36-.04-.04-.04-.11,0-.16.04-.04.11-.04.16,0,0,0,.93.91,2.14,1.3.06.02.09.08.07.14-.02.05-.06.08-.11.08h0Z" fill="#bbc9e8" stroke="#6d6e71" stroke-miterlimit="10" stroke-width=".5"/><path d="M286.96,91.74c-3.55.24-12.39,1.08-16.13,3.57-1.92,1.28-2.01,2.82-1.59,3.44.87,1.28,3.44,2.26,9.37,2.61,5.93.35,17.4-.7,20.08-1.94,0,0,.38-.92.7-1.24.32-.32,1.1-.89-1.22-1.85-9.3-3.84-9.42-4.71-11.21-4.59h0Z" fill="#f5f7fc" stroke="#6d6e71" stroke-miterlimit="10" stroke-width=".5"/><path d="M299.88,97.17s2.85-.51,2.89-9.41c.04-7.65-1.59-21.13-9.34-21.32-7.75-.19-7.58,22.81-5.51,25.37l11.96,5.37h0Z" fill="#f5f7fc" stroke="#6d6e71" stroke-miterlimit="10" stroke-width=".5"/><path d="M294.74,97.17c-.51.88-18.17,2.6-21.35.5-3.7-2.44,10.84-4.43,12.88-4.4,1.5.02,9.2,2.64,8.48,3.9h0Z" fill="#dfe5f4" stroke="#6d6e71" stroke-miterlimit="10" stroke-width=".5"/><path d="M299.59,97.28s-.03,0-.05-.01c-.11-.05-11.03-5.08-11.67-5.37-.06-.03-.08-.09-.06-.15.03-.06.09-.08.15-.06.64.29,11.56,5.32,11.67,5.37.06.03.08.09.05.15-.02.04-.06.06-.1.06h0Z" fill="#dfe5f4" stroke="#6d6e71" stroke-miterlimit="10" stroke-width=".5"/><path d="M294.17,99.75c-.05,0-.1-.04-.11-.09-.01-.06.03-.12.09-.13,2.63-.44,5.18-1.45,5.2-1.46.06-.02.12,0,.14.06.02.06,0,.12-.06.14-.03.01-2.59,1.03-5.25,1.47,0,0-.01,0-.02,0h0Z" fill="#dfe5f4" stroke="#6d6e71" stroke-miterlimit="10" stroke-width=".5"/><path d="M299.39,96.38s-.05,0-.07-.03c-.05-.04-.05-.11-.01-.16.02-.03,2.45-3,1.82-10.95,0-.06.04-.11.1-.12.06,0,.12.04.12.1.63,8.05-1.77,10.99-1.87,11.11-.02.03-.05.04-.08.04h0Z" fill="#dfe5f4" stroke="#6d6e71" stroke-miterlimit="10" stroke-width=".5"/><path d="M299.39,74.57s-.09-.03-.11-.08c-.02-.06-1.68-6.34-5.15-7.45-.06-.02-.09-.08-.07-.14.02-.06.08-.09.14-.07,3.59,1.15,5.23,7.34,5.3,7.6.02.06-.02.12-.08.14,0,0-.02,0-.03,0h0Z" fill="#dfe5f4" stroke="#6d6e71" stroke-miterlimit="10" stroke-width=".5"/><path d="M261.79,117.52c-.91.88-2,4.7-2,4.7l1.89,1.05s.93-2.7,1.89-2.54c.96.17,8.32,3.16,8.55,3.97.24.82-.11,3.67-.11,3.67l1.93,1.11,1.99-.52s-.43-3.08.13-3.96c.55-.89,5.66-1.82,6.3-1.57s1.11,3.34,1.11,3.34l2.04-.67s-.45-4.53-1.49-5.82c0,0-21.32-3.65-22.23-2.77h0Z" fill="#7c9cc9" stroke="#6d6e71" stroke-miterlimit="10" stroke-width=".5"/><path d="M284.01,120.29c.72.6-8.78,3.61-9.97,3.61s-12.4-5.51-12.37-6.16c.05-1.07,7.79-2.69,9.01-2.61,1.22.08,12.04,4.06,13.33,5.15h0Z" fill="#93adda" stroke="#6d6e71" stroke-miterlimit="10" stroke-width=".5"/><circle cx="289.9" cy="301.93" r="51.46" fill="#54c5cc" stroke="#009eac" stroke-miterlimit="10" stroke-width="5"/><path d="M309.08,298.28s-.19,2.87-1.34,3.63c-1.15.77-5.55,1.34-5.55,1.34,0,0-1.06,6.88-.92,13.16.1,4.61,2.14,9.41,1.82,10.56-.32,1.15-3.95,3.06-8.92,3.82-4.97.76-13.45,0-14.6-1.34-1.15-1.34,1.72-4.59,1.34-8.41-.4-4.01-5.68-5.81-9.18-11.09-2.78-4.21-3.82-7.27-1.15-9.37,2.68-2.1,23.01-3.82,23.01-3.82l15.49,1.53h0Z" fill="#dfe5f4" stroke="#6d6e71" stroke-miterlimit="10" stroke-width=".5"/><path d="M311.89,298.28c-.51,1.35-5.9,2.29-8.45,2.29-3.06,0-12.78-1.29-14.06-2.82-1.27-1.53-2.77-23.65-2.52-25.43.25-1.78,7.11-3.22,12.75-3.2,6.17.02,14.51,1.04,15.78,3.08,1.27,2.04-2.75,24.04-3.51,26.08h0Z" fill="#dfe5f4" stroke="#6d6e71" stroke-miterlimit="10" stroke-width=".5"/><path d="M304.21,273.72c-3.9,0-17.22-1.27-17.36-1.29-.06,0-.11-.06-.1-.12,0-.06.06-.11.12-.1.13.01,13.44,1.29,17.34,1.29.03,0,.06,0,.09,0,2.36-.01,11-1.39,11.08-1.41.06,0,.12.03.13.09,0,.06-.03.12-.09.13-.09.01-8.74,1.4-11.12,1.41-.03,0-.06,0-.09,0h0Z" fill="#bbc9e8" stroke="#6d6e71" stroke-miterlimit="10" stroke-width=".5"/><path d="M299.46,270.01c0,.19.81.35,1.82.35s1.82-.16,1.82-.35-.81-.35-1.82-.35-1.82.16-1.82.35h0Z" fill="#bbc9e8" stroke="#6d6e71" stroke-miterlimit="10" stroke-width=".5"/><path d="M302.8,300.68c-3.3,0-10.24-.09-13.49-2.84-.05-.04-.05-.11-.01-.16.04-.05.11-.05.16-.01,3.3,2.8,10.59,2.8,13.69,2.79h.29c2.94,0,5.34-.73,5.36-.74.06-.02.12.02.14.07.02.06-.01.12-.07.14-.02,0-2.46.75-5.43.75h-.29c-.11,0-.23,0-.35,0h0Z" fill="#bbc9e8" stroke="#6d6e71" stroke-miterlimit="10" stroke-width=".5"/><path d="M286.84,317.51s-.06-.01-.09-.04c-.04-.05-.03-.12.01-.16,5.83-4.85,9.29-10.23,9.32-10.29.03-.05.1-.07.15-.03.05.03.07.1.03.15-.03.05-3.51,5.46-9.37,10.34-.02.02-.05.03-.07.03h0Z" fill="#bbc9e8" stroke="#6d6e71" stroke-miterlimit="10" stroke-width=".5"/><path d="M283.2,308.06c-1.14,0-2.29-.04-3.45-.11-.06,0-.11-.06-.1-.12,0-.06.05-.11.12-.1,11.13.75,21.78-2.51,21.88-2.54.06-.02.12.01.14.07.02.06-.01.12-.07.14-.1.03-8.69,2.66-18.52,2.66h0Z" fill="#bbc9e8" stroke="#6d6e71" stroke-miterlimit="10" stroke-width=".5"/><path d="M294.93,326.12s-.02,0-.02,0c-.06-.01-.1-.07-.09-.13l4.31-19.92c.01-.06.07-.1.13-.09.06.01.1.07.09.13l-4.31,19.92c-.01.05-.06.09-.11.09h0Z" fill="#bbc9e8" stroke="#6d6e71" stroke-miterlimit="10" stroke-width=".5"/><path d="M271.49,306.74s-.02,0-.03,0c-1.25-.4-2.19-1.32-2.22-1.36-.04-.04-.04-.11,0-.16.04-.04.11-.04.16,0,0,0,.93.91,2.14,1.3.06.02.09.08.07.14-.02.05-.06.08-.11.08h0Z" fill="#bbc9e8" stroke="#6d6e71" stroke-miterlimit="10" stroke-width=".5"/><path d="M285.88,297c-3.55.24-12.39,1.08-16.13,3.57-1.92,1.28-2.01,2.82-1.59,3.44.87,1.28,3.44,2.26,9.37,2.61,5.93.35,17.4-.7,20.08-1.94,0,0,.38-.92.7-1.24.32-.32,1.1-.89-1.22-1.85-9.3-3.84-9.42-4.71-11.21-4.59h0Z" fill="#f5f7fc" stroke="#6d6e71" stroke-miterlimit="10" stroke-width=".5"/><path d="M298.8,302.43s2.85-.51,2.89-9.41c.04-7.65-1.59-21.13-9.34-21.32-7.75-.19-7.58,22.81-5.51,25.37l11.96,5.37h0Z" fill="#f5f7fc" stroke="#6d6e71" stroke-miterlimit="10" stroke-width=".5"/><path d="M293.66,302.43c-.51.88-18.17,2.6-21.35.5-3.7-2.44,10.84-4.43,12.88-4.4,1.5.02,9.2,2.64,8.48,3.9h0Z" fill="#dfe5f4" stroke="#6d6e71" stroke-miterlimit="10" stroke-width=".5"/><path d="M298.51,302.54s-.03,0-.05-.01c-.11-.05-11.03-5.08-11.67-5.37-.06-.03-.08-.09-.06-.15.03-.06.09-.08.15-.06.64.29,11.56,5.32,11.67,5.37.06.03.08.09.05.15-.02.04-.06.06-.1.06h0Z" fill="#dfe5f4" stroke="#6d6e71" stroke-miterlimit="10" stroke-width=".5"/><path d="M293.08,305.02c-.05,0-.1-.04-.11-.09-.01-.06.03-.12.09-.13,2.63-.44,5.18-1.45,5.2-1.46.06-.02.12,0,.14.06.02.06,0,.12-.06.14-.03.01-2.59,1.03-5.25,1.47,0,0-.01,0-.02,0h0Z" fill="#dfe5f4" stroke="#6d6e71" stroke-miterlimit="10" stroke-width=".5"/><path d="M298.31,301.64s-.05,0-.07-.03c-.05-.04-.05-.11-.01-.16.02-.03,2.45-3,1.82-10.95,0-.06.04-.11.1-.12.06,0,.12.04.12.1.63,8.05-1.77,10.99-1.87,11.11-.02.03-.05.04-.08.04h0Z" fill="#dfe5f4" stroke="#6d6e71" stroke-miterlimit="10" stroke-width=".5"/><path d="M298.31,279.84s-.09-.03-.11-.08c-.02-.06-1.68-6.34-5.15-7.45-.06-.02-.09-.08-.07-.14.02-.06.08-.09.14-.07,3.59,1.15,5.23,7.34,5.3,7.6.02.06-.02.12-.08.14,0,0-.02,0-.03,0h0Z" fill="#dfe5f4" stroke="#6d6e71" stroke-miterlimit="10" stroke-width=".5"/><path d="M260.7,322.78c-.91.88-2,4.7-2,4.7l1.89,1.05s.93-2.7,1.89-2.54c.96.17,8.32,3.16,8.55,3.97.24.82-.11,3.67-.11,3.67l1.93,1.11,1.99-.52s-.43-3.08.13-3.96c.55-.89,5.66-1.82,6.3-1.57s1.11,3.34,1.11,3.34l2.04-.67s-.45-4.53-1.49-5.82c0,0-21.32-3.65-22.23-2.77h0Z" fill="#7c9cc9" stroke="#6d6e71" stroke-miterlimit="10" stroke-width=".5"/><path d="M282.93,325.55c.72.6-8.78,3.61-9.97,3.61s-12.4-5.51-12.37-6.16c.05-1.07,7.79-2.69,9.01-2.61,1.22.08,12.04,4.06,13.33,5.15h0Z" fill="#93adda" stroke="#6d6e71" stroke-miterlimit="10" stroke-width=".5"/><circle cx="293.66" cy="507.2" r="51.46" fill="#54c5cc" stroke="#009eac" stroke-miterlimit="10" stroke-width="5"/><path d="M312.84,503.54s-.19,2.87-1.34,3.63c-1.15.77-5.55,1.34-5.55,1.34,0,0-1.06,6.88-.92,13.16.1,4.61,2.14,9.41,1.82,10.56-.32,1.15-3.95,3.06-8.92,3.82-4.97.76-13.45,0-14.6-1.34-1.15-1.34,1.72-4.59,1.34-8.41-.4-4.01-5.68-5.81-9.18-11.09-2.78-4.21-3.82-7.27-1.15-9.37,2.68-2.1,23.01-3.82,23.01-3.82l15.49,1.53h0Z" fill="#dfe5f4" stroke="#6d6e71" stroke-miterlimit="10" stroke-width=".5"/><path d="M315.64,503.54c-.51,1.35-5.9,2.29-8.45,2.29-3.06,0-12.78-1.29-14.06-2.82-1.27-1.53-2.77-23.65-2.52-25.43.25-1.78,7.11-3.22,12.75-3.2,6.17.02,14.51,1.04,15.78,3.08,1.27,2.04-2.75,24.04-3.51,26.08h0Z" fill="#dfe5f4" stroke="#6d6e71" stroke-miterlimit="10" stroke-width=".5"/><path d="M307.97,478.98c-3.9,0-17.22-1.27-17.36-1.29-.06,0-.11-.06-.1-.12,0-.06.06-.11.12-.1.13.01,13.44,1.29,17.34,1.29.03,0,.06,0,.09,0,2.36-.01,11-1.39,11.08-1.41.06,0,.12.03.13.09,0,.06-.03.12-.09.13-.09.01-8.74,1.4-11.12,1.41-.03,0-.06,0-.09,0h0Z" fill="#bbc9e8" stroke="#6d6e71" stroke-miterlimit="10" stroke-width=".5"/><path d="M303.21,475.27c0,.19.81.35,1.82.35s1.82-.16,1.82-.35-.81-.35-1.82-.35-1.82.16-1.82.35h0Z" fill="#bbc9e8" stroke="#6d6e71" stroke-miterlimit="10" stroke-width=".5"/><path d="M306.55,505.95c-3.3,0-10.24-.09-13.49-2.84-.05-.04-.05-.11-.01-.16.04-.05.11-.05.16-.01,3.3,2.8,10.59,2.8,13.69,2.79h.29c2.94,0,5.34-.73,5.36-.74.06-.02.12.02.14.07.02.06-.01.12-.07.14-.02,0-2.46.75-5.43.75h-.29c-.11,0-.23,0-.35,0h0Z" fill="#bbc9e8" stroke="#6d6e71" stroke-miterlimit="10" stroke-width=".5"/><path d="M290.59,522.78s-.06-.01-.09-.04c-.04-.05-.03-.12.01-.16,5.83-4.85,9.29-10.23,9.32-10.29.03-.05.1-.07.15-.03.05.03.07.1.03.15-.03.05-3.51,5.46-9.37,10.34-.02.02-.05.03-.07.03h0Z" fill="#bbc9e8" stroke="#6d6e71" stroke-miterlimit="10" stroke-width=".5"/><path d="M286.96,513.33c-1.14,0-2.29-.04-3.45-.11-.06,0-.11-.06-.1-.12,0-.06.05-.11.12-.1,11.13.75,21.78-2.51,21.88-2.54.06-.02.12.01.14.07.02.06-.01.12-.07.14-.1.03-8.69,2.66-18.52,2.66h0Z" fill="#bbc9e8" stroke="#6d6e71" stroke-miterlimit="10" stroke-width=".5"/><path d="M298.69,531.38s-.02,0-.02,0c-.06-.01-.1-.07-.09-.13l4.31-19.92c.01-.06.07-.1.13-.09.06.01.1.07.09.13l-4.31,19.92c-.01.05-.06.09-.11.09h0Z" fill="#bbc9e8" stroke="#6d6e71" stroke-miterlimit="10" stroke-width=".5"/><path d="M275.24,512s-.02,0-.03,0c-1.25-.4-2.19-1.32-2.22-1.36-.04-.04-.04-.11,0-.16.04-.04.11-.04.16,0,0,0,.93.91,2.14,1.3.06.02.09.08.07.14-.02.05-.06.08-.11.08h0Z" fill="#bbc9e8" stroke="#6d6e71" stroke-miterlimit="10" stroke-width=".5"/><path d="M289.63,502.27c-3.55.24-12.39,1.08-16.13,3.57-1.92,1.28-2.01,2.82-1.59,3.44.87,1.28,3.44,2.26,9.37,2.61,5.93.35,17.4-.7,20.08-1.94,0,0,.38-.92.7-1.24.32-.32,1.1-.89-1.22-1.85-9.3-3.84-9.42-4.71-11.21-4.59h0Z" fill="#f5f7fc" stroke="#6d6e71" stroke-miterlimit="10" stroke-width=".5"/><path d="M302.55,507.69s2.85-.51,2.89-9.41c.04-7.65-1.59-21.13-9.34-21.32-7.75-.19-7.58,22.81-5.51,25.37l11.96,5.37h0Z" fill="#f5f7fc" stroke="#6d6e71" stroke-miterlimit="10" stroke-width=".5"/><path d="M297.41,507.69c-.51.88-18.17,2.6-21.35.5-3.7-2.44,10.84-4.43,12.88-4.4,1.5.02,9.2,2.64,8.48,3.9h0Z" fill="#dfe5f4" stroke="#6d6e71" stroke-miterlimit="10" stroke-width=".5"/><path d="M302.26,507.8s-.03,0-.05-.01c-.11-.05-11.03-5.08-11.67-5.37-.06-.03-.08-.09-.06-.15.03-.06.09-.08.15-.06.64.29,11.56,5.32,11.67,5.37.06.03.08.09.05.15-.02.04-.06.06-.1.06h0Z" fill="#dfe5f4" stroke="#6d6e71" stroke-miterlimit="10" stroke-width=".5"/><path d="M296.84,510.28c-.05,0-.1-.04-.11-.09-.01-.06.03-.12.09-.13,2.63-.44,5.18-1.45,5.2-1.46.06-.02.12,0,.14.06.02.06,0,.12-.06.14-.03.01-2.59,1.03-5.25,1.47,0,0-.01,0-.02,0h0Z" fill="#dfe5f4" stroke="#6d6e71" stroke-miterlimit="10" stroke-width=".5"/><path d="M302.06,506.9s-.05,0-.07-.03c-.05-.04-.05-.11-.01-.16.02-.03,2.45-3,1.82-10.95,0-.06.04-.11.1-.12.06,0,.12.04.12.1.63,8.05-1.77,10.99-1.87,11.11-.02.03-.05.04-.08.04h0Z" fill="#dfe5f4" stroke="#6d6e71" stroke-miterlimit="10" stroke-width=".5"/><path d="M302.06,485.1s-.09-.03-.11-.08c-.02-.06-1.68-6.34-5.15-7.45-.06-.02-.09-.08-.07-.14.02-.06.08-.09.14-.07,3.59,1.15,5.23,7.34,5.3,7.6.02.06-.02.12-.08.14,0,0-.02,0-.03,0h0Z" fill="#dfe5f4" stroke="#6d6e71" stroke-miterlimit="10" stroke-width=".5"/><path d="M264.46,528.05c-.91.88-2,4.7-2,4.7l1.89,1.05s.93-2.7,1.89-2.54c.96.17,8.32,3.16,8.55,3.97.24.82-.11,3.67-.11,3.67l1.93,1.11,1.99-.52s-.43-3.08.13-3.96c.55-.89,5.66-1.82,6.3-1.57s1.11,3.34,1.11,3.34l2.04-.67s-.45-4.53-1.49-5.82c0,0-21.32-3.65-22.23-2.77h0Z" fill="#7c9cc9" stroke="#6d6e71" stroke-miterlimit="10" stroke-width=".5"/><path d="M286.68,530.82c.72.6-8.78,3.61-9.97,3.61s-12.4-5.51-12.37-6.16c.05-1.07,7.79-2.69,9.01-2.61,1.22.08,12.04,4.06,13.33,5.15h0Z" fill="#93adda" stroke="#6d6e71" stroke-miterlimit="10" stroke-width=".5"/><circle cx="499.43" cy="96.67" r="51.46" fill="#54c5cc" stroke="#009eac" stroke-miterlimit="10" stroke-width="5"/><path d="M518.61,93.01s-.19,2.87-1.34,3.63c-1.15.77-5.55,1.34-5.55,1.34,0,0-1.06,6.88-.92,13.16.1,4.61,2.14,9.41,1.82,10.56-.32,1.15-3.95,3.06-8.92,3.82-4.97.76-13.45,0-14.6-1.34-1.15-1.34,1.72-4.59,1.34-8.41-.4-4.01-5.68-5.81-9.18-11.09-2.78-4.21-3.82-7.27-1.15-9.37,2.68-2.1,23.01-3.82,23.01-3.82l15.49,1.53h0Z" fill="#dfe5f4" stroke="#6d6e71" stroke-miterlimit="10" stroke-width=".5"/><path d="M521.42,93.01c-.51,1.35-5.9,2.29-8.45,2.29-3.06,0-12.78-1.29-14.06-2.82-1.27-1.53-2.77-23.65-2.52-25.43.25-1.78,7.11-3.22,12.75-3.2,6.17.02,14.51,1.04,15.78,3.08,1.27,2.04-2.75,24.04-3.51,26.08h0Z" fill="#dfe5f4" stroke="#6d6e71" stroke-miterlimit="10" stroke-width=".5"/><path d="M513.74,68.46c-3.9,0-17.22-1.27-17.36-1.29-.06,0-.11-.06-.1-.12,0-.06.06-.11.12-.1.13.01,13.44,1.29,17.34,1.29.03,0,.06,0,.09,0,2.36-.01,11-1.39,11.08-1.41.06,0,.12.03.13.09,0,.06-.03.12-.09.13-.09.01-8.74,1.4-11.12,1.41-.03,0-.06,0-.09,0h0Z" fill="#bbc9e8" stroke="#6d6e71" stroke-miterlimit="10" stroke-width=".5"/><path d="M508.99,64.74c0,.19.81.35,1.82.35s1.82-.16,1.82-.35-.81-.35-1.82-.35-1.82.16-1.82.35h0Z" fill="#bbc9e8" stroke="#6d6e71" stroke-miterlimit="10" stroke-width=".5"/><path d="M512.33,95.42c-3.3,0-10.24-.09-13.49-2.84-.05-.04-.05-.11-.01-.16.04-.05.11-.05.16-.01,3.3,2.8,10.59,2.8,13.69,2.79h.29c2.94,0,5.34-.73,5.36-.74.06-.02.12.02.14.07.02.06-.01.12-.07.14-.02,0-2.46.75-5.43.75h-.29c-.11,0-.23,0-.35,0h0Z" fill="#bbc9e8" stroke="#6d6e71" stroke-miterlimit="10" stroke-width=".5"/><path d="M496.37,112.25s-.06-.01-.09-.04c-.04-.05-.03-.12.01-.16,5.83-4.85,9.29-10.23,9.32-10.29.03-.05.1-.07.15-.03.05.03.07.1.03.15-.03.05-3.51,5.46-9.37,10.34-.02.02-.05.03-.07.03h0Z" fill="#bbc9e8" stroke="#6d6e71" stroke-miterlimit="10" stroke-width=".5"/><path d="M492.73,102.8c-1.14,0-2.29-.04-3.45-.11-.06,0-.11-.06-.1-.12,0-.06.05-.11.12-.1,11.13.75,21.78-2.51,21.88-2.54.06-.02.12.01.14.07.02.06-.01.12-.07.14-.1.03-8.69,2.66-18.52,2.66h0Z" fill="#bbc9e8" stroke="#6d6e71" stroke-miterlimit="10" stroke-width=".5"/><path d="M504.46,120.86s-.02,0-.02,0c-.06-.01-.1-.07-.09-.13l4.31-19.92c.01-.06.07-.1.13-.09.06.01.1.07.09.13l-4.31,19.92c-.01.05-.06.09-.11.09h0Z" fill="#bbc9e8" stroke="#6d6e71" stroke-miterlimit="10" stroke-width=".5"/><path d="M481.02,101.47s-.02,0-.03,0c-1.25-.4-2.19-1.32-2.22-1.36-.04-.04-.04-.11,0-.16.04-.04.11-.04.16,0,0,0,.93.91,2.14,1.3.06.02.09.08.07.14-.02.05-.06.08-.11.08h0Z" fill="#bbc9e8" stroke="#6d6e71" stroke-miterlimit="10" stroke-width=".5"/><path d="M495.41,91.74c-3.55.24-12.39,1.08-16.13,3.57-1.92,1.28-2.01,2.82-1.59,3.44.87,1.28,3.44,2.26,9.37,2.61,5.93.35,17.4-.7,20.08-1.94,0,0,.38-.92.7-1.24.32-.32,1.1-.89-1.22-1.85-9.3-3.84-9.42-4.71-11.21-4.59h0Z" fill="#f5f7fc" stroke="#6d6e71" stroke-miterlimit="10" stroke-width=".5"/><path d="M508.32,97.17s2.85-.51,2.89-9.41c.04-7.65-1.59-21.13-9.34-21.32-7.75-.19-7.58,22.81-5.51,25.37l11.96,5.37h0Z" fill="#f5f7fc" stroke="#6d6e71" stroke-miterlimit="10" stroke-width=".5"/><path d="M503.18,97.17c-.51.88-18.17,2.6-21.35.5-3.7-2.44,10.84-4.43,12.88-4.4,1.5.02,9.2,2.64,8.48,3.9h0Z" fill="#dfe5f4" stroke="#6d6e71" stroke-miterlimit="10" stroke-width=".5"/><path d="M508.04,97.28s-.03,0-.05-.01c-.11-.05-11.03-5.08-11.67-5.37-.06-.03-.08-.09-.06-.15.03-.06.09-.08.15-.06.64.29,11.56,5.32,11.67,5.37.06.03.08.09.05.15-.02.04-.06.06-.1.06h0Z" fill="#dfe5f4" stroke="#6d6e71" stroke-miterlimit="10" stroke-width=".5"/><path d="M502.61,99.75c-.05,0-.1-.04-.11-.09-.01-.06.03-.12.09-.13,2.63-.44,5.18-1.45,5.2-1.46.06-.02.12,0,.14.06.02.06,0,.12-.06.14-.03.01-2.59,1.03-5.25,1.47,0,0-.01,0-.02,0h0Z" fill="#dfe5f4" stroke="#6d6e71" stroke-miterlimit="10" stroke-width=".5"/><path d="M507.84,96.38s-.05,0-.07-.03c-.05-.04-.05-.11-.01-.16.02-.03,2.45-3,1.82-10.95,0-.06.04-.11.1-.12.06,0,.12.04.12.1.63,8.05-1.77,10.99-1.87,11.11-.02.03-.05.04-.08.04h0Z" fill="#dfe5f4" stroke="#6d6e71" stroke-miterlimit="10" stroke-width=".5"/><path d="M507.84,74.57s-.09-.03-.11-.08c-.02-.06-1.68-6.34-5.15-7.45-.06-.02-.09-.08-.07-.14.02-.06.08-.09.14-.07,3.59,1.15,5.23,7.34,5.3,7.6.02.06-.02.12-.08.14,0,0-.02,0-.03,0h0Z" fill="#dfe5f4" stroke="#6d6e71" stroke-miterlimit="10" stroke-width=".5"/><path d="M470.23,117.52c-.91.88-2,4.7-2,4.7l1.89,1.05s.93-2.7,1.89-2.54c.96.17,8.32,3.16,8.55,3.97.24.82-.11,3.67-.11,3.67l1.93,1.11,1.99-.52s-.43-3.08.13-3.96c.55-.89,5.66-1.82,6.3-1.57s1.11,3.34,1.11,3.34l2.04-.67s-.45-4.53-1.49-5.82c0,0-21.32-3.65-22.23-2.77h0Z" fill="#7c9cc9" stroke="#6d6e71" stroke-miterlimit="10" stroke-width=".5"/><path d="M492.46,120.29c.72.6-8.78,3.61-9.97,3.61s-12.4-5.51-12.37-6.16c.05-1.07,7.79-2.69,9.01-2.61,1.22.08,12.04,4.06,13.33,5.15h0Z" fill="#93adda" stroke="#6d6e71" stroke-miterlimit="10" stroke-width=".5"/><circle cx="498.34" cy="301.93" r="51.46" fill="#54c5cc" stroke="#009eac" stroke-miterlimit="10" stroke-width="5"/><path d="M517.53,298.28s-.19,2.87-1.34,3.63c-1.15.77-5.55,1.34-5.55,1.34,0,0-1.06,6.88-.92,13.16.1,4.61,2.14,9.41,1.82,10.56-.32,1.15-3.95,3.06-8.92,3.82-4.97.76-13.45,0-14.6-1.34-1.15-1.34,1.72-4.59,1.34-8.41-.4-4.01-5.68-5.81-9.18-11.09-2.78-4.21-3.82-7.27-1.15-9.37,2.68-2.1,23.01-3.82,23.01-3.82l15.49,1.53h0Z" fill="#dfe5f4" stroke="#6d6e71" stroke-miterlimit="10" stroke-width=".5"/><path d="M520.33,298.28c-.51,1.35-5.9,2.29-8.45,2.29-3.06,0-12.78-1.29-14.06-2.82-1.27-1.53-2.77-23.65-2.52-25.43.25-1.78,7.11-3.22,12.75-3.2,6.17.02,14.51,1.04,15.78,3.08,1.27,2.04-2.75,24.04-3.51,26.08h0Z" fill="#dfe5f4" stroke="#6d6e71" stroke-miterlimit="10" stroke-width=".5"/><path d="M512.66,273.72c-3.9,0-17.22-1.27-17.36-1.29-.06,0-.11-.06-.1-.12,0-.06.06-.11.12-.1.13.01,13.44,1.29,17.34,1.29.03,0,.06,0,.09,0,2.36-.01,11-1.39,11.08-1.41.06,0,.12.03.13.09,0,.06-.03.12-.09.13-.09.01-8.74,1.4-11.12,1.41-.03,0-.06,0-.09,0h0Z" fill="#bbc9e8" stroke="#6d6e71" stroke-miterlimit="10" stroke-width=".5"/><path d="M507.9,270.01c0,.19.81.35,1.82.35s1.82-.16,1.82-.35-.81-.35-1.82-.35-1.82.16-1.82.35h0Z" fill="#bbc9e8" stroke="#6d6e71" stroke-miterlimit="10" stroke-width=".5"/><path d="M511.24,300.68c-3.3,0-10.24-.09-13.49-2.84-.05-.04-.05-.11-.01-.16.04-.05.11-.05.16-.01,3.3,2.8,10.59,2.8,13.69,2.79h.29c2.94,0,5.34-.73,5.36-.74.06-.02.12.02.14.07.02.06-.01.12-.07.14-.02,0-2.46.75-5.43.75h-.29c-.11,0-.23,0-.35,0h0Z" fill="#bbc9e8" stroke="#6d6e71" stroke-miterlimit="10" stroke-width=".5"/><path d="M495.28,317.51s-.06-.01-.09-.04c-.04-.05-.03-.12.01-.16,5.83-4.85,9.29-10.23,9.32-10.29.03-.05.1-.07.15-.03.05.03.07.1.03.15-.03.05-3.51,5.46-9.37,10.34-.02.02-.05.03-.07.03h0Z" fill="#bbc9e8" stroke="#6d6e71" stroke-miterlimit="10" stroke-width=".5"/><path d="M491.65,308.06c-1.14,0-2.29-.04-3.45-.11-.06,0-.11-.06-.1-.12,0-.06.05-.11.12-.1,11.13.75,21.78-2.51,21.88-2.54.06-.02.12.01.14.07.02.06-.01.12-.07.14-.1.03-8.69,2.66-18.52,2.66h0Z" fill="#bbc9e8" stroke="#6d6e71" stroke-miterlimit="10" stroke-width=".5"/><path d="M503.38,326.12s-.02,0-.02,0c-.06-.01-.1-.07-.09-.13l4.31-19.92c.01-.06.07-.1.13-.09.06.01.1.07.09.13l-4.31,19.92c-.01.05-.06.09-.11.09h0Z" fill="#bbc9e8" stroke="#6d6e71" stroke-miterlimit="10" stroke-width=".5"/><path d="M479.93,306.74s-.02,0-.03,0c-1.25-.4-2.19-1.32-2.22-1.36-.04-.04-.04-.11,0-.16.04-.04.11-.04.16,0,0,0,.93.91,2.14,1.3.06.02.09.08.07.14-.02.05-.06.08-.11.08h0Z" fill="#bbc9e8" stroke="#6d6e71" stroke-miterlimit="10" stroke-width=".5"/><path d="M494.32,297c-3.55.24-12.39,1.08-16.13,3.57-1.92,1.28-2.01,2.82-1.59,3.44.87,1.28,3.44,2.26,9.37,2.61,5.93.35,17.4-.7,20.08-1.94,0,0,.38-.92.7-1.24.32-.32,1.1-.89-1.22-1.85-9.3-3.84-9.42-4.71-11.21-4.59h0Z" fill="#f5f7fc" stroke="#6d6e71" stroke-miterlimit="10" stroke-width=".5"/><path d="M507.24,302.43s2.85-.51,2.89-9.41c.04-7.65-1.59-21.13-9.34-21.32-7.75-.19-7.58,22.81-5.51,25.37l11.96,5.37h0Z" fill="#f5f7fc" stroke="#6d6e71" stroke-miterlimit="10" stroke-width=".5"/><path d="M502.1,302.43c-.51.88-18.17,2.6-21.35.5-3.7-2.44,10.84-4.43,12.88-4.4,1.5.02,9.2,2.64,8.48,3.9h0Z" fill="#dfe5f4" stroke="#6d6e71" stroke-miterlimit="10" stroke-width=".5"/><path d="M506.95,302.54s-.03,0-.05-.01c-.11-.05-11.03-5.08-11.67-5.37-.06-.03-.08-.09-.06-.15.03-.06.09-.08.15-.06.64.29,11.56,5.32,11.67,5.37.06.03.08.09.05.15-.02.04-.06.06-.1.06h0Z" fill="#dfe5f4" stroke="#6d6e71" stroke-miterlimit="10" stroke-width=".5"/><path d="M501.53,305.02c-.05,0-.1-.04-.11-.09-.01-.06.03-.12.09-.13,2.63-.44,5.18-1.45,5.2-1.46.06-.02.12,0,.14.06.02.06,0,.12-.06.14-.03.01-2.59,1.03-5.25,1.47,0,0-.01,0-.02,0h0Z" fill="#dfe5f4" stroke="#6d6e71" stroke-miterlimit="10" stroke-width=".5"/><path d="M506.75,301.64s-.05,0-.07-.03c-.05-.04-.05-.11-.01-.16.02-.03,2.45-3,1.82-10.95,0-.06.04-.11.1-.12.06,0,.12.04.12.1.63,8.05-1.77,10.99-1.87,11.11-.02.03-.05.04-.08.04h0Z" fill="#dfe5f4" stroke="#6d6e71" stroke-miterlimit="10" stroke-width=".5"/><path d="M506.75,279.84s-.09-.03-.11-.08c-.02-.06-1.68-6.34-5.15-7.45-.06-.02-.09-.08-.07-.14.02-.06.08-.09.14-.07,3.59,1.15,5.23,7.34,5.3,7.6.02.06-.02.12-.08.14,0,0-.02,0-.03,0h0Z" fill="#dfe5f4" stroke="#6d6e71" stroke-miterlimit="10" stroke-width=".5"/><path d="M469.15,322.78c-.91.88-2,4.7-2,4.7l1.89,1.05s.93-2.7,1.89-2.54c.96.17,8.32,3.16,8.55,3.97.24.82-.11,3.67-.11,3.67l1.93,1.11,1.99-.52s-.43-3.08.13-3.96c.55-.89,5.66-1.82,6.3-1.57s1.11,3.34,1.11,3.34l2.04-.67s-.45-4.53-1.49-5.82c0,0-21.32-3.65-22.23-2.77h0Z" fill="#7c9cc9" stroke="#6d6e71" stroke-miterlimit="10" stroke-width=".5"/><path d="M491.37,325.55c.72.6-8.78,3.61-9.97,3.61s-12.4-5.51-12.37-6.16c.05-1.07,7.79-2.69,9.01-2.61,1.22.08,12.04,4.06,13.33,5.15h0Z" fill="#93adda" stroke="#6d6e71" stroke-miterlimit="10" stroke-width=".5"/><circle cx="502.1" cy="507.2" r="51.46" fill="#54c5cc" stroke="#009eac" stroke-miterlimit="10" stroke-width="5"/><path d="M521.28,503.54s-.19,2.87-1.34,3.63c-1.15.77-5.55,1.34-5.55,1.34,0,0-1.06,6.88-.92,13.16.1,4.61,2.14,9.41,1.82,10.56-.32,1.15-3.95,3.06-8.92,3.82-4.97.76-13.45,0-14.6-1.34-1.15-1.34,1.72-4.59,1.34-8.41-.4-4.01-5.68-5.81-9.18-11.09-2.78-4.21-3.82-7.27-1.15-9.37,2.68-2.1,23.01-3.82,23.01-3.82l15.49,1.53h0Z" fill="#dfe5f4" stroke="#6d6e71" stroke-miterlimit="10" stroke-width=".5"/><path d="M524.09,503.54c-.51,1.35-5.9,2.29-8.45,2.29-3.06,0-12.78-1.29-14.06-2.82-1.27-1.53-2.77-23.65-2.52-25.43.25-1.78,7.11-3.22,12.75-3.2,6.17.02,14.51,1.04,15.78,3.08,1.27,2.04-2.75,24.04-3.51,26.08h0Z" fill="#dfe5f4" stroke="#6d6e71" stroke-miterlimit="10" stroke-width=".5"/><path d="M516.41,478.98c-3.9,0-17.22-1.27-17.36-1.29-.06,0-.11-.06-.1-.12,0-.06.06-.11.12-.1.13.01,13.44,1.29,17.34,1.29.03,0,.06,0,.09,0,2.36-.01,11-1.39,11.08-1.41.06,0,.12.03.13.09,0,.06-.03.12-.09.13-.09.01-8.74,1.4-11.12,1.41-.03,0-.06,0-.09,0h0Z" fill="#bbc9e8" stroke="#6d6e71" stroke-miterlimit="10" stroke-width=".5"/><path d="M511.66,475.27c0,.19.81.35,1.82.35s1.82-.16,1.82-.35-.81-.35-1.82-.35-1.82.16-1.82.35h0Z" fill="#bbc9e8" stroke="#6d6e71" stroke-miterlimit="10" stroke-width=".5"/><path d="M515,505.95c-3.3,0-10.24-.09-13.49-2.84-.05-.04-.05-.11-.01-.16.04-.05.11-.05.16-.01,3.3,2.8,10.59,2.8,13.69,2.79h.29c2.94,0,5.34-.73,5.36-.74.06-.02.12.02.14.07.02.06-.01.12-.07.14-.02,0-2.46.75-5.43.75h-.29c-.11,0-.23,0-.35,0h0Z" fill="#bbc9e8" stroke="#6d6e71" stroke-miterlimit="10" stroke-width=".5"/><path d="M499.04,522.78s-.06-.01-.09-.04c-.04-.05-.03-.12.01-.16,5.83-4.85,9.29-10.23,9.32-10.29.03-.05.1-.07.15-.03.05.03.07.1.03.15-.03.05-3.51,5.46-9.37,10.34-.02.02-.05.03-.07.03h0Z" fill="#bbc9e8" stroke="#6d6e71" stroke-miterlimit="10" stroke-width=".5"/><path d="M495.4,513.33c-1.14,0-2.29-.04-3.45-.11-.06,0-.11-.06-.1-.12,0-.06.05-.11.12-.1,11.13.75,21.78-2.51,21.88-2.54.06-.02.12.01.14.07.02.06-.01.12-.07.14-.1.03-8.69,2.66-18.52,2.66h0Z" fill="#bbc9e8" stroke="#6d6e71" stroke-miterlimit="10" stroke-width=".5"/><path d="M507.13,531.38s-.02,0-.02,0c-.06-.01-.1-.07-.09-.13l4.31-19.92c.01-.06.07-.1.13-.09.06.01.1.07.09.13l-4.31,19.92c-.01.05-.06.09-.11.09h0Z" fill="#bbc9e8" stroke="#6d6e71" stroke-miterlimit="10" stroke-width=".5"/><path d="M483.69,512s-.02,0-.03,0c-1.25-.4-2.19-1.32-2.22-1.36-.04-.04-.04-.11,0-.16.04-.04.11-.04.16,0,0,0,.93.91,2.14,1.3.06.02.09.08.07.14-.02.05-.06.08-.11.08h0Z" fill="#bbc9e8" stroke="#6d6e71" stroke-miterlimit="10" stroke-width=".5"/><path d="M498.08,502.27c-3.55.24-12.39,1.08-16.13,3.57-1.92,1.28-2.01,2.82-1.59,3.44.87,1.28,3.44,2.26,9.37,2.61,5.93.35,17.4-.7,20.08-1.94,0,0,.38-.92.7-1.24.32-.32,1.1-.89-1.22-1.85-9.3-3.84-9.42-4.71-11.21-4.59h0Z" fill="#f5f7fc" stroke="#6d6e71" stroke-miterlimit="10" stroke-width=".5"/><path d="M510.99,507.69s2.85-.51,2.89-9.41c.04-7.65-1.59-21.13-9.34-21.32-7.75-.19-7.58,22.81-5.51,25.37l11.96,5.37h0Z" fill="#f5f7fc" stroke="#6d6e71" stroke-miterlimit="10" stroke-width=".5"/><path d="M505.85,507.69c-.51.88-18.17,2.6-21.35.5-3.7-2.44,10.84-4.43,12.88-4.4,1.5.02,9.2,2.64,8.48,3.9h0Z" fill="#dfe5f4" stroke="#6d6e71" stroke-miterlimit="10" stroke-width=".5"/><path d="M510.71,507.8s-.03,0-.05-.01c-.11-.05-11.03-5.08-11.67-5.37-.06-.03-.08-.09-.06-.15.03-.06.09-.08.15-.06.64.29,11.56,5.32,11.67,5.37.06.03.08.09.05.15-.02.04-.06.06-.1.06h0Z" fill="#dfe5f4" stroke="#6d6e71" stroke-miterlimit="10" stroke-width=".5"/><path d="M505.28,510.28c-.05,0-.1-.04-.11-.09-.01-.06.03-.12.09-.13,2.63-.44,5.18-1.45,5.2-1.46.06-.02.12,0,.14.06.02.06,0,.12-.06.14-.03.01-2.59,1.03-5.25,1.47,0,0-.01,0-.02,0h0Z" fill="#dfe5f4" stroke="#6d6e71" stroke-miterlimit="10" stroke-width=".5"/><path d="M510.51,506.9s-.05,0-.07-.03c-.05-.04-.05-.11-.01-.16.02-.03,2.45-3,1.82-10.95,0-.06.04-.11.1-.12.06,0,.12.04.12.1.63,8.05-1.77,10.99-1.87,11.11-.02.03-.05.04-.08.04h0Z" fill="#dfe5f4" stroke="#6d6e71" stroke-miterlimit="10" stroke-width=".5"/><path d="M510.51,485.1s-.09-.03-.11-.08c-.02-.06-1.68-6.34-5.15-7.45-.06-.02-.09-.08-.07-.14.02-.06.08-.09.14-.07,3.59,1.15,5.23,7.34,5.3,7.6.02.06-.02.12-.08.14,0,0-.02,0-.03,0h0Z" fill="#dfe5f4" stroke="#6d6e71" stroke-miterlimit="10" stroke-width=".5"/><path d="M472.9,528.05c-.91.88-2,4.7-2,4.7l1.89,1.05s.93-2.7,1.89-2.54c.96.17,8.32,3.16,8.55,3.97.24.82-.11,3.67-.11,3.67l1.93,1.11,1.99-.52s-.43-3.08.13-3.96c.55-.89,5.66-1.82,6.3-1.57s1.11,3.34,1.11,3.34l2.04-.67s-.45-4.53-1.49-5.82c0,0-21.32-3.65-22.23-2.77h0Z" fill="#7c9cc9" stroke="#6d6e71" stroke-miterlimit="10" stroke-width=".5"/><path d="M495.13,530.82c.72.6-8.78,3.61-9.97,3.61s-12.4-5.51-12.37-6.16c.05-1.07,7.79-2.69,9.01-2.61,1.22.08,12.04,4.06,13.33,5.15h0Z" fill="#93adda" stroke="#6d6e71" stroke-miterlimit="10" stroke-width=".5"/><circle cx="697.87" cy="96.67" r="51.46" fill="#54c5cc" stroke="#009eac" stroke-miterlimit="10" stroke-width="5"/><path d="M717.05,93.01s-.19,2.87-1.34,3.63c-1.15.77-5.55,1.34-5.55,1.34,0,0-1.06,6.88-.92,13.16.1,4.61,2.14,9.41,1.82,10.56-.32,1.15-3.95,3.06-8.92,3.82-4.97.76-13.45,0-14.6-1.34-1.15-1.34,1.72-4.59,1.34-8.41-.4-4.01-5.68-5.81-9.18-11.09-2.78-4.21-3.82-7.27-1.15-9.37,2.68-2.1,23.01-3.82,23.01-3.82l15.49,1.53h0Z" fill="#dfe5f4" stroke="#6d6e71" stroke-miterlimit="10" stroke-width=".5"/><path d="M719.86,93.01c-.51,1.35-5.9,2.29-8.45,2.29-3.06,0-12.78-1.29-14.06-2.82-1.27-1.53-2.77-23.65-2.52-25.43.25-1.78,7.11-3.22,12.75-3.2,6.17.02,14.51,1.04,15.78,3.08,1.27,2.04-2.75,24.04-3.51,26.08h0Z" fill="#dfe5f4" stroke="#6d6e71" stroke-miterlimit="10" stroke-width=".5"/><path d="M712.18,68.46c-3.9,0-17.22-1.27-17.36-1.29-.06,0-.11-.06-.1-.12,0-.06.06-.11.12-.1.13.01,13.44,1.29,17.34,1.29.03,0,.06,0,.09,0,2.36-.01,11-1.39,11.08-1.41.06,0,.12.03.13.09,0,.06-.03.12-.09.13-.09.01-8.74,1.4-11.12,1.41-.03,0-.06,0-.09,0h0Z" fill="#bbc9e8" stroke="#6d6e71" stroke-miterlimit="10" stroke-width=".5"/><path d="M707.43,64.74c0,.19.81.35,1.82.35s1.82-.16,1.82-.35-.81-.35-1.82-.35-1.82.16-1.82.35h0Z" fill="#bbc9e8" stroke="#6d6e71" stroke-miterlimit="10" stroke-width=".5"/><path d="M710.77,95.42c-3.3,0-10.24-.09-13.49-2.84-.05-.04-.05-.11-.01-.16.04-.05.11-.05.16-.01,3.3,2.8,10.59,2.8,13.69,2.79h.29c2.94,0,5.34-.73,5.36-.74.06-.02.12.02.14.07.02.06-.01.12-.07.14-.02,0-2.46.75-5.43.75h-.29c-.11,0-.23,0-.35,0h0Z" fill="#bbc9e8" stroke="#6d6e71" stroke-miterlimit="10" stroke-width=".5"/><path d="M694.81,112.25s-.06-.01-.09-.04c-.04-.05-.03-.12.01-.16,5.83-4.85,9.29-10.23,9.32-10.29.03-.05.1-.07.15-.03.05.03.07.1.03.15-.03.05-3.51,5.46-9.37,10.34-.02.02-.05.03-.07.03h0Z" fill="#bbc9e8" stroke="#6d6e71" stroke-miterlimit="10" stroke-width=".5"/><path d="M691.17,102.8c-1.14,0-2.29-.04-3.45-.11-.06,0-.11-.06-.1-.12,0-.06.05-.11.12-.1,11.13.75,21.78-2.51,21.88-2.54.06-.02.12.01.14.07.02.06-.01.12-.07.14-.1.03-8.69,2.66-18.52,2.66h0Z" fill="#bbc9e8" stroke="#6d6e71" stroke-miterlimit="10" stroke-width=".5"/><path d="M702.9,120.86s-.02,0-.02,0c-.06-.01-.1-.07-.09-.13l4.31-19.92c.01-.06.07-.1.13-.09.06.01.1.07.09.13l-4.31,19.92c-.01.05-.06.09-.11.09h0Z" fill="#bbc9e8" stroke="#6d6e71" stroke-miterlimit="10" stroke-width=".5"/><path d="M679.46,101.47s-.02,0-.03,0c-1.25-.4-2.19-1.32-2.22-1.36-.04-.04-.04-.11,0-.16.04-.04.11-.04.16,0,0,0,.93.91,2.14,1.3.06.02.09.08.07.14-.02.05-.06.08-.11.08h0Z" fill="#bbc9e8" stroke="#6d6e71" stroke-miterlimit="10" stroke-width=".5"/><path d="M693.85,91.74c-3.55.24-12.39,1.08-16.13,3.57-1.92,1.28-2.01,2.82-1.59,3.44.87,1.28,3.44,2.26,9.37,2.61,5.93.35,17.4-.7,20.08-1.94,0,0,.38-.92.7-1.24.32-.32,1.1-.89-1.22-1.85-9.3-3.84-9.42-4.71-11.21-4.59h0Z" fill="#f5f7fc" stroke="#6d6e71" stroke-miterlimit="10" stroke-width=".5"/><path d="M706.77,97.17s2.85-.51,2.89-9.41c.04-7.65-1.59-21.13-9.34-21.32-7.75-.19-7.58,22.81-5.51,25.37l11.96,5.37h0Z" fill="#f5f7fc" stroke="#6d6e71" stroke-miterlimit="10" stroke-width=".5"/><path d="M701.63,97.17c-.51.88-18.17,2.6-21.35.5-3.7-2.44,10.84-4.43,12.88-4.4,1.5.02,9.2,2.64,8.48,3.9h0Z" fill="#dfe5f4" stroke="#6d6e71" stroke-miterlimit="10" stroke-width=".5"/><path d="M706.48,97.28s-.03,0-.05-.01c-.11-.05-11.03-5.08-11.67-5.37-.06-.03-.08-.09-.06-.15.03-.06.09-.08.15-.06.64.29,11.56,5.32,11.67,5.37.06.03.08.09.05.15-.02.04-.06.06-.1.06h0Z" fill="#dfe5f4" stroke="#6d6e71" stroke-miterlimit="10" stroke-width=".5"/><path d="M701.05,99.75c-.05,0-.1-.04-.11-.09-.01-.06.03-.12.09-.13,2.63-.44,5.18-1.45,5.2-1.46.06-.02.12,0,.14.06.02.06,0,.12-.06.14-.03.01-2.59,1.03-5.25,1.47,0,0-.01,0-.02,0h0Z" fill="#dfe5f4" stroke="#6d6e71" stroke-miterlimit="10" stroke-width=".5"/><path d="M706.28,96.38s-.05,0-.07-.03c-.05-.04-.05-.11-.01-.16.02-.03,2.45-3,1.82-10.95,0-.06.04-.11.1-.12.06,0,.12.04.12.1.63,8.05-1.77,10.99-1.87,11.11-.02.03-.05.04-.08.04h0Z" fill="#dfe5f4" stroke="#6d6e71" stroke-miterlimit="10" stroke-width=".5"/><path d="M706.28,74.57s-.09-.03-.11-.08c-.02-.06-1.68-6.34-5.15-7.45-.06-.02-.09-.08-.07-.14.02-.06.08-.09.14-.07,3.59,1.15,5.23,7.34,5.3,7.6.02.06-.02.12-.08.14,0,0-.02,0-.03,0h0Z" fill="#dfe5f4" stroke="#6d6e71" stroke-miterlimit="10" stroke-width=".5"/><path d="M668.67,117.52c-.91.88-2,4.7-2,4.7l1.89,1.05s.93-2.7,1.89-2.54c.96.17,8.32,3.16,8.55,3.97.24.82-.11,3.67-.11,3.67l1.93,1.11,1.99-.52s-.43-3.08.13-3.96c.55-.89,5.66-1.82,6.3-1.57s1.11,3.34,1.11,3.34l2.04-.67s-.45-4.53-1.49-5.82c0,0-21.32-3.65-22.23-2.77h0Z" fill="#7c9cc9" stroke="#6d6e71" stroke-miterlimit="10" stroke-width=".5"/><path d="M690.9,120.29c.72.6-8.78,3.61-9.97,3.61s-12.4-5.51-12.37-6.16c.05-1.07,7.79-2.69,9.01-2.61,1.22.08,12.04,4.06,13.33,5.15h0Z" fill="#93adda" stroke="#6d6e71" stroke-miterlimit="10" stroke-width=".5"/><circle cx="696.79" cy="301.93" r="51.46" fill="#54c5cc" stroke="#009eac" stroke-miterlimit="10" stroke-width="5"/><path d="M715.97,298.28s-.19,2.87-1.34,3.63c-1.15.77-5.55,1.34-5.55,1.34,0,0-1.06,6.88-.92,13.16.1,4.61,2.14,9.41,1.82,10.56-.32,1.15-3.95,3.06-8.92,3.82-4.97.76-13.45,0-14.6-1.34-1.15-1.34,1.72-4.59,1.34-8.41-.4-4.01-5.68-5.81-9.18-11.09-2.78-4.21-3.82-7.27-1.15-9.37,2.68-2.1,23.01-3.82,23.01-3.82l15.49,1.53h0Z" fill="#dfe5f4" stroke="#6d6e71" stroke-miterlimit="10" stroke-width=".5"/><path d="M718.78,298.28c-.51,1.35-5.9,2.29-8.45,2.29-3.06,0-12.78-1.29-14.06-2.82-1.27-1.53-2.77-23.65-2.52-25.43.25-1.78,7.11-3.22,12.75-3.2,6.17.02,14.51,1.04,15.78,3.08,1.27,2.04-2.75,24.04-3.51,26.08h0Z" fill="#dfe5f4" stroke="#6d6e71" stroke-miterlimit="10" stroke-width=".5"/><path d="M711.1,273.72c-3.9,0-17.22-1.27-17.36-1.29-.06,0-.11-.06-.1-.12,0-.06.06-.11.12-.1.13.01,13.44,1.29,17.34,1.29.03,0,.06,0,.09,0,2.36-.01,11-1.39,11.08-1.41.06,0,.12.03.13.09,0,.06-.03.12-.09.13-.09.01-8.74,1.4-11.12,1.41-.03,0-.06,0-.09,0h0Z" fill="#bbc9e8" stroke="#6d6e71" stroke-miterlimit="10" stroke-width=".5"/><path d="M706.35,270.01c0,.19.81.35,1.82.35s1.82-.16,1.82-.35-.81-.35-1.82-.35-1.82.16-1.82.35h0Z" fill="#bbc9e8" stroke="#6d6e71" stroke-miterlimit="10" stroke-width=".5"/><path d="M709.69,300.68c-3.3,0-10.24-.09-13.49-2.84-.05-.04-.05-.11-.01-.16.04-.05.11-.05.16-.01,3.3,2.8,10.59,2.8,13.69,2.79h.29c2.94,0,5.34-.73,5.36-.74.06-.02.12.02.14.07.02.06-.01.12-.07.14-.02,0-2.46.75-5.43.75h-.29c-.11,0-.23,0-.35,0h0Z" fill="#bbc9e8" stroke="#6d6e71" stroke-miterlimit="10" stroke-width=".5"/><path d="M693.73,317.51s-.06-.01-.09-.04c-.04-.05-.03-.12.01-.16,5.83-4.85,9.29-10.23,9.32-10.29.03-.05.1-.07.15-.03.05.03.07.1.03.15-.03.05-3.51,5.46-9.37,10.34-.02.02-.05.03-.07.03h0Z" fill="#bbc9e8" stroke="#6d6e71" stroke-miterlimit="10" stroke-width=".5"/><path d="M690.09,308.06c-1.14,0-2.29-.04-3.45-.11-.06,0-.11-.06-.1-.12,0-.06.05-.11.12-.1,11.13.75,21.78-2.51,21.88-2.54.06-.02.12.01.14.07.02.06-.01.12-.07.14-.1.03-8.69,2.66-18.52,2.66h0Z" fill="#bbc9e8" stroke="#6d6e71" stroke-miterlimit="10" stroke-width=".5"/><path d="M701.82,326.12s-.02,0-.02,0c-.06-.01-.1-.07-.09-.13l4.31-19.92c.01-.06.07-.1.13-.09.06.01.1.07.09.13l-4.31,19.92c-.01.05-.06.09-.11.09h0Z" fill="#bbc9e8" stroke="#6d6e71" stroke-miterlimit="10" stroke-width=".5"/><path d="M678.38,306.74s-.02,0-.03,0c-1.25-.4-2.19-1.32-2.22-1.36-.04-.04-.04-.11,0-.16.04-.04.11-.04.16,0,0,0,.93.91,2.14,1.3.06.02.09.08.07.14-.02.05-.06.08-.11.08h0Z" fill="#bbc9e8" stroke="#6d6e71" stroke-miterlimit="10" stroke-width=".5"/><path d="M692.77,297c-3.55.24-12.39,1.08-16.13,3.57-1.92,1.28-2.01,2.82-1.59,3.44.87,1.28,3.44,2.26,9.37,2.61,5.93.35,17.4-.7,20.08-1.94,0,0,.38-.92.7-1.24.32-.32,1.1-.89-1.22-1.85-9.3-3.84-9.42-4.71-11.21-4.59h0Z" fill="#f5f7fc" stroke="#6d6e71" stroke-miterlimit="10" stroke-width=".5"/><path d="M705.68,302.43s2.85-.51,2.89-9.41c.04-7.65-1.59-21.13-9.34-21.32-7.75-.19-7.58,22.81-5.51,25.37l11.96,5.37h0Z" fill="#f5f7fc" stroke="#6d6e71" stroke-miterlimit="10" stroke-width=".5"/><path d="M700.54,302.43c-.51.88-18.17,2.6-21.35.5-3.7-2.44,10.84-4.43,12.88-4.4,1.5.02,9.2,2.64,8.48,3.9h0Z" fill="#dfe5f4" stroke="#6d6e71" stroke-miterlimit="10" stroke-width=".5"/><path d="M705.4,302.54s-.03,0-.05-.01c-.11-.05-11.03-5.08-11.67-5.37-.06-.03-.08-.09-.06-.15.03-.06.09-.08.15-.06.64.29,11.56,5.32,11.67,5.37.06.03.08.09.05.15-.02.04-.06.06-.1.06h0Z" fill="#dfe5f4" stroke="#6d6e71" stroke-miterlimit="10" stroke-width=".5"/><path d="M699.97,305.02c-.05,0-.1-.04-.11-.09-.01-.06.03-.12.09-.13,2.63-.44,5.18-1.45,5.2-1.46.06-.02.12,0,.14.06.02.06,0,.12-.06.14-.03.01-2.59,1.03-5.25,1.47,0,0-.01,0-.02,0h0Z" fill="#dfe5f4" stroke="#6d6e71" stroke-miterlimit="10" stroke-width=".5"/><path d="M705.2,301.64s-.05,0-.07-.03c-.05-.04-.05-.11-.01-.16.02-.03,2.45-3,1.82-10.95,0-.06.04-.11.1-.12.06,0,.12.04.12.1.63,8.05-1.77,10.99-1.87,11.11-.02.03-.05.04-.08.04h0Z" fill="#dfe5f4" stroke="#6d6e71" stroke-miterlimit="10" stroke-width=".5"/><path d="M705.2,279.84s-.09-.03-.11-.08c-.02-.06-1.68-6.34-5.15-7.45-.06-.02-.09-.08-.07-.14.02-.06.08-.09.14-.07,3.59,1.15,5.23,7.34,5.3,7.6.02.06-.02.12-.08.14,0,0-.02,0-.03,0h0Z" fill="#dfe5f4" stroke="#6d6e71" stroke-miterlimit="10" stroke-width=".5"/><path d="M667.59,322.78c-.91.88-2,4.7-2,4.7l1.89,1.05s.93-2.7,1.89-2.54c.96.17,8.32,3.16,8.55,3.97.24.82-.11,3.67-.11,3.67l1.93,1.11,1.99-.52s-.43-3.08.13-3.96c.55-.89,5.66-1.82,6.3-1.57s1.11,3.34,1.11,3.34l2.04-.67s-.45-4.53-1.49-5.82c0,0-21.32-3.65-22.23-2.77h0Z" fill="#7c9cc9" stroke="#6d6e71" stroke-miterlimit="10" stroke-width=".5"/><path d="M689.82,325.55c.72.6-8.78,3.61-9.97,3.61s-12.4-5.51-12.37-6.16c.05-1.07,7.79-2.69,9.01-2.61,1.22.08,12.04,4.06,13.33,5.15h0Z" fill="#93adda" stroke="#6d6e71" stroke-miterlimit="10" stroke-width=".5"/><circle cx="700.54" cy="507.2" r="51.46" fill="#54c5cc" stroke="#009eac" stroke-miterlimit="10" stroke-width="5"/><path d="M719.72,503.54s-.19,2.87-1.34,3.63c-1.15.77-5.55,1.34-5.55,1.34,0,0-1.06,6.88-.92,13.16.1,4.61,2.14,9.41,1.82,10.56-.32,1.15-3.95,3.06-8.92,3.82-4.97.76-13.45,0-14.6-1.34-1.15-1.34,1.72-4.59,1.34-8.41-.4-4.01-5.68-5.81-9.18-11.09-2.78-4.21-3.82-7.27-1.15-9.37,2.68-2.1,23.01-3.82,23.01-3.82l15.49,1.53h0Z" fill="#dfe5f4" stroke="#6d6e71" stroke-miterlimit="10" stroke-width=".5"/><path d="M722.53,503.54c-.51,1.35-5.9,2.29-8.45,2.29-3.06,0-12.78-1.29-14.06-2.82-1.27-1.53-2.77-23.65-2.52-25.43.25-1.78,7.11-3.22,12.75-3.2,6.17.02,14.51,1.04,15.78,3.08,1.27,2.04-2.75,24.04-3.51,26.08h0Z" fill="#dfe5f4" stroke="#6d6e71" stroke-miterlimit="10" stroke-width=".5"/><path d="M714.85,478.98c-3.9,0-17.22-1.27-17.36-1.29-.06,0-.11-.06-.1-.12,0-.06.06-.11.12-.1.13.01,13.44,1.29,17.34,1.29.03,0,.06,0,.09,0,2.36-.01,11-1.39,11.08-1.41.06,0,.12.03.13.09,0,.06-.03.12-.09.13-.09.01-8.74,1.4-11.12,1.41-.03,0-.06,0-.09,0h0Z" fill="#bbc9e8" stroke="#6d6e71" stroke-miterlimit="10" stroke-width=".5"/><path d="M710.1,475.27c0,.19.81.35,1.82.35s1.82-.16,1.82-.35-.81-.35-1.82-.35-1.82.16-1.82.35h0Z" fill="#bbc9e8" stroke="#6d6e71" stroke-miterlimit="10" stroke-width=".5"/><path d="M713.44,505.95c-3.3,0-10.24-.09-13.49-2.84-.05-.04-.05-.11-.01-.16.04-.05.11-.05.16-.01,3.3,2.8,10.59,2.8,13.69,2.79h.29c2.94,0,5.34-.73,5.36-.74.06-.02.12.02.14.07.02.06-.01.12-.07.14-.02,0-2.46.75-5.43.75h-.29c-.11,0-.23,0-.35,0h0Z" fill="#bbc9e8" stroke="#6d6e71" stroke-miterlimit="10" stroke-width=".5"/><path d="M697.48,522.78s-.06-.01-.09-.04c-.04-.05-.03-.12.01-.16,5.83-4.85,9.29-10.23,9.32-10.29.03-.05.1-.07.15-.03.05.03.07.1.03.15-.03.05-3.51,5.46-9.37,10.34-.02.02-.05.03-.07.03h0Z" fill="#bbc9e8" stroke="#6d6e71" stroke-miterlimit="10" stroke-width=".5"/><path d="M693.85,513.33c-1.14,0-2.29-.04-3.45-.11-.06,0-.11-.06-.1-.12,0-.06.05-.11.12-.1,11.13.75,21.78-2.51,21.88-2.54.06-.02.12.01.14.07.02.06-.01.12-.07.14-.1.03-8.69,2.66-18.52,2.66h0Z" fill="#bbc9e8" stroke="#6d6e71" stroke-miterlimit="10" stroke-width=".5"/><path d="M705.57,531.38s-.02,0-.02,0c-.06-.01-.1-.07-.09-.13l4.31-19.92c.01-.06.07-.1.13-.09.06.01.1.07.09.13l-4.31,19.92c-.01.05-.06.09-.11.09h0Z" fill="#bbc9e8" stroke="#6d6e71" stroke-miterlimit="10" stroke-width=".5"/><path d="M682.13,512s-.02,0-.03,0c-1.25-.4-2.19-1.32-2.22-1.36-.04-.04-.04-.11,0-.16.04-.04.11-.04.16,0,0,0,.93.91,2.14,1.3.06.02.09.08.07.14-.02.05-.06.08-.11.08h0Z" fill="#bbc9e8" stroke="#6d6e71" stroke-miterlimit="10" stroke-width=".5"/><path d="M696.52,502.27c-3.55.24-12.39,1.08-16.13,3.57-1.92,1.28-2.01,2.82-1.59,3.44.87,1.28,3.44,2.26,9.37,2.61,5.93.35,17.4-.7,20.08-1.94,0,0,.38-.92.7-1.24.32-.32,1.1-.89-1.22-1.85-9.3-3.84-9.42-4.71-11.21-4.59h0Z" fill="#f5f7fc" stroke="#6d6e71" stroke-miterlimit="10" stroke-width=".5"/><path d="M709.44,507.69s2.85-.51,2.89-9.41c.04-7.65-1.59-21.13-9.34-21.32-7.75-.19-7.58,22.81-5.51,25.37l11.96,5.37h0Z" fill="#f5f7fc" stroke="#6d6e71" stroke-miterlimit="10" stroke-width=".5"/><path d="M704.3,507.69c-.51.88-18.17,2.6-21.35.5-3.7-2.44,10.84-4.43,12.88-4.4,1.5.02,9.2,2.64,8.48,3.9h0Z" fill="#dfe5f4" stroke="#6d6e71" stroke-miterlimit="10" stroke-width=".5"/><path d="M709.15,507.8s-.03,0-.05-.01c-.11-.05-11.03-5.08-11.67-5.37-.06-.03-.08-.09-.06-.15.03-.06.09-.08.15-.06.64.29,11.56,5.32,11.67,5.37.06.03.08.09.05.15-.02.04-.06.06-.1.06h0Z" fill="#dfe5f4" stroke="#6d6e71" stroke-miterlimit="10" stroke-width=".5"/><path d="M703.72,510.28c-.05,0-.1-.04-.11-.09-.01-.06.03-.12.09-.13,2.63-.44,5.18-1.45,5.2-1.46.06-.02.12,0,.14.06.02.06,0,.12-.06.14-.03.01-2.59,1.03-5.25,1.47,0,0-.01,0-.02,0h0Z" fill="#dfe5f4" stroke="#6d6e71" stroke-miterlimit="10" stroke-width=".5"/><path d="M708.95,506.9s-.05,0-.07-.03c-.05-.04-.05-.11-.01-.16.02-.03,2.45-3,1.82-10.95,0-.06.04-.11.1-.12.06,0,.12.04.12.1.63,8.05-1.77,10.99-1.87,11.11-.02.03-.05.04-.08.04h0Z" fill="#dfe5f4" stroke="#6d6e71" stroke-miterlimit="10" stroke-width=".5"/><path d="M708.95,485.1s-.09-.03-.11-.08c-.02-.06-1.68-6.34-5.15-7.45-.06-.02-.09-.08-.07-.14.02-.06.08-.09.14-.07,3.59,1.15,5.23,7.34,5.3,7.6.02.06-.02.12-.08.14,0,0-.02,0-.03,0h0Z" fill="#dfe5f4" stroke="#6d6e71" stroke-miterlimit="10" stroke-width=".5"/><path d="M671.34,528.05c-.91.88-2,4.7-2,4.7l1.89,1.05s.93-2.7,1.89-2.54c.96.17,8.32,3.16,8.55,3.97.24.82-.11,3.67-.11,3.67l1.93,1.11,1.99-.52s-.43-3.08.13-3.96c.55-.89,5.66-1.82,6.3-1.57s1.11,3.34,1.11,3.34l2.04-.67s-.45-4.53-1.49-5.82c0,0-21.32-3.65-22.23-2.77h0Z" fill="#7c9cc9" stroke="#6d6e71" stroke-miterlimit="10" stroke-width=".5"/><path d="M693.57,530.82c.72.6-8.78,3.61-9.97,3.61s-12.4-5.51-12.37-6.16c.05-1.07,7.79-2.69,9.01-2.61,1.22.08,12.04,4.06,13.33,5.15h0Z" fill="#93adda" stroke="#6d6e71" stroke-miterlimit="10" stroke-width=".5"/></g><g id="Morning"><g clip-path="url(#clippath)"><polygon points="866.7 701.44 912.46 747.66 902.52 683.19 960.47 653.66 896.37 643.34 886.43 578.87 856.76 636.96 792.67 626.64 838.42 672.87 808.75 730.97 866.7 701.44" fill="#fbf284" stroke="#5e6bb2" stroke-miterlimit="10" stroke-width="2"/></g></g></svg>