<?xml version="1.0" encoding="UTF-8"?><svg id="Star_Tokens" xmlns="http://www.w3.org/2000/svg" viewBox="0 0 792 612"><polygon points="120.07 152.52 154.28 177.37 141.21 137.16 175.42 112.3 133.13 112.3 120.07 72.08 107 112.3 64.71 112.3 98.92 137.16 85.85 177.37 120.07 152.52" fill="#fbf284" stroke="#5e6bb2" stroke-miterlimit="10" stroke-width="2"/><polygon points="304.02 152.52 338.23 177.37 325.16 137.16 359.38 112.3 317.09 112.3 304.02 72.08 290.95 112.3 248.67 112.3 282.88 137.16 269.81 177.37 304.02 152.52" fill="#fbf284" stroke="#5e6bb2" stroke-miterlimit="10" stroke-width="2"/><polygon points="487.98 152.52 522.19 177.37 509.12 137.16 543.33 112.3 501.05 112.3 487.98 72.08 474.91 112.3 432.62 112.3 466.84 137.16 453.77 177.37 487.98 152.52" fill="#fbf284" stroke="#5e6bb2" stroke-miterlimit="10" stroke-width="2"/><polygon points="671.93 152.52 706.15 177.37 693.08 137.16 727.29 112.3 685 112.3 671.93 72.08 658.87 112.3 616.58 112.3 650.79 137.16 637.72 177.37 671.93 152.52" fill="#fbf284" stroke="#5e6bb2" stroke-miterlimit="10" stroke-width="2"/><polygon points="120.07 333.79 154.28 358.64 141.21 318.43 175.42 293.57 133.13 293.57 120.07 253.36 107 293.57 64.71 293.57 98.92 318.43 85.85 358.64 120.07 333.79" fill="#fbf284" stroke="#5e6bb2" stroke-miterlimit="10" stroke-width="2"/><polygon points="304.02 333.79 338.23 358.64 325.16 318.43 359.38 293.57 317.09 293.57 304.02 253.36 290.95 293.57 248.67 293.57 282.88 318.43 269.81 358.64 304.02 333.79" fill="#fbf284" stroke="#5e6bb2" stroke-miterlimit="10" stroke-width="2"/><polygon points="487.98 333.79 522.19 358.64 509.12 318.43 543.33 293.57 501.05 293.57 487.98 253.36 474.91 293.57 432.62 293.57 466.84 318.43 453.77 358.64 487.98 333.79" fill="#fbf284" stroke="#5e6bb2" stroke-miterlimit="10" stroke-width="2"/><polygon points="671.93 333.79 706.15 358.64 693.08 318.43 727.29 293.57 685 293.57 671.93 253.36 658.87 293.57 616.58 293.57 650.79 318.43 637.72 358.64 671.93 333.79" fill="#fbf284" stroke="#5e6bb2" stroke-miterlimit="10" stroke-width="2"/><polygon points="120.07 515.06 154.28 539.92 141.21 499.7 175.42 474.84 133.13 474.84 120.07 434.63 107 474.84 64.71 474.84 98.92 499.7 85.85 539.92 120.07 515.06" fill="#fbf284" stroke="#5e6bb2" stroke-miterlimit="10" stroke-width="2"/><polygon points="304.02 515.06 338.23 539.92 325.16 499.7 359.38 474.84 317.09 474.84 304.02 434.63 290.95 474.84 248.67 474.84 282.88 499.7 269.81 539.92 304.02 515.06" fill="#fbf284" stroke="#5e6bb2" stroke-miterlimit="10" stroke-width="2"/><polygon points="487.98 515.06 522.19 539.92 509.12 499.7 543.33 474.84 501.05 474.84 487.98 434.63 474.91 474.84 432.62 474.84 466.84 499.7 453.77 539.92 487.98 515.06" fill="#fbf284" stroke="#5e6bb2" stroke-miterlimit="10" stroke-width="2"/><polygon points="671.93 515.06 706.15 539.92 693.08 499.7 727.29 474.84 685 474.84 671.93 434.63 658.87 474.84 616.58 474.84 650.79 499.7 637.72 539.92 671.93 515.06" fill="#fbf284" stroke="#5e6bb2" stroke-miterlimit="10" stroke-width="2"/></svg>