<?xml version="1.0" encoding="UTF-8"?><svg id="Morning" xmlns="http://www.w3.org/2000/svg" xmlns:xlink="http://www.w3.org/1999/xlink" viewBox="0 0 306 396"><defs><clipPath id="clippath"><rect width="306" height="396" fill="none"/></clipPath></defs><g clip-path="url(#clippath)"><polygon points="280.89 65.49 331.32 84.73 301.7 39.42 335.37 -2.76 283.4 11.41 253.78 -33.9 251.27 20.17 199.3 34.35 249.73 53.6 247.22 107.67 280.89 65.49" fill="#fbf284" stroke="#5e6bb2" stroke-miterlimit="10" stroke-width="2"/><polygon points="41 351.89 82.77 345.27 45.09 326.08 51.71 284.31 21.81 314.21 -15.87 295.01 3.33 332.69 -26.57 362.59 15.19 355.98 34.39 393.65 41 351.89" fill="#fbf284" stroke="#5e6bb2" stroke-miterlimit="10" stroke-width="2"/><polygon points="14.7 37.37 60.46 83.59 50.52 19.12 108.47 -10.41 44.37 -20.73 34.43 -85.2 4.76 -27.11 -59.33 -37.43 -13.58 8.8 -43.25 66.9 14.7 37.37" fill="#fbf284" stroke="#5e6bb2" stroke-miterlimit="10" stroke-width="2"/><polygon points="99.22 53.65 119.92 50.37 101.25 40.85 104.53 20.15 89.7 34.97 71.03 25.46 80.54 44.13 65.72 58.95 86.42 55.67 95.94 74.35 99.22 53.65" fill="#fbf284" stroke="#5e6bb2" stroke-miterlimit="10" stroke-width="2"/><polygon points="87.07 389.45 107.77 386.17 89.1 376.65 92.38 355.95 77.56 370.77 58.88 361.26 68.39 379.93 53.57 394.75 74.28 391.48 83.79 410.15 87.07 389.45" fill="#fbf284" stroke="#5e6bb2" stroke-miterlimit="10" stroke-width="2"/><polygon points="281.81 387.64 332.24 406.88 302.62 361.57 336.29 319.39 284.31 333.56 254.7 288.25 252.19 342.32 200.22 356.5 250.64 375.75 248.14 429.82 281.81 387.64" fill="#fbf284" stroke="#5e6bb2" stroke-miterlimit="10" stroke-width="2"/><polygon points="301.56 301.64 317.5 299.11 303.12 291.79 305.65 275.85 294.24 287.26 279.86 279.93 287.19 294.31 275.78 305.72 291.71 303.2 299.04 317.57 301.56 301.64" fill="#fbf284" stroke="#5e6bb2" stroke-miterlimit="10" stroke-width="2"/><polygon points="79.73 312.34 93.91 310.09 81.12 303.57 83.37 289.4 73.22 299.55 60.43 293.03 66.94 305.82 56.79 315.97 70.97 313.72 77.49 326.51 79.73 312.34" fill="#fbf284" stroke="#5e6bb2" stroke-miterlimit="10" stroke-width="2"/><polygon points="185.29 32.55 203.06 21.44 182.15 19.99 177.07 -.35 169.22 19.09 148.31 17.63 164.38 31.1 156.53 50.54 174.3 39.42 190.36 52.89 185.29 32.55" fill="#fbf284" stroke="#5e6bb2" stroke-miterlimit="10" stroke-width="2"/><polygon points="24.43 88.06 39.25 85.69 25.9 78.91 28.27 64.09 17.65 74.71 4.29 67.93 11.08 81.28 .45 91.9 15.27 89.53 22.06 102.88 24.43 88.06" fill="#fbf284" stroke="#5e6bb2" stroke-miterlimit="10" stroke-width="2"/><path d="M104.99,203.07c-16.34-40.75-.33-86.44,35.87-108.66-18.92-5.99-39.95-5.71-59.81,2.25-45.51,18.25-67.62,69.94-49.37,115.45,18.25,45.51,69.94,67.62,115.45,49.37,4.77-1.91,9.27-4.19,13.5-6.79-24.44-7.74-45.36-25.96-55.64-51.62Z" fill="#fbf284" stroke="#5e6bb2" stroke-miterlimit="10" stroke-width="2"/><polygon points="187.33 132.51 202.09 149.31 200.02 127.04 220.57 118.19 198.75 113.28 196.68 91.01 185.26 110.24 163.44 105.32 178.21 122.12 166.79 141.36 187.33 132.51" fill="#fbf284" stroke="#5e6bb2" stroke-miterlimit="10" stroke-width="2"/><polygon points="149.07 133.92 160.37 137.59 153.38 127.98 160.37 118.36 149.07 122.03 142.08 112.42 142.08 124.3 130.77 127.98 142.08 131.65 142.08 143.53 149.07 133.92" fill="#fbf284" stroke="#5e6bb2" stroke-miterlimit="10" stroke-width="2"/><polygon points="234.11 142.3 245.41 145.97 238.43 136.36 245.41 126.74 234.11 130.42 227.12 120.8 227.12 132.69 215.82 136.36 227.12 140.03 227.12 151.92 234.11 142.3" fill="#fbf284" stroke="#5e6bb2" stroke-miterlimit="10" stroke-width="2"/><polygon points="234.24 230.31 249.01 247.11 246.94 224.84 267.48 215.99 245.66 211.07 243.59 188.8 232.18 208.04 210.36 203.12 225.12 219.92 213.7 239.15 234.24 230.31" fill="#fbf284" stroke="#5e6bb2" stroke-miterlimit="10" stroke-width="2"/><polygon points="198.34 256.67 209.29 261.3 203.15 251.12 210.94 242.14 199.36 244.83 193.23 234.65 192.21 246.49 180.63 249.18 191.58 253.81 190.56 265.65 198.34 256.67" fill="#fbf284" stroke="#5e6bb2" stroke-miterlimit="10" stroke-width="2"/><polygon points="171.45 273.69 181.72 279.68 176.93 268.8 185.8 260.89 173.97 262.08 169.19 251.2 166.67 262.81 154.84 264 165.11 269.99 162.58 281.61 171.45 273.69" fill="#fbf284" stroke="#5e6bb2" stroke-miterlimit="10" stroke-width="2"/><polygon points="269.41 182.46 280.72 186.14 273.73 176.52 280.72 166.91 269.41 170.58 262.43 160.96 262.43 172.85 251.12 176.52 262.43 180.19 262.43 192.08 269.41 182.46" fill="#fbf284" stroke="#5e6bb2" stroke-miterlimit="10" stroke-width="2"/><path d="M103.74,286.79v15.9h-3.67v-15.9h3.67Z" fill="#3c5daa" stroke="#5e6bb2" stroke-miterlimit="10" stroke-width=".5"/><path d="M121.79,292.06h3.43v10.63h-3.43v-1.29c-.93,1.43-2.26,1.64-3.15,1.64-1.53,0-2.81-.38-3.98-1.62-1.12-1.19-1.55-2.57-1.55-3.98,0-1.79.67-3.31,1.64-4.29.93-.93,2.22-1.45,3.7-1.45.9,0,2.36.21,3.34,1.55v-1.19ZM117.42,295.42c-.36.36-.79.98-.79,1.93s.41,1.57.71,1.91c.48.5,1.22.83,2.03.83.69,0,1.33-.29,1.79-.74.45-.43.83-1.1.83-2,0-.76-.29-1.48-.79-1.95-.52-.5-1.29-.74-1.91-.74-.74,0-1.43.31-1.88.76Z" fill="#3c5daa" stroke="#5e6bb2" stroke-miterlimit="10" stroke-width=".5"/><path d="M128.49,292.06h3.43v1.24c.88-1.33,2.17-1.5,2.98-1.5.45,0,1.29.05,2,.48.55.31,1,.83,1.29,1.48.26-.43.67-.93,1.36-1.36.74-.45,1.43-.6,2.26-.6,1.29,0,2.34.38,2.98,1,1.02.98,1.1,2.41,1.1,3.17v6.72h-3.43v-5.39c0-.55,0-1.5-.45-2.07-.29-.36-.74-.57-1.24-.57-.57,0-1.05.26-1.33.64-.45.57-.53,1.41-.53,2.1v5.29h-3.43v-5.53c0-.71-.02-1.55-.55-2.07-.36-.36-.79-.43-1.14-.43-.45,0-.86.12-1.19.43-.64.62-.67,1.81-.67,2.17v5.43h-3.43v-10.63Z" fill="#3c5daa" stroke="#5e6bb2" stroke-miterlimit="10" stroke-width=".5"/><path d="M161.83,294.78c-.52-.31-1.21-.6-1.88-.6-.36,0-.76.1-.98.31-.12.12-.21.31-.21.48,0,.24.17.38.33.48.24.14.6.21,1.02.36l.91.29c.6.19,1.22.43,1.76.93.62.57.83,1.22.83,2.03,0,1.41-.62,2.31-1.1,2.79-1.05,1.05-2.34,1.22-3.46,1.22-1.43,0-2.98-.31-4.36-1.53l1.46-2.31c.33.29.81.62,1.17.79.48.24.98.33,1.43.33.21,0,.76,0,1.07-.24.21-.17.36-.43.36-.69,0-.19-.07-.43-.38-.62-.24-.14-.55-.24-1.05-.38l-.86-.26c-.62-.19-1.26-.52-1.72-.98-.5-.52-.76-1.12-.76-1.93,0-1.03.41-1.88,1.03-2.46.95-.88,2.24-1.07,3.22-1.07,1.57,0,2.67.41,3.53.91l-1.36,2.17Z" fill="#3c5daa" stroke="#5e6bb2" stroke-miterlimit="10" stroke-width=".5"/><path d="M174.42,292.06h3.43v10.63h-3.43v-1.29c-.93,1.43-2.26,1.64-3.15,1.64-1.53,0-2.81-.38-3.98-1.62-1.12-1.19-1.55-2.57-1.55-3.98,0-1.79.67-3.31,1.64-4.29.93-.93,2.22-1.45,3.7-1.45.9,0,2.36.21,3.34,1.55v-1.19ZM170.06,295.42c-.36.36-.79.98-.79,1.93s.41,1.57.71,1.91c.48.5,1.22.83,2.03.83.69,0,1.33-.29,1.79-.74.45-.43.83-1.1.83-2,0-.76-.29-1.48-.79-1.95-.52-.5-1.29-.74-1.91-.74-.74,0-1.43.31-1.88.76Z" fill="#3c5daa" stroke="#5e6bb2" stroke-miterlimit="10" stroke-width=".5"/><path d="M184.84,294.82v7.87h-3.43v-7.87h-1.24v-2.76h1.24v-2.1c0-1.19.12-2.55,1.19-3.69.69-.74,1.67-1.22,2.98-1.22.76,0,1.38.14,1.95.36v3c-.38-.24-.88-.41-1.31-.41-.52,0-.86.24-1,.43-.38.5-.38,1.33-.38,1.83v1.79h2.72v2.76h-2.72Z" fill="#3c5daa" stroke="#5e6bb2" stroke-miterlimit="10" stroke-width=".5"/><path d="M200.38,297.97h-7.94c0,.57.21,1.33.64,1.81.52.57,1.24.67,1.76.67s1.03-.1,1.38-.31c.05-.02.45-.29.74-.88l3.24.33c-.48,1.5-1.43,2.29-2.05,2.67-1.03.62-2.17.79-3.36.79-1.6,0-3-.29-4.24-1.53-.93-.93-1.6-2.34-1.6-4.1,0-1.53.55-3.1,1.62-4.19,1.29-1.29,2.88-1.53,4.08-1.53s2.91.21,4.22,1.6c1.26,1.33,1.5,3,1.5,4.31v.36ZM197.21,295.92c-.02-.1-.19-.76-.69-1.24-.38-.36-.93-.6-1.62-.6-.88,0-1.41.36-1.74.69-.26.29-.5.67-.6,1.14h4.65Z" fill="#3c5daa" stroke="#5e6bb2" stroke-miterlimit="10" stroke-width=".5"/><path d="M211.22,285.53c1.12,0,2,.88,2,2s-.88,2-2,2-2-.88-2-2,.88-2,2-2ZM212.94,292.06v10.63h-3.43v-10.63h3.43Z" fill="#3c5daa" stroke="#5e6bb2" stroke-miterlimit="10" stroke-width=".5"/><path d="M216.45,292.06h3.43v1.26c1.05-1.33,2.29-1.55,3.29-1.55.93,0,2.14.17,3.05,1.07,1,1,1.07,2.26,1.07,3.12v6.72h-3.43v-5.46c0-.69-.02-1.57-.57-2.12-.26-.26-.69-.48-1.31-.48-.71,0-1.17.29-1.43.57-.57.57-.67,1.33-.67,2.03v5.46h-3.43v-10.63Z" fill="#3c5daa" stroke="#5e6bb2" stroke-miterlimit="10" stroke-width=".5"/><path d="M89.89,318.06h3.43v1.24c.88-1.33,2.17-1.5,2.98-1.5.45,0,1.29.05,2,.48.55.31,1,.83,1.29,1.48.26-.43.67-.93,1.36-1.36.74-.45,1.43-.6,2.26-.6,1.29,0,2.34.38,2.98,1,1.02.98,1.1,2.41,1.1,3.17v6.72h-3.43v-5.39c0-.55,0-1.5-.45-2.07-.29-.36-.74-.57-1.24-.57-.57,0-1.05.26-1.33.64-.45.57-.53,1.41-.53,2.1v5.29h-3.43v-5.53c0-.71-.02-1.55-.55-2.07-.36-.36-.79-.43-1.14-.43-.45,0-.86.12-1.19.43-.64.62-.67,1.81-.67,2.17v5.43h-3.43v-10.63Z" fill="#3c5daa" stroke="#5e6bb2" stroke-miterlimit="10" stroke-width=".5"/><path d="M113.87,327.33l-5.08-9.27h3.96l3,5.77,2.93-5.77h3.86l-8.56,16.09h-3.86l3.74-6.82Z" fill="#3c5daa" stroke="#5e6bb2" stroke-miterlimit="10" stroke-width=".5"/><path d="M138.76,321.42c-.83-.69-1.69-.81-2.24-.81-1.07,0-1.72.52-1.96.76-.45.45-.79,1.14-.79,2,0,.79.29,1.45.71,1.91.52.57,1.31.86,2.07.86.6,0,1.41-.17,2.19-.83v3.1c-.91.5-1.76.64-2.72.64-1.79,0-3.15-.64-4.12-1.6-.81-.79-1.67-2.12-1.67-4.05,0-1.81.76-3.24,1.76-4.2,1.19-1.12,2.6-1.5,4.05-1.5.93,0,1.79.17,2.69.6v3.12Z" fill="#3c5daa" stroke="#5e6bb2" stroke-miterlimit="10" stroke-width=".5"/><path d="M152.01,327.33c-.95.95-2.57,1.72-4.65,1.72s-3.7-.76-4.65-1.72c-1.07-1.07-1.6-2.6-1.6-3.96s.52-2.88,1.6-3.96c.95-.95,2.57-1.72,4.65-1.72s3.69.76,4.65,1.72c1.07,1.07,1.6,2.6,1.6,3.96s-.52,2.88-1.6,3.96ZM145.43,321.37c-.5.5-.79,1.14-.79,2,0,.98.38,1.6.79,2,.43.43,1.05.76,1.96.76.76,0,1.41-.26,1.91-.76.5-.5.79-1.14.79-2s-.29-1.5-.79-2c-.5-.5-1.14-.76-1.93-.76s-1.43.26-1.93.76Z" fill="#3c5daa" stroke="#5e6bb2" stroke-miterlimit="10" stroke-width=".5"/><path d="M160.85,325.83h5.03v2.86h-10.84l5.53-7.77h-4.7v-2.86h10.49l-5.51,7.77Z" fill="#3c5daa" stroke="#5e6bb2" stroke-miterlimit="10" stroke-width=".5"/><path d="M172.61,327.33l-5.08-9.27h3.96l3,5.77,2.93-5.77h3.86l-8.56,16.09h-3.86l3.74-6.82Z" fill="#3c5daa" stroke="#5e6bb2" stroke-miterlimit="10" stroke-width=".5"/><path d="M193.03,311.31v7.94c.86-1.17,2.14-1.55,3.31-1.55,1.46,0,2.77.55,3.7,1.43,1.03.98,1.67,2.43,1.67,4.2,0,1.64-.57,3.17-1.67,4.27-.93.95-2.07,1.45-3.65,1.45-1.88,0-2.84-.88-3.36-1.64v1.29h-3.43v-17.38h3.43ZM193.58,321.44c-.41.43-.76,1.05-.76,1.95s.38,1.53.79,1.91c.55.52,1.31.79,1.96.79.6,0,1.26-.24,1.79-.74.5-.48.83-1.17.83-1.95,0-.86-.33-1.55-.83-2.03-.55-.52-1.14-.71-1.84-.71-.74,0-1.38.21-1.93.79Z" fill="#3c5daa" stroke="#5e6bb2" stroke-miterlimit="10" stroke-width=".5"/><path d="M215.34,323.97h-7.94c0,.57.21,1.33.64,1.81.52.57,1.24.67,1.76.67s1.03-.1,1.38-.31c.05-.02.45-.29.74-.88l3.24.33c-.48,1.5-1.43,2.29-2.05,2.67-1.03.62-2.17.79-3.36.79-1.6,0-3-.29-4.24-1.53-.93-.93-1.6-2.34-1.6-4.1,0-1.53.55-3.1,1.62-4.19,1.29-1.29,2.88-1.53,4.08-1.53s2.91.21,4.22,1.6c1.26,1.33,1.5,3,1.5,4.31v.36ZM212.17,321.92c-.02-.1-.19-.76-.69-1.24-.38-.36-.93-.6-1.62-.6-.88,0-1.41.36-1.74.69-.26.29-.5.67-.6,1.14h4.65Z" fill="#3c5daa" stroke="#5e6bb2" stroke-miterlimit="10" stroke-width=".5"/><path d="M229.67,328.69h-3.43v-1.29c-.53.76-1.48,1.64-3.36,1.64-1.57,0-2.72-.5-3.65-1.45-1.1-1.1-1.67-2.62-1.67-4.27,0-1.76.64-3.22,1.67-4.2.93-.88,2.24-1.43,3.69-1.43,1.17,0,2.46.38,3.31,1.55v-7.94h3.43v17.38ZM221.92,321.37c-.5.48-.83,1.17-.83,2.03,0,.79.33,1.48.83,1.95.52.5,1.19.74,1.79.74.64,0,1.41-.26,1.96-.79.4-.38.79-1.02.79-1.91s-.36-1.53-.76-1.95c-.55-.57-1.19-.79-1.93-.79-.69,0-1.29.19-1.83.71Z" fill="#3c5daa" stroke="#5e6bb2" stroke-miterlimit="10" stroke-width=".5"/><path d="M235.01,324.73c1.22,0,2.17.95,2.17,2.17s-.95,2.17-2.17,2.17-2.17-.95-2.17-2.17.95-2.17,2.17-2.17Z" fill="#3c5daa" stroke="#5e6bb2" stroke-miterlimit="10" stroke-width=".5"/><path d="M69.9,159.92h10.47c2.05,0,5.25.22,7.16,2.02.58.54,1.84,1.98,1.84,4.68,0,.9-.11,2.2-1.01,3.31-.47.58-1.22,1.15-2.09,1.48l-.04.22c.97.25,1.76.72,2.52,1.44,1.19,1.15,1.76,2.45,1.76,4.18,0,1.87-.61,3.53-2.27,4.86-2.02,1.62-4.46,1.84-6.16,1.84h-12.2v-24.01ZM77.96,169.13h1.37c.5,0,1.26-.14,1.66-.54.22-.22.47-.61.47-1.26,0-.68-.32-1.08-.54-1.26-.47-.36-1.26-.4-1.58-.4h-1.37v3.46ZM77.96,178.13h1.76c.5,0,1.26-.04,1.84-.4.43-.29.83-.83.83-1.62,0-.61-.25-1.12-.65-1.44-.58-.47-1.44-.5-1.91-.5h-1.87v3.96Z" fill="#3c5daa"/><path d="M94.27,183.93v-24.01h16.2v6.59h-7.49v2.23h6.8v6.3h-6.8v2.3h7.7v6.59h-16.41Z" fill="#3c5daa"/><path d="M114.43,183.93v-24.01h9.25c2.02,0,7.13.18,10.62,3.63,1.55,1.55,3.24,4.25,3.24,8.67,0,2.48-.47,5.69-3.1,8.32-1.44,1.48-4.25,3.38-8.6,3.38h-11.41ZM123.07,176.58h.65c1.01,0,2.48-.04,3.71-1.12.83-.72,1.4-1.94,1.4-3.46s-.61-2.84-1.4-3.6c-1.04-.97-2.41-1.15-3.42-1.15h-.94v9.32Z" fill="#3c5daa"/><path d="M143.98,183.93v-16.41l-4.9.22v-7.81h18.36v7.81l-4.9-.22v16.41h-8.57Z" fill="#3c5daa"/><path d="M160.11,183.93v-24.01h8.71v24.01h-8.71Z" fill="#3c5daa"/><path d="M172.67,183.93l3.89-24.01h8.96l2.81,9.83c.36,1.26.5,2.45.54,2.77h.22c.04-1.04.18-1.76.47-2.77l2.81-9.83h8.89l3.92,24.01h-8.39l-1.08-10.76c-.07-.83-.14-1.37-.14-2.38h-.14c-.11.61-.32,1.55-.47,2.02l-3.56,11.12h-5.11l-3.2-10.51c-.25-.86-.43-1.62-.47-2.63h-.25c0,.47,0,1.4-.04,1.87l-1.19,11.27h-8.46Z" fill="#3c5daa"/><path d="M209.04,183.93v-24.01h16.2v6.59h-7.49v2.23h6.8v6.3h-6.8v2.3h7.7v6.59h-16.41Z" fill="#3c5daa"/><path d="M103.38,219.93v-24.01h11.52c3.82,0,6.01,1.55,7.02,2.52,1.98,1.94,2.45,4.39,2.45,6.3s-.43,4.25-2.38,6.01c-1.91,1.73-4.07,1.94-5.9,1.94h-4.21v7.24h-8.49ZM111.87,206.64h1.48c.43,0,1.33-.04,1.94-.65.32-.29.58-.76.58-1.48,0-.76-.32-1.22-.65-1.48-.4-.32-1.12-.54-1.76-.54h-1.58v4.14Z" fill="#3c5daa"/><path d="M133.04,216.94l-.65,2.99h-9.21l8.32-24.01h9.65l8.57,24.01h-9.25l-.79-2.99h-6.62ZM136.57,203.94h-.32c-.04,1.01-.18,1.84-.4,2.7l-1.19,4.61h3.49l-1.12-4.61c-.22-.94-.36-1.84-.47-2.7Z" fill="#3c5daa"/><path d="M167.49,203.58c-1.04-.72-2.95-1.8-4.9-1.8-.47,0-1.19.07-1.66.43-.32.25-.43.5-.43.86,0,.5.07.97,1.4,1.26l2.77.61c2.12.47,3.38,1.33,4.1,2.05,1.51,1.48,1.84,3.31,1.84,4.75,0,2.05-.54,3.96-2.16,5.65-1.37,1.4-3.96,3.06-8.46,3.06-3.67,0-6.12-1.04-8.17-1.87l-.79-.32,2.63-6.77.94.72c.9.68,2.74,1.76,4.86,1.76,1.19,0,1.69-.29,1.87-.43.4-.32.47-.72.47-1.08,0-.22-.04-.58-.29-.83-.29-.29-.76-.4-1.66-.58l-2.12-.4c-1.37-.25-2.84-.68-4.18-2.05-1.22-1.26-1.73-2.7-1.73-4.43,0-2.23.76-4.14,2.34-5.72,1.83-1.87,4.54-3.1,8.35-3.1,1.91,0,4.39.32,7.31,2.09l-2.34,6.12Z" fill="#3c5daa"/><path d="M188.84,203.58c-1.04-.72-2.95-1.8-4.9-1.8-.47,0-1.19.07-1.66.43-.32.25-.43.5-.43.86,0,.5.07.97,1.4,1.26l2.77.61c2.12.47,3.38,1.33,4.1,2.05,1.51,1.48,1.84,3.31,1.84,4.75,0,2.05-.54,3.96-2.16,5.65-1.37,1.4-3.96,3.06-8.46,3.06-3.67,0-6.12-1.04-8.17-1.87l-.79-.32,2.63-6.77.94.72c.9.68,2.74,1.76,4.86,1.76,1.19,0,1.69-.29,1.87-.43.4-.32.47-.72.47-1.08,0-.22-.04-.58-.29-.83-.29-.29-.76-.4-1.66-.58l-2.12-.4c-1.37-.25-2.84-.68-4.18-2.05-1.22-1.26-1.73-2.7-1.73-4.43,0-2.23.76-4.14,2.34-5.72,1.83-1.87,4.54-3.1,8.35-3.1,1.91,0,4.39.32,7.31,2.09l-2.34,6.12Z" fill="#3c5daa"/><rect width="306" height="396" fill="none"/><rect x="9.41" y="7.36" width="288.11" height="379.2" fill="none" stroke="#3c5daa" stroke-miterlimit="10" stroke-width="5"/><rect x="7.54" y="8.73" width="288.03" height="380.63" fill="none" stroke="#5e6bb2" stroke-miterlimit="10" stroke-width="5"/></g></svg>