<?xml version="1.0" encoding="UTF-8"?><svg xmlns="http://www.w3.org/2000/svg" xmlns:xlink="http://www.w3.org/1999/xlink" viewBox="0 0 792 612"><defs><clipPath id="clippath"><rect x="852" width="306" height="396" fill="none"/></clipPath></defs><g id="Stay_in_Bed"><g id="SUMMER_Nights"><path d="M134.44,301.85c-19.05-47.51-.38-100.79,41.82-126.7-22.06-6.99-46.58-6.66-69.73,2.62-53.07,21.28-78.84,81.55-57.56,134.61,21.28,53.07,81.55,78.84,134.61,57.56,5.56-2.23,10.81-4.89,15.74-7.92-28.5-9.03-52.89-30.27-64.88-60.18Z" fill="#fbf284" stroke="#5e6bb2" stroke-miterlimit="10" stroke-width="2"/><polygon points="230.45 219.58 247.66 239.17 245.25 213.21 269.2 202.89 243.76 197.16 241.35 171.19 228.04 193.62 202.6 187.88 219.81 207.47 206.5 229.9 230.45 219.58" fill="#fbf284" stroke="#5e6bb2" stroke-miterlimit="10" stroke-width="2"/><polygon points="185.83 221.23 199.01 225.51 190.87 214.3 199.01 203.08 185.83 207.37 177.69 196.16 177.69 210.01 164.5 214.3 177.69 218.58 177.69 232.44 185.83 221.23" fill="#fbf284" stroke="#5e6bb2" stroke-miterlimit="10" stroke-width="2"/><polygon points="284.99 231 298.17 235.29 290.03 224.07 298.17 212.86 284.99 217.14 276.84 205.93 276.84 219.79 263.66 224.07 276.84 228.36 276.84 242.21 284.99 231" fill="#fbf284" stroke="#5e6bb2" stroke-miterlimit="10" stroke-width="2"/><polygon points="285.15 333.61 302.36 353.2 299.95 327.24 323.9 316.92 298.46 311.19 296.05 285.22 282.74 307.65 257.3 301.92 274.51 321.51 261.2 343.93 285.15 333.61" fill="#fbf284" stroke="#5e6bb2" stroke-miterlimit="10" stroke-width="2"/><polygon points="243.29 364.36 256.05 369.76 248.9 357.89 257.98 347.41 244.48 350.55 237.32 338.68 236.13 352.49 222.63 355.63 235.4 361.02 234.21 374.83 243.29 364.36" fill="#fbf284" stroke="#5e6bb2" stroke-miterlimit="10" stroke-width="2"/><polygon points="211.93 384.2 223.91 391.19 218.32 378.5 228.67 369.27 214.88 370.66 209.29 357.97 206.35 371.52 192.56 372.9 204.53 379.89 201.59 393.43 211.93 384.2" fill="#fbf284" stroke="#5e6bb2" stroke-miterlimit="10" stroke-width="2"/><polygon points="326.15 277.83 339.34 282.12 331.19 270.9 339.34 259.69 326.15 263.97 318.01 252.76 318.01 266.62 304.83 270.9 318.01 275.19 318.01 289.04 326.15 277.83" fill="#fbf284" stroke="#5e6bb2" stroke-miterlimit="10" stroke-width="2"/></g><g id="NUMBERED_STARS"><g id="STARS"><polygon points="547.68 398.77 589.45 392.16 551.77 372.96 558.38 331.19 528.48 361.09 490.81 341.9 510 379.57 480.1 409.47 521.87 402.86 541.07 440.54 547.68 398.77" fill="#fbf284" stroke="#5e6bb2" stroke-miterlimit="10" stroke-width="2"/><polygon points="702.62 455.03 744.81 457.96 712.41 430.79 728.23 391.58 692.38 414 659.98 386.83 670.22 427.86 634.37 450.28 676.55 453.21 686.8 494.24 702.62 455.03" fill="#fbf284" stroke="#5e6bb2" stroke-miterlimit="10" stroke-width="2"/><polygon points="577.8 536.19 602.65 570.4 602.65 528.11 642.87 515.05 602.65 501.98 602.65 459.69 577.8 493.9 537.58 480.84 562.44 515.05 537.58 549.26 577.8 536.19" fill="#fbf284" stroke="#5e6bb2" stroke-miterlimit="10" stroke-width="2"/><polygon points="428.6 306.14 456.51 337.91 452.61 295.81 491.44 279.08 450.19 269.78 446.28 227.68 424.7 264.04 383.44 254.75 411.35 286.51 389.77 322.87 428.6 306.14" fill="#fbf284" stroke="#5e6bb2" stroke-miterlimit="10" stroke-width="2"/><polygon points="133.16 489.93 163.06 519.83 156.44 478.07 194.12 458.87 152.35 452.25 145.74 410.49 126.54 448.16 84.78 441.55 114.68 471.45 95.48 509.13 133.16 489.93" fill="#fbf284" stroke="#5e6bb2" stroke-miterlimit="10" stroke-width="2"/><polygon points="361.42 426.76 399.1 445.96 379.9 408.28 409.8 378.38 368.03 385 348.84 347.32 342.22 389.08 300.46 395.7 338.13 414.9 331.52 456.66 361.42 426.76" fill="#fbf284" stroke="#5e6bb2" stroke-miterlimit="10" stroke-width="2"/><polygon points="277.76 531.48 314.29 552.79 297.26 514.08 328.81 485.93 286.73 490.16 269.71 451.45 260.73 492.78 218.66 497.01 255.18 518.32 246.21 559.64 277.76 531.48" fill="#fbf284" stroke="#5e6bb2" stroke-miterlimit="10" stroke-width="2"/><polygon points="691.3 308.52 730.67 323.55 707.55 288.17 733.84 255.24 693.26 266.3 670.14 230.93 668.18 273.15 627.6 284.21 666.97 299.24 665.02 341.46 691.3 308.52" fill="#fbf284" stroke="#5e6bb2" stroke-miterlimit="10" stroke-width="2"/><polygon points="432.62 548.2 466.84 573.06 453.77 532.84 487.98 507.99 445.69 507.99 432.62 467.77 419.56 507.99 377.27 507.99 411.48 532.84 398.41 573.06 432.62 548.2" fill="#fbf284" stroke="#5e6bb2" stroke-miterlimit="10" stroke-width="2"/><polygon points="559.62 252.99 593.83 277.84 580.76 237.63 614.97 212.77 572.69 212.77 559.62 172.55 546.55 212.77 504.27 212.77 538.48 237.63 525.41 277.84 559.62 252.99" fill="#fbf284" stroke="#5e6bb2" stroke-miterlimit="10" stroke-width="2"/><polygon points="211.51 311.51 249.19 330.71 229.99 293.03 259.89 263.13 218.13 269.75 198.93 232.07 192.31 273.84 150.55 280.45 188.22 299.65 181.61 341.41 211.51 311.51" fill="#fbf284" stroke="#5e6bb2" stroke-miterlimit="10" stroke-width="2"/></g></g><path d="M242.41,140.34v15.9h-3.67v-15.9h3.67Z" fill="#3c5daa" stroke="#5e6bb2" stroke-miterlimit="10" stroke-width=".5"/><path d="M262.39,148.32c-.52-.31-1.22-.6-1.88-.6-.36,0-.76.09-.98.31-.12.12-.21.31-.21.48,0,.24.17.38.33.48.24.14.6.21,1.02.36l.91.29c.6.19,1.22.43,1.76.93.62.57.83,1.21.83,2.03,0,1.41-.62,2.31-1.1,2.79-1.05,1.05-2.33,1.21-3.46,1.21-1.43,0-2.98-.31-4.36-1.53l1.45-2.31c.33.29.81.62,1.17.79.48.24.98.33,1.43.33.21,0,.76,0,1.07-.24.21-.17.36-.43.36-.69,0-.19-.07-.43-.38-.62-.24-.14-.55-.24-1.05-.38l-.86-.26c-.62-.19-1.26-.52-1.72-.98-.5-.52-.76-1.12-.76-1.93,0-1.02.41-1.88,1.03-2.46.95-.88,2.24-1.07,3.22-1.07,1.57,0,2.67.41,3.53.91l-1.36,2.17Z" fill="#3c5daa" stroke="#5e6bb2" stroke-miterlimit="10" stroke-width=".5"/><path d="M272.14,148.37v7.87h-3.43v-7.87h-1.19v-2.76h1.19v-3.43h3.43v3.43h2.12v2.76h-2.12Z" fill="#3c5daa" stroke="#5e6bb2" stroke-miterlimit="10" stroke-width=".5"/><path d="M286.27,145.61h3.43v10.63h-3.43v-1.29c-.93,1.43-2.26,1.64-3.15,1.64-1.53,0-2.81-.38-3.98-1.62-1.12-1.19-1.55-2.57-1.55-3.98,0-1.79.67-3.31,1.64-4.29.93-.93,2.22-1.46,3.69-1.46.91,0,2.36.21,3.34,1.55v-1.19ZM281.91,148.97c-.36.36-.79.98-.79,1.93s.41,1.57.71,1.91c.48.5,1.22.83,2.03.83.69,0,1.33-.29,1.79-.74.45-.43.83-1.1.83-2,0-.76-.29-1.48-.79-1.95-.52-.5-1.29-.74-1.91-.74-.74,0-1.43.31-1.88.76Z" fill="#3c5daa" stroke="#5e6bb2" stroke-miterlimit="10" stroke-width=".5"/><path d="M298.55,154.88l-5.08-9.27h3.96l3,5.77,2.93-5.77h3.86l-8.56,16.09h-3.86l3.74-6.82Z" fill="#3c5daa" stroke="#5e6bb2" stroke-miterlimit="10" stroke-width=".5"/><path d="M321.98,151.52h-7.94c0,.57.21,1.33.64,1.81.52.57,1.24.67,1.76.67s1.03-.1,1.38-.31c.05-.02.45-.29.74-.88l3.24.33c-.48,1.5-1.43,2.29-2.05,2.67-1.03.62-2.17.79-3.36.79-1.6,0-3-.29-4.24-1.53-.93-.93-1.6-2.34-1.6-4.1,0-1.53.55-3.1,1.62-4.2,1.29-1.29,2.88-1.53,4.08-1.53s2.91.21,4.22,1.6c1.26,1.33,1.5,3,1.5,4.31v.36ZM318.81,149.47c-.02-.09-.19-.76-.69-1.24-.38-.36-.93-.6-1.62-.6-.88,0-1.41.36-1.74.69-.26.29-.5.67-.6,1.14h4.65Z" fill="#3c5daa" stroke="#5e6bb2" stroke-miterlimit="10" stroke-width=".5"/><path d="M338.09,156.24h-3.43v-1.29c-.52.76-1.48,1.64-3.36,1.64-1.57,0-2.72-.5-3.65-1.45-1.1-1.1-1.67-2.62-1.67-4.27,0-1.76.64-3.22,1.67-4.19.93-.88,2.24-1.43,3.69-1.43,1.17,0,2.46.38,3.31,1.55v-7.94h3.43v17.38ZM330.35,148.92c-.5.48-.83,1.17-.83,2.03,0,.79.33,1.48.83,1.95.52.5,1.19.74,1.79.74.64,0,1.41-.26,1.95-.79.41-.38.79-1.02.79-1.91s-.36-1.53-.76-1.96c-.55-.57-1.19-.79-1.93-.79-.69,0-1.29.19-1.83.72Z" fill="#3c5daa" stroke="#5e6bb2" stroke-miterlimit="10" stroke-width=".5"/><path d="M353.13,139.07c1.12,0,2,.88,2,2s-.88,2-2,2-2-.88-2-2,.88-2,2-2ZM354.85,145.61v10.63h-3.43v-10.63h3.43Z" fill="#3c5daa" stroke="#5e6bb2" stroke-miterlimit="10" stroke-width=".5"/><path d="M360.14,145.61h3.43v1.26c1.05-1.33,2.29-1.55,3.29-1.55.93,0,2.15.17,3.05,1.07,1,1,1.07,2.26,1.07,3.12v6.72h-3.43v-5.46c0-.69-.02-1.57-.57-2.12-.26-.26-.69-.48-1.31-.48-.71,0-1.17.29-1.43.57-.57.57-.67,1.33-.67,2.03v5.46h-3.43v-10.63Z" fill="#3c5daa" stroke="#5e6bb2" stroke-miterlimit="10" stroke-width=".5"/><path d="M387.51,138.86v7.94c.86-1.17,2.14-1.55,3.31-1.55,1.45,0,2.76.55,3.69,1.43,1.03.98,1.67,2.43,1.67,4.19,0,1.64-.57,3.17-1.67,4.27-.93.95-2.07,1.45-3.65,1.45-1.88,0-2.84-.88-3.36-1.64v1.29h-3.43v-17.38h3.43ZM388.05,148.99c-.41.43-.76,1.05-.76,1.96s.38,1.53.79,1.91c.55.52,1.31.79,1.95.79.6,0,1.26-.24,1.79-.74.5-.48.83-1.17.83-1.95,0-.86-.33-1.55-.83-2.03-.55-.53-1.14-.72-1.83-.72-.74,0-1.38.21-1.93.79Z" fill="#3c5daa" stroke="#5e6bb2" stroke-miterlimit="10" stroke-width=".5"/><path d="M411.6,151.52h-7.94c0,.57.21,1.33.64,1.81.52.57,1.24.67,1.76.67s1.03-.1,1.38-.31c.05-.02.45-.29.74-.88l3.24.33c-.48,1.5-1.43,2.29-2.05,2.67-1.03.62-2.17.79-3.36.79-1.6,0-3-.29-4.24-1.53-.93-.93-1.6-2.34-1.6-4.1,0-1.53.55-3.1,1.62-4.2,1.29-1.29,2.88-1.53,4.08-1.53s2.91.21,4.22,1.6c1.26,1.33,1.5,3,1.5,4.31v.36ZM408.43,149.47c-.02-.09-.19-.76-.69-1.24-.38-.36-.93-.6-1.62-.6-.88,0-1.41.36-1.74.69-.26.29-.5.67-.6,1.14h4.65Z" fill="#3c5daa" stroke="#5e6bb2" stroke-miterlimit="10" stroke-width=".5"/><path d="M427.72,156.24h-3.43v-1.29c-.52.76-1.48,1.64-3.36,1.64-1.57,0-2.72-.5-3.65-1.45-1.1-1.1-1.67-2.62-1.67-4.27,0-1.76.64-3.22,1.67-4.19.93-.88,2.24-1.43,3.69-1.43,1.17,0,2.46.38,3.31,1.55v-7.94h3.43v17.38ZM419.97,148.92c-.5.48-.83,1.17-.83,2.03,0,.79.33,1.48.83,1.95.52.5,1.19.74,1.79.74.64,0,1.41-.26,1.95-.79.41-.38.79-1.02.79-1.91s-.36-1.53-.76-1.96c-.55-.57-1.19-.79-1.93-.79-.69,0-1.29.19-1.83.72Z" fill="#3c5daa" stroke="#5e6bb2" stroke-miterlimit="10" stroke-width=".5"/><path d="M448.96,145.61h3.43v10.63h-3.43v-1.29c-.93,1.43-2.26,1.64-3.15,1.64-1.53,0-2.81-.38-3.98-1.62-1.12-1.19-1.55-2.57-1.55-3.98,0-1.79.67-3.31,1.64-4.29.93-.93,2.22-1.46,3.69-1.46.91,0,2.36.21,3.34,1.55v-1.19ZM444.59,148.97c-.36.36-.79.98-.79,1.93s.41,1.57.71,1.91c.48.5,1.22.83,2.03.83.69,0,1.33-.29,1.79-.74.45-.43.83-1.1.83-2,0-.76-.29-1.48-.79-1.95-.52-.5-1.29-.74-1.91-.74-.74,0-1.43.31-1.88.76Z" fill="#3c5daa" stroke="#5e6bb2" stroke-miterlimit="10" stroke-width=".5"/><path d="M460.97,138.86v17.38h-3.43v-17.38h3.43Z" fill="#3c5daa" stroke="#5e6bb2" stroke-miterlimit="10" stroke-width=".5"/><path d="M469.65,138.86v17.38h-3.43v-17.38h3.43Z" fill="#3c5daa" stroke="#5e6bb2" stroke-miterlimit="10" stroke-width=".5"/><path d="M482.74,145.61h3.43v1.26c1.05-1.33,2.29-1.55,3.29-1.55.93,0,2.15.17,3.05,1.07,1,1,1.07,2.26,1.07,3.12v6.72h-3.43v-5.46c0-.69-.02-1.57-.57-2.12-.26-.26-.69-.48-1.31-.48-.71,0-1.17.29-1.43.57-.57.57-.67,1.33-.67,2.03v5.46h-3.43v-10.63Z" fill="#3c5daa" stroke="#5e6bb2" stroke-miterlimit="10" stroke-width=".5"/><path d="M500.59,139.07c1.12,0,2,.88,2,2s-.88,2-2,2-2-.88-2-2,.88-2,2-2ZM502.3,145.61v10.63h-3.43v-10.63h3.43Z" fill="#3c5daa" stroke="#5e6bb2" stroke-miterlimit="10" stroke-width=".5"/><path d="M515.68,145.61h3.43v9.99c0,1.5-.07,3.19-1.31,4.53-1.31,1.41-3.31,1.57-4.48,1.57-1.41,0-3.1-.21-4.43-1.36-.67-.57-1.36-1.48-1.6-2.81h3.74c.14.55.48.86.76,1.05.41.26.98.36,1.48.36.98,0,1.48-.36,1.72-.57.67-.64.69-1.76.69-2.22v-1.21c-.4.67-1.21,1.6-3.17,1.6-1.64,0-2.91-.52-3.88-1.5-.86-.88-1.55-2.17-1.55-4s.67-3.31,1.57-4.24c.64-.67,1.88-1.53,3.86-1.53s2.79,1.03,3.17,1.6v-1.24ZM511.41,148.92c-.52.5-.81,1.33-.81,1.98,0,.69.26,1.41.74,1.91.48.5,1.12.76,1.93.76.91,0,1.5-.36,1.86-.69.52-.5.83-1.24.83-2.03,0-.83-.36-1.53-.81-1.95-.5-.45-1.24-.67-1.86-.67-.76,0-1.45.29-1.88.69Z" fill="#3c5daa" stroke="#5e6bb2" stroke-miterlimit="10" stroke-width=".5"/><path d="M524.26,138.86h3.43v8.01c.43-.52.88-.88,1.29-1.1.71-.38,1.31-.45,2.07-.45.83,0,2.07.12,3,1.07.98.98,1.05,2.29,1.05,3.1v6.75h-3.43v-5.46c0-.74-.02-1.6-.57-2.12-.31-.31-.83-.48-1.33-.48-.74,0-1.17.33-1.36.53-.69.67-.71,1.69-.71,2.22v5.31h-3.43v-17.38Z" fill="#3c5daa" stroke="#5e6bb2" stroke-miterlimit="10" stroke-width=".5"/><path d="M544.19,148.37v7.87h-3.43v-7.87h-1.19v-2.76h1.19v-3.43h3.43v3.43h2.12v2.76h-2.12Z" fill="#3c5daa" stroke="#5e6bb2" stroke-miterlimit="10" stroke-width=".5"/><path d="M552.15,152.28c1.22,0,2.17.95,2.17,2.17s-.95,2.17-2.17,2.17-2.17-.95-2.17-2.17.95-2.17,2.17-2.17ZM550.38,151.11v-10.77h3.53v10.77h-3.53Z" fill="#3c5daa" stroke="#5e6bb2" stroke-miterlimit="10" stroke-width=".5"/></g><g id="Morning"><rect x="15.82" y="15.58" width="760.75" height="110.4" fill="#3c5daa" stroke="#3c5daa" stroke-miterlimit="10" stroke-width="5"/><g id="Summer_Daily_Schedule_Morning"><rect x="125.46" y="17.7" width="541.47" height="100.78" fill="none"/><path d="M257.2,46.87c-1.04-.72-2.95-1.8-4.9-1.8-.47,0-1.19.07-1.66.43-.32.25-.43.5-.43.86,0,.5.07.97,1.4,1.26l2.77.61c2.12.47,3.38,1.33,4.1,2.05,1.51,1.48,1.84,3.31,1.84,4.75,0,2.05-.54,3.96-2.16,5.65-1.37,1.4-3.96,3.06-8.46,3.06-3.67,0-6.12-1.04-8.17-1.87l-.79-.32,2.63-6.77.94.72c.9.68,2.74,1.76,4.86,1.76,1.19,0,1.69-.29,1.87-.43.4-.32.47-.72.47-1.08,0-.22-.04-.58-.29-.83-.29-.29-.76-.4-1.66-.58l-2.12-.4c-1.37-.25-2.84-.68-4.17-2.05-1.22-1.26-1.73-2.7-1.73-4.43,0-2.23.76-4.14,2.34-5.72,1.84-1.87,4.54-3.1,8.35-3.1,1.91,0,4.39.32,7.31,2.09l-2.34,6.12Z" fill="#fff" stroke="#fff" stroke-miterlimit="10"/><path d="M264.08,39.2h8.64v13.93c0,.72.07,1.73.76,2.45.47.5,1.04.65,1.73.65.9,0,1.44-.25,1.76-.58.65-.65.65-1.91.65-2.52v-13.93h8.68v14.72c0,1.87-.36,4.61-2.52,6.84-2.45,2.52-5.9,2.99-8.57,2.99-2.2,0-6.19-.22-8.93-3.17-1.87-2.02-2.2-4.28-2.2-6.05v-15.33Z" fill="#fff" stroke="#fff" stroke-miterlimit="10"/><path d="M290.14,63.21l3.89-24.01h8.96l2.81,9.83c.36,1.26.5,2.45.54,2.77h.22c.04-1.04.18-1.76.47-2.77l2.81-9.83h8.89l3.92,24.01h-8.39l-1.08-10.76c-.07-.83-.14-1.37-.14-2.38h-.14c-.11.61-.32,1.55-.47,2.02l-3.56,11.12h-5.11l-3.2-10.51c-.25-.86-.43-1.62-.47-2.63h-.25c0,.47,0,1.4-.04,1.87l-1.19,11.27h-8.46Z" fill="#fff" stroke="#fff" stroke-miterlimit="10"/><path d="M325.53,63.21l3.89-24.01h8.96l2.81,9.83c.36,1.26.5,2.45.54,2.77h.22c.04-1.04.18-1.76.47-2.77l2.81-9.83h8.89l3.92,24.01h-8.39l-1.08-10.76c-.07-.83-.14-1.37-.14-2.38h-.14c-.11.61-.32,1.55-.47,2.02l-3.56,11.12h-5.11l-3.2-10.51c-.25-.86-.43-1.62-.47-2.63h-.25c0,.47,0,1.4-.04,1.87l-1.19,11.27h-8.46Z" fill="#fff" stroke="#fff" stroke-miterlimit="10"/><path d="M361.89,63.21v-24.01h16.2v6.59h-7.49v2.23h6.8v6.3h-6.8v2.3h7.7v6.59h-16.41Z" fill="#fff" stroke="#fff" stroke-miterlimit="10"/><path d="M382.05,63.21v-24.01h10.83c2.52,0,5.15.29,7.34,2.48,1.22,1.22,2.27,3.06,2.27,5.9,0,2.12-.65,3.46-1.33,4.28-.72.9-1.91,1.62-3.31,1.91v.22c.47.25.94.61,1.26,1.12l5.4,8.1h-10.04l-3.46-7.02c-.11-.25-.22-.36-.32-.76l-.14.07v7.7h-8.49ZM390.54,49.89h1.01c.5,0,1.3-.07,1.84-.54.29-.25.61-.72.61-1.48,0-.54-.14-1.08-.47-1.44-.29-.32-.76-.65-1.48-.65h-1.51v4.1Z" fill="#fff" stroke="#fff" stroke-miterlimit="10"/><path d="M416.03,63.21v-24.01h8.31l5.58,9.07c.9,1.44,1.48,2.38,2.27,4.25h.25c-.36-1.51-.76-3.92-.76-5.69v-7.63h8.35v24.01h-8.35l-5.97-9.47c-.54-.86-1.19-2.12-1.66-3.13h-.25c.25,1.3.54,3.35.54,4.43v8.17h-8.31Z" fill="#fff" stroke="#fff" stroke-miterlimit="10"/><path d="M444.87,63.21v-24.01h8.71v24.01h-8.71Z" fill="#fff" stroke="#fff" stroke-miterlimit="10"/><path d="M470.14,49.25h13.5v.54c0,2.95-.25,6.95-3.13,10.04-2.38,2.56-6.23,3.92-10.19,3.92-5.04,0-8.1-2.02-9.9-3.96-2.27-2.45-3.1-5.36-3.1-8.53,0-4.39,1.69-7.16,3.31-8.82,1.94-2.02,5.25-3.78,10.08-3.78,2.59,0,4.82.5,7.06,1.69,2.05,1.12,3.49,2.48,4.61,4.43l-8.13,3.02c-.5-.79-1.48-1.84-3.31-1.84-1.26,0-2.3.43-3.06,1.12-.97.9-1.76,2.45-1.76,4.54,0,1.62.54,3.28,1.58,4.28.68.65,1.62,1.08,2.84,1.08,1.3,0,2.99-.47,3.56-2.05h-3.96v-5.69Z" fill="#fff" stroke="#fff" stroke-miterlimit="10"/><path d="M487.35,63.21v-24.01h8.39v8.13h5.33v-8.13h8.39v24.01h-8.39v-8.35h-5.33v8.35h-8.39Z" fill="#fff" stroke="#fff" stroke-miterlimit="10"/><path d="M517.01,63.21v-16.41l-4.9.22v-7.81h18.36v7.81l-4.9-.22v16.41h-8.57Z" fill="#fff" stroke="#fff" stroke-miterlimit="10"/><path d="M548.51,46.87c-1.04-.72-2.95-1.8-4.9-1.8-.47,0-1.19.07-1.66.43-.32.25-.43.5-.43.86,0,.5.07.97,1.4,1.26l2.77.61c2.12.47,3.38,1.33,4.1,2.05,1.51,1.48,1.84,3.31,1.84,4.75,0,2.05-.54,3.96-2.16,5.65-1.37,1.4-3.96,3.06-8.46,3.06-3.67,0-6.12-1.04-8.17-1.87l-.79-.32,2.63-6.77.94.72c.9.68,2.74,1.76,4.86,1.76,1.19,0,1.69-.29,1.87-.43.4-.32.47-.72.47-1.08,0-.22-.04-.58-.29-.83-.29-.29-.76-.4-1.66-.58l-2.12-.4c-1.37-.25-2.84-.68-4.18-2.05-1.22-1.26-1.73-2.7-1.73-4.43,0-2.23.76-4.14,2.34-5.72,1.83-1.87,4.54-3.1,8.35-3.1,1.91,0,4.39.32,7.31,2.09l-2.34,6.12Z" fill="#fff" stroke="#fff" stroke-miterlimit="10"/><path d="M257.67,82.87c-1.04-.72-2.95-1.8-4.9-1.8-.47,0-1.19.07-1.66.43-.32.25-.43.5-.43.86,0,.5.07.97,1.4,1.26l2.77.61c2.12.47,3.38,1.33,4.1,2.05,1.51,1.48,1.84,3.31,1.84,4.75,0,2.05-.54,3.96-2.16,5.65-1.37,1.4-3.96,3.06-8.46,3.06-3.67,0-6.12-1.04-8.17-1.87l-.79-.32,2.63-6.77.94.72c.9.68,2.74,1.76,4.86,1.76,1.19,0,1.69-.29,1.87-.43.4-.32.47-.72.47-1.08,0-.22-.04-.58-.29-.83-.29-.29-.76-.4-1.66-.58l-2.12-.4c-1.37-.25-2.84-.68-4.18-2.05-1.22-1.26-1.73-2.7-1.73-4.43,0-2.23.76-4.14,2.34-5.72,1.84-1.87,4.54-3.1,8.35-3.1,1.91,0,4.39.32,7.31,2.09l-2.34,6.12Z" fill="#fff" stroke="#fff" stroke-miterlimit="10"/><path d="M276.64,99.21v-16.41l-4.9.22v-7.81h18.36v7.81l-4.9-.22v16.41h-8.57Z" fill="#fff" stroke="#fff" stroke-miterlimit="10"/><path d="M308.5,96.22l-.65,2.99h-9.21l8.31-24.01h9.65l8.57,24.01h-9.25l-.79-2.99h-6.62ZM312.03,83.23h-.32c-.04,1.01-.18,1.84-.4,2.7l-1.19,4.61h3.49l-1.12-4.61c-.22-.94-.36-1.84-.47-2.7Z" fill="#fff" stroke="#fff" stroke-miterlimit="10"/><path d="M331.58,75.2h9.86l2.05,4.39c.14.32.43,1.01.65,1.91h.25c.18-1.01.43-1.37.65-1.91l1.87-4.39h9.83l-8.21,13.68v10.33h-8.6v-10.33l-8.35-13.68Z" fill="#fff" stroke="#fff" stroke-miterlimit="10"/><path d="M386.01,99.21v-24.01h8.71v24.01h-8.71Z" fill="#fff" stroke="#fff" stroke-miterlimit="10"/><path d="M408.91,99.21v-24.01h8.31l5.58,9.07c.9,1.44,1.48,2.38,2.27,4.25h.25c-.36-1.51-.76-3.92-.76-5.69v-7.63h8.35v24.01h-8.35l-5.97-9.47c-.54-.86-1.19-2.12-1.66-3.13h-.25c.25,1.3.54,3.35.54,4.43v8.17h-8.31Z" fill="#fff" stroke="#fff" stroke-miterlimit="10"/><path d="M464.85,75.2h10.47c2.05,0,5.25.22,7.16,2.02.58.54,1.84,1.98,1.84,4.68,0,.9-.11,2.2-1.01,3.31-.47.58-1.22,1.15-2.09,1.48l-.04.22c.97.25,1.76.72,2.52,1.44,1.19,1.15,1.76,2.45,1.76,4.18,0,1.87-.61,3.53-2.27,4.86-2.02,1.62-4.46,1.84-6.16,1.84h-12.2v-24.01ZM472.91,84.42h1.37c.5,0,1.26-.14,1.66-.54.22-.22.47-.61.47-1.26,0-.68-.32-1.08-.54-1.26-.47-.36-1.26-.4-1.58-.4h-1.37v3.46ZM472.91,93.42h1.76c.5,0,1.26-.04,1.84-.4.43-.29.83-.83.83-1.62,0-.61-.25-1.12-.65-1.44-.58-.47-1.44-.5-1.91-.5h-1.87v3.96Z" fill="#fff" stroke="#fff" stroke-miterlimit="10"/><path d="M498.58,99.21v-24.01h16.2v6.59h-7.49v2.23h6.8v6.3h-6.8v2.3h7.7v6.59h-16.41Z" fill="#fff" stroke="#fff" stroke-miterlimit="10"/><path d="M528.1,99.21v-24.01h9.25c2.02,0,7.13.18,10.62,3.63,1.55,1.55,3.24,4.25,3.24,8.67,0,2.48-.47,5.69-3.1,8.32-1.44,1.48-4.25,3.38-8.6,3.38h-11.41ZM536.74,91.87h.65c1.01,0,2.48-.04,3.71-1.12.83-.72,1.4-1.94,1.4-3.46s-.61-2.84-1.4-3.6c-1.04-.97-2.41-1.15-3.42-1.15h-.94v9.32Z" fill="#fff" stroke="#fff" stroke-miterlimit="10"/></g><rect x="20.54" y="125.62" width="755.83" height="467.35" fill="none" stroke="#3c5daa" stroke-miterlimit="10" stroke-width="5"/><rect x="15.63" y="127.31" width="755.62" height="469.11" fill="none" stroke="#5e6bb2" stroke-miterlimit="10" stroke-width="5"/><g clip-path="url(#clippath)"><polygon points="866.7 37.37 912.46 83.59 902.52 19.12 960.47 -10.41 896.37 -20.73 886.43 -85.2 856.76 -27.11 792.67 -37.43 838.42 8.8 808.75 66.9 866.7 37.37" fill="#fbf284" stroke="#5e6bb2" stroke-miterlimit="10" stroke-width="2"/></g></g></svg>